%
M48
M72
T01C0.01378
T02C0.01700
T03C0.02756
T04C0.03346
T05C0.03937
T06C0.04000
T07C0.04400
T08C0.07874
T09C0.08307
%
T01
X52331Y111386
X81150Y105520
X86124Y126744
X94900Y130331
X97400Y138209
X103461Y129270
X102400Y111770
X97400Y111770
X95586Y91701
X103512Y91701
X115323Y91701
T02
X117489Y114142
X115520Y119654
X121229Y131957
X114339Y138945
X113187Y147282
X102626Y154300
X96819Y149378
X92095Y139930
X98729Y129457
X73985Y172804
X74378Y181465
X79890Y180284
X83040Y196918
X90520Y207154
X93276Y196918
X103119Y197607
X107843Y196819
X114536Y192193
X106662Y184319
X102725Y181170
X112174Y207941
X105481Y218571
X109811Y228414
X112567Y231170
X111386Y243374
X113355Y250067
X117095Y253611
X121721Y257548
X129496Y273689
X123591Y278807
X111878Y270835
X109122Y261386
X104300Y250067
X88552Y249969
X83040Y250067
X82252Y235107
X83433Y228020
X73985Y216209
X69260Y209516
X66111Y203217
X64930Y199181
X61386Y203119
X60599Y209516
X57843Y199181
X55087Y195737
X51937Y191307
X48394Y193276
X43276Y174870
X36878Y163355
X59024Y153906
X64930Y163748
X63355Y167685
X70441Y160205
X70048Y155481
X57449Y139831
X72410Y124772
X62961Y111977
X63650Y93178
X72016Y86288
X57154Y71524
X46130Y108138
X31465Y114536
X30284Y85402
X26741Y82056
X57843Y218965
X52725Y223689
X35008Y224870
X29103Y236681
X24378Y244162
X29496Y252036
X41307Y252823
X44063Y270540
X38158Y274870
X49969Y298197
X43670Y302922
X42882Y309418
X51150Y331957
X45638Y336681
X25166Y336681
X19654Y331563
X23591Y306662
X27134Y302134
X53119Y255579
X64536Y279595
X70835Y274870
X90126Y290126
X99969Y293670
X90126Y317095
X136189Y285107
X140126Y278414
X151937Y278119
X164536Y281662
X171918Y288552
X164536Y294949
X177528Y300559
X181859Y306071
X172410Y273394
X173197Y225363
X178315Y217784
X186189Y224870
X165717Y224969
X138945Y219752
X130284Y224870
X143670Y172804
X142489Y168473
X142489Y164142
X146327Y150756
X132252Y163453
X126347Y168178
X141800Y107351
X134713Y98296
X170933Y150264
X71032Y224280
T03
X26741Y262961
X26741Y270835
T04
X88158Y325658
X103119Y325658
T05
X105481Y268867
X95638Y268867
X85796Y268867
X44457Y288552
X34615Y288552
X24772Y288552
X144851Y288552
X154693Y288552
X164536Y288552
T06
X182351Y284811
X23867Y116662
X23867Y106662
X23867Y96662
X13867Y96662
X13867Y106662
X13867Y116662
X12961Y179339
X12961Y189339
X12961Y199339
T07
X70048Y60205
X80048Y60205
X105323Y60205
X115323Y60205
T08
X112961Y296426
X137370Y316111
X172016Y316111
X78315Y296426
X51937Y316111
X17292Y316111
T09
X24772Y52331
X166504Y52331
M30
