G75*
%MOIN*%
%OFA0B0*%
%FSLAX25Y25*%
%IPPOS*%
%LPD*%
%AMOC8*
5,1,8,0,0,1.08239X$1,22.5*
%
%ADD10C,0.00000*%
%ADD11C,0.01600*%
%ADD12C,0.00200*%
%ADD13C,0.01000*%
%ADD14C,0.00300*%
%ADD15R,0.10320X0.00120*%
%ADD16R,0.00120X0.00120*%
%ADD17R,0.11040X0.00120*%
%ADD18R,0.11400X0.00120*%
%ADD19R,0.11520X0.00120*%
%ADD20R,0.11520X0.00120*%
%ADD21R,0.12000X0.00120*%
%ADD22R,0.12120X0.00120*%
%ADD23R,0.12240X0.00120*%
%ADD24R,0.12360X0.00120*%
%ADD25R,0.12480X0.00120*%
%ADD26R,0.12600X0.00120*%
%ADD27R,0.12720X0.00120*%
%ADD28R,0.12840X0.00120*%
%ADD29R,0.12960X0.00120*%
%ADD30R,0.13200X0.00120*%
%ADD31R,0.13440X0.00120*%
%ADD32R,0.13560X0.00120*%
%ADD33R,0.13560X0.00120*%
%ADD34R,0.13920X0.00120*%
%ADD35R,0.13920X0.00120*%
%ADD36R,0.02880X0.00120*%
%ADD37R,0.03360X0.00120*%
%ADD38R,0.03000X0.00120*%
%ADD39R,0.02880X0.00120*%
%ADD40R,0.03000X0.00120*%
%ADD41R,0.02880X0.00120*%
%ADD42R,0.02880X0.00120*%
%ADD43R,0.02760X0.00120*%
%ADD44R,0.02760X0.00120*%
%ADD45R,0.02640X0.00120*%
%ADD46R,0.02760X0.00120*%
%ADD47R,0.02760X0.00120*%
%ADD48R,0.02640X0.00120*%
%ADD49R,0.01680X0.00120*%
%ADD50R,0.01560X0.00120*%
%ADD51R,0.01680X0.00120*%
%ADD52R,0.00960X0.00120*%
%ADD53R,0.01080X0.00120*%
%ADD54R,0.02160X0.00120*%
%ADD55R,0.03480X0.00120*%
%ADD56R,0.01200X0.00120*%
%ADD57R,0.01080X0.00120*%
%ADD58R,0.01320X0.00120*%
%ADD59R,0.02280X0.00120*%
%ADD60R,0.02280X0.00120*%
%ADD61R,0.03720X0.00120*%
%ADD62R,0.00960X0.00120*%
%ADD63R,0.03480X0.00120*%
%ADD64R,0.01920X0.00120*%
%ADD65R,0.04320X0.00120*%
%ADD66R,0.03840X0.00120*%
%ADD67R,0.00360X0.00120*%
%ADD68R,0.00960X0.00120*%
%ADD69R,0.01200X0.00120*%
%ADD70R,0.01080X0.00120*%
%ADD71R,0.03480X0.00120*%
%ADD72R,0.01080X0.00120*%
%ADD73R,0.01320X0.00120*%
%ADD74R,0.03720X0.00120*%
%ADD75R,0.00960X0.00120*%
%ADD76R,0.03480X0.00120*%
%ADD77R,0.03360X0.00120*%
%ADD78R,0.12240X0.00120*%
%ADD79R,0.03120X0.00120*%
%ADD80R,0.03240X0.00120*%
%ADD81R,0.03600X0.00120*%
%ADD82R,0.03240X0.00120*%
%ADD83R,0.12480X0.00120*%
%ADD84R,0.12360X0.00120*%
%ADD85R,0.01320X0.00120*%
%ADD86R,0.03720X0.00120*%
%ADD87R,0.12480X0.00120*%
%ADD88R,0.12480X0.00120*%
%ADD89R,0.01440X0.00120*%
%ADD90R,0.01560X0.00120*%
%ADD91R,0.01680X0.00120*%
%ADD92R,0.03840X0.00120*%
%ADD93R,0.01560X0.00120*%
%ADD94R,0.01440X0.00120*%
%ADD95R,0.03840X0.00120*%
%ADD96R,0.01440X0.00120*%
%ADD97R,0.01440X0.00120*%
%ADD98R,0.12600X0.00120*%
%ADD99R,0.01560X0.00120*%
%ADD100R,0.03840X0.00120*%
%ADD101R,0.03720X0.00120*%
%ADD102R,0.12720X0.00120*%
%ADD103R,0.03600X0.00120*%
%ADD104R,0.00840X0.00120*%
%ADD105R,0.00720X0.00120*%
%ADD106R,0.12960X0.00120*%
%ADD107R,0.12840X0.00120*%
%ADD108R,0.00840X0.00120*%
%ADD109R,0.01920X0.00120*%
%ADD110R,0.13080X0.00120*%
%ADD111R,0.13080X0.00120*%
%ADD112R,0.00840X0.00120*%
%ADD113R,0.13080X0.00120*%
%ADD114R,0.13080X0.00120*%
%ADD115R,0.01920X0.00120*%
%ADD116R,0.00840X0.00120*%
%ADD117R,0.00720X0.00120*%
%ADD118R,0.02280X0.00120*%
%ADD119R,0.02280X0.00120*%
%ADD120R,0.13320X0.00120*%
%ADD121R,0.13440X0.00120*%
%ADD122R,0.13320X0.00120*%
%ADD123R,0.00720X0.00120*%
%ADD124R,0.03360X0.00120*%
%ADD125R,0.13680X0.00120*%
%ADD126R,0.01800X0.00120*%
%ADD127R,0.13800X0.00120*%
%ADD128R,0.13680X0.00120*%
%ADD129R,0.00720X0.00120*%
%ADD130R,0.03120X0.00120*%
%ADD131R,0.01800X0.00120*%
%ADD132R,0.10080X0.00120*%
%ADD133R,0.14040X0.00120*%
%ADD134R,0.02040X0.00120*%
%ADD135R,0.01920X0.00120*%
%ADD136R,0.02160X0.00120*%
%ADD137R,0.02160X0.00120*%
%ADD138R,0.01320X0.00120*%
%ADD139R,0.02040X0.00120*%
%ADD140R,0.03960X0.00120*%
%ADD141R,0.03960X0.00120*%
%ADD142R,0.03360X0.00120*%
%ADD143R,0.03240X0.00120*%
%ADD144R,0.03120X0.00120*%
%ADD145R,0.03120X0.00120*%
%ADD146R,0.02520X0.00120*%
%ADD147R,0.02520X0.00120*%
%ADD148R,0.02160X0.00120*%
%ADD149R,0.04200X0.00120*%
%ADD150R,0.04440X0.00120*%
%ADD151R,0.05040X0.00120*%
%ADD152R,0.04920X0.00120*%
%ADD153R,0.04320X0.00120*%
%ADD154R,0.03960X0.00120*%
%ADD155R,0.05280X0.00120*%
%ADD156R,0.05520X0.00120*%
%ADD157R,0.05520X0.00120*%
%ADD158R,0.04920X0.00120*%
%ADD159R,0.04800X0.00120*%
%ADD160R,0.06120X0.00120*%
%ADD161R,0.06120X0.00120*%
%ADD162R,0.06000X0.00120*%
%ADD163R,0.05640X0.00120*%
%ADD164R,0.05520X0.00120*%
%ADD165R,0.06840X0.00120*%
%ADD166R,0.06480X0.00120*%
%ADD167R,0.06600X0.00120*%
%ADD168R,0.06000X0.00120*%
%ADD169R,0.07320X0.00120*%
%ADD170R,0.04560X0.00120*%
%ADD171R,0.02520X0.00120*%
%ADD172R,0.07080X0.00120*%
%ADD173R,0.06960X0.00120*%
%ADD174R,0.07080X0.00120*%
%ADD175R,0.06480X0.00120*%
%ADD176R,0.07680X0.00120*%
%ADD177R,0.04680X0.00120*%
%ADD178R,0.02400X0.00120*%
%ADD179R,0.07440X0.00120*%
%ADD180R,0.07320X0.00120*%
%ADD181R,0.08040X0.00120*%
%ADD182R,0.04920X0.00120*%
%ADD183R,0.02400X0.00120*%
%ADD184R,0.07680X0.00120*%
%ADD185R,0.07800X0.00120*%
%ADD186R,0.07440X0.00120*%
%ADD187R,0.08400X0.00120*%
%ADD188R,0.05040X0.00120*%
%ADD189R,0.02040X0.00120*%
%ADD190R,0.08160X0.00120*%
%ADD191R,0.08040X0.00120*%
%ADD192R,0.07560X0.00120*%
%ADD193R,0.07920X0.00120*%
%ADD194R,0.08760X0.00120*%
%ADD195R,0.02040X0.00120*%
%ADD196R,0.08160X0.00120*%
%ADD197R,0.09000X0.00120*%
%ADD198R,0.05160X0.00120*%
%ADD199R,0.08880X0.00120*%
%ADD200R,0.08760X0.00120*%
%ADD201R,0.08520X0.00120*%
%ADD202R,0.09240X0.00120*%
%ADD203R,0.05280X0.00120*%
%ADD204R,0.09120X0.00120*%
%ADD205R,0.09000X0.00120*%
%ADD206R,0.08400X0.00120*%
%ADD207R,0.08880X0.00120*%
%ADD208R,0.09480X0.00120*%
%ADD209R,0.09360X0.00120*%
%ADD210R,0.09240X0.00120*%
%ADD211R,0.08640X0.00120*%
%ADD212R,0.09720X0.00120*%
%ADD213R,0.05280X0.00120*%
%ADD214R,0.09600X0.00120*%
%ADD215R,0.09720X0.00120*%
%ADD216R,0.09240X0.00120*%
%ADD217R,0.09960X0.00120*%
%ADD218R,0.05400X0.00120*%
%ADD219R,0.00240X0.00120*%
%ADD220R,0.09840X0.00120*%
%ADD221R,0.09960X0.00120*%
%ADD222R,0.09120X0.00120*%
%ADD223R,0.09480X0.00120*%
%ADD224R,0.10080X0.00120*%
%ADD225R,0.05400X0.00120*%
%ADD226R,0.10200X0.00120*%
%ADD227R,0.09360X0.00120*%
%ADD228R,0.10320X0.00120*%
%ADD229R,0.10440X0.00120*%
%ADD230R,0.09840X0.00120*%
%ADD231R,0.10560X0.00120*%
%ADD232R,0.10440X0.00120*%
%ADD233R,0.09600X0.00120*%
%ADD234R,0.10800X0.00120*%
%ADD235R,0.10080X0.00120*%
%ADD236R,0.10680X0.00120*%
%ADD237R,0.10800X0.00120*%
%ADD238R,0.10920X0.00120*%
%ADD239R,0.10200X0.00120*%
%ADD240R,0.11040X0.00120*%
%ADD241R,0.11160X0.00120*%
%ADD242R,0.11280X0.00120*%
%ADD243R,0.04800X0.00120*%
%ADD244R,0.04560X0.00120*%
%ADD245R,0.02640X0.00120*%
%ADD246R,0.04680X0.00120*%
%ADD247R,0.05280X0.00120*%
%ADD248R,0.05160X0.00120*%
%ADD249R,0.10320X0.00120*%
%ADD250R,0.04440X0.00120*%
%ADD251R,0.04080X0.00120*%
%ADD252R,0.04440X0.00120*%
%ADD253R,0.05040X0.00120*%
%ADD254R,0.04080X0.00120*%
%ADD255R,0.04080X0.00120*%
%ADD256R,0.04680X0.00120*%
%ADD257R,0.04440X0.00120*%
%ADD258R,0.04320X0.00120*%
%ADD259R,0.04200X0.00120*%
%ADD260R,0.04080X0.00120*%
%ADD261R,0.04680X0.00120*%
%ADD262R,0.04920X0.00120*%
%ADD263R,0.05760X0.00120*%
%ADD264R,0.05760X0.00120*%
%ADD265R,0.05880X0.00120*%
%ADD266R,0.06120X0.00120*%
%ADD267R,0.06240X0.00120*%
%ADD268R,0.05640X0.00120*%
%ADD269R,0.05520X0.00120*%
%ADD270R,0.06480X0.00120*%
%ADD271R,0.06600X0.00120*%
%ADD272R,0.06840X0.00120*%
%ADD273R,0.06720X0.00120*%
%ADD274R,0.01680X0.00120*%
%ADD275R,0.06960X0.00120*%
%ADD276R,0.06240X0.00120*%
%ADD277R,0.06360X0.00120*%
%ADD278R,0.07200X0.00120*%
%ADD279R,0.07320X0.00120*%
%ADD280R,0.06720X0.00120*%
%ADD281R,0.00600X0.00120*%
%ADD282R,0.07440X0.00120*%
%ADD283R,0.00360X0.00120*%
%ADD284R,0.07560X0.00120*%
%ADD285R,0.07680X0.00120*%
%ADD286R,0.07200X0.00120*%
%ADD287R,0.07680X0.00120*%
%ADD288R,0.07800X0.00120*%
%ADD289R,0.04320X0.00120*%
%ADD290R,0.07920X0.00120*%
%ADD291R,0.02640X0.00120*%
%ADD292R,0.08040X0.00120*%
%ADD293R,0.08280X0.00120*%
%ADD294R,0.03960X0.00120*%
%ADD295R,0.08520X0.00120*%
%ADD296R,0.09120X0.00120*%
%ADD297R,0.08520X0.00120*%
%ADD298R,0.05640X0.00120*%
%ADD299R,0.07920X0.00120*%
%ADD300R,0.05760X0.00120*%
%ADD301R,0.06960X0.00120*%
%ADD302R,0.06720X0.00120*%
%ADD303R,0.05880X0.00120*%
%ADD304R,0.06840X0.00120*%
%ADD305R,0.05160X0.00120*%
%ADD306R,0.07080X0.00120*%
%ADD307R,0.06240X0.00120*%
%ADD308R,0.05880X0.00120*%
%ADD309R,0.07320X0.00120*%
%ADD310R,0.02520X0.00120*%
%ADD311R,0.07560X0.00120*%
%ADD312R,0.06480X0.00120*%
%ADD313R,0.00120X0.00120*%
%ADD314R,0.10440X0.00120*%
%ADD315R,0.11400X0.00120*%
%ADD316R,0.10920X0.00120*%
%ADD317R,0.09960X0.00120*%
%ADD318R,0.10560X0.00120*%
%ADD319R,0.09720X0.00120*%
%ADD320R,0.10320X0.00120*%
%ADD321R,0.09480X0.00120*%
%ADD322R,0.11880X0.00120*%
%ADD323R,0.09960X0.00120*%
%ADD324R,0.11760X0.00120*%
%ADD325R,0.11640X0.00120*%
%ADD326R,0.09120X0.00120*%
%ADD327R,0.08880X0.00120*%
%ADD328R,0.08640X0.00120*%
%ADD329R,0.07920X0.00120*%
%ADD330R,0.10680X0.00120*%
%ADD331R,0.06720X0.00120*%
%ADD332R,0.06360X0.00120*%
%ADD333R,0.06120X0.00120*%
%ADD334R,0.06240X0.00120*%
%ADD335R,0.06360X0.00120*%
%ADD336R,0.07440X0.00120*%
%ADD337R,0.06960X0.00120*%
%ADD338R,0.04560X0.00120*%
%ADD339R,0.05760X0.00120*%
%ADD340R,0.05160X0.00120*%
%ADD341R,0.04560X0.00120*%
%ADD342R,0.11520X0.00120*%
%ADD343R,0.11760X0.00120*%
%ADD344R,0.07560X0.00120*%
%ADD345R,0.11640X0.00120*%
%ADD346R,0.11760X0.00120*%
%ADD347R,0.00600X0.00120*%
%ADD348R,0.11760X0.00120*%
%ADD349R,0.00480X0.00120*%
%ADD350R,0.00480X0.00120*%
%ADD351R,0.05040X0.00120*%
%ADD352R,0.14040X0.00120*%
%ADD353R,0.13800X0.00120*%
%ADD354R,0.13200X0.00120*%
%ADD355R,0.12960X0.00120*%
%ADD356R,0.07080X0.00120*%
%ADD357R,0.03240X0.00120*%
%ADD358R,0.08280X0.00120*%
%ADD359R,0.00120X0.00120*%
%ADD360R,0.08160X0.00120*%
%ADD361R,0.08160X0.00120*%
%ADD362R,0.08040X0.00120*%
%ADD363R,0.06840X0.00120*%
%ADD364R,0.00240X0.00120*%
%ADD365R,0.05880X0.00120*%
D10*
X0001150Y0001150D02*
X0001150Y0339733D01*
X0190126Y0339733D01*
X0190126Y0001150D01*
X0001150Y0001150D01*
X0020618Y0052331D02*
X0020620Y0052460D01*
X0020626Y0052588D01*
X0020636Y0052716D01*
X0020650Y0052844D01*
X0020668Y0052971D01*
X0020689Y0053098D01*
X0020715Y0053224D01*
X0020745Y0053349D01*
X0020778Y0053473D01*
X0020815Y0053596D01*
X0020856Y0053718D01*
X0020901Y0053839D01*
X0020950Y0053958D01*
X0021002Y0054075D01*
X0021058Y0054191D01*
X0021117Y0054305D01*
X0021180Y0054417D01*
X0021246Y0054527D01*
X0021316Y0054635D01*
X0021389Y0054741D01*
X0021465Y0054845D01*
X0021544Y0054946D01*
X0021627Y0055045D01*
X0021712Y0055141D01*
X0021801Y0055234D01*
X0021892Y0055325D01*
X0021986Y0055412D01*
X0022083Y0055497D01*
X0022182Y0055579D01*
X0022284Y0055657D01*
X0022388Y0055733D01*
X0022494Y0055805D01*
X0022603Y0055874D01*
X0022714Y0055939D01*
X0022826Y0056001D01*
X0022941Y0056060D01*
X0023057Y0056114D01*
X0023175Y0056166D01*
X0023294Y0056213D01*
X0023415Y0056257D01*
X0023537Y0056297D01*
X0023661Y0056334D01*
X0023785Y0056366D01*
X0023910Y0056395D01*
X0024037Y0056419D01*
X0024163Y0056440D01*
X0024291Y0056457D01*
X0024419Y0056470D01*
X0024547Y0056479D01*
X0024676Y0056484D01*
X0024804Y0056485D01*
X0024933Y0056482D01*
X0025061Y0056475D01*
X0025189Y0056464D01*
X0025317Y0056449D01*
X0025444Y0056430D01*
X0025571Y0056408D01*
X0025696Y0056381D01*
X0025821Y0056350D01*
X0025945Y0056316D01*
X0026068Y0056278D01*
X0026189Y0056236D01*
X0026310Y0056190D01*
X0026428Y0056141D01*
X0026545Y0056087D01*
X0026661Y0056031D01*
X0026774Y0055971D01*
X0026886Y0055907D01*
X0026996Y0055840D01*
X0027103Y0055769D01*
X0027208Y0055695D01*
X0027311Y0055618D01*
X0027412Y0055538D01*
X0027510Y0055455D01*
X0027605Y0055369D01*
X0027698Y0055280D01*
X0027788Y0055188D01*
X0027875Y0055093D01*
X0027959Y0054996D01*
X0028040Y0054896D01*
X0028117Y0054793D01*
X0028192Y0054689D01*
X0028263Y0054582D01*
X0028331Y0054473D01*
X0028396Y0054361D01*
X0028457Y0054248D01*
X0028515Y0054133D01*
X0028569Y0054017D01*
X0028619Y0053898D01*
X0028666Y0053779D01*
X0028709Y0053657D01*
X0028748Y0053535D01*
X0028783Y0053411D01*
X0028815Y0053287D01*
X0028842Y0053161D01*
X0028866Y0053035D01*
X0028886Y0052908D01*
X0028902Y0052780D01*
X0028914Y0052652D01*
X0028922Y0052524D01*
X0028926Y0052395D01*
X0028926Y0052267D01*
X0028922Y0052138D01*
X0028914Y0052010D01*
X0028902Y0051882D01*
X0028886Y0051754D01*
X0028866Y0051627D01*
X0028842Y0051501D01*
X0028815Y0051375D01*
X0028783Y0051251D01*
X0028748Y0051127D01*
X0028709Y0051005D01*
X0028666Y0050883D01*
X0028619Y0050764D01*
X0028569Y0050645D01*
X0028515Y0050529D01*
X0028457Y0050414D01*
X0028396Y0050301D01*
X0028331Y0050189D01*
X0028263Y0050080D01*
X0028192Y0049973D01*
X0028117Y0049869D01*
X0028040Y0049766D01*
X0027959Y0049666D01*
X0027875Y0049569D01*
X0027788Y0049474D01*
X0027698Y0049382D01*
X0027605Y0049293D01*
X0027510Y0049207D01*
X0027412Y0049124D01*
X0027311Y0049044D01*
X0027208Y0048967D01*
X0027103Y0048893D01*
X0026996Y0048822D01*
X0026886Y0048755D01*
X0026774Y0048691D01*
X0026661Y0048631D01*
X0026545Y0048575D01*
X0026428Y0048521D01*
X0026310Y0048472D01*
X0026189Y0048426D01*
X0026068Y0048384D01*
X0025945Y0048346D01*
X0025821Y0048312D01*
X0025696Y0048281D01*
X0025571Y0048254D01*
X0025444Y0048232D01*
X0025317Y0048213D01*
X0025189Y0048198D01*
X0025061Y0048187D01*
X0024933Y0048180D01*
X0024804Y0048177D01*
X0024676Y0048178D01*
X0024547Y0048183D01*
X0024419Y0048192D01*
X0024291Y0048205D01*
X0024163Y0048222D01*
X0024037Y0048243D01*
X0023910Y0048267D01*
X0023785Y0048296D01*
X0023661Y0048328D01*
X0023537Y0048365D01*
X0023415Y0048405D01*
X0023294Y0048449D01*
X0023175Y0048496D01*
X0023057Y0048548D01*
X0022941Y0048602D01*
X0022826Y0048661D01*
X0022714Y0048723D01*
X0022603Y0048788D01*
X0022494Y0048857D01*
X0022388Y0048929D01*
X0022284Y0049005D01*
X0022182Y0049083D01*
X0022083Y0049165D01*
X0021986Y0049250D01*
X0021892Y0049337D01*
X0021801Y0049428D01*
X0021712Y0049521D01*
X0021627Y0049617D01*
X0021544Y0049716D01*
X0021465Y0049817D01*
X0021389Y0049921D01*
X0021316Y0050027D01*
X0021246Y0050135D01*
X0021180Y0050245D01*
X0021117Y0050357D01*
X0021058Y0050471D01*
X0021002Y0050587D01*
X0020950Y0050704D01*
X0020901Y0050823D01*
X0020856Y0050944D01*
X0020815Y0051066D01*
X0020778Y0051189D01*
X0020745Y0051313D01*
X0020715Y0051438D01*
X0020689Y0051564D01*
X0020668Y0051691D01*
X0020650Y0051818D01*
X0020636Y0051946D01*
X0020626Y0052074D01*
X0020620Y0052202D01*
X0020618Y0052331D01*
X0162350Y0052331D02*
X0162352Y0052460D01*
X0162358Y0052588D01*
X0162368Y0052716D01*
X0162382Y0052844D01*
X0162400Y0052971D01*
X0162421Y0053098D01*
X0162447Y0053224D01*
X0162477Y0053349D01*
X0162510Y0053473D01*
X0162547Y0053596D01*
X0162588Y0053718D01*
X0162633Y0053839D01*
X0162682Y0053958D01*
X0162734Y0054075D01*
X0162790Y0054191D01*
X0162849Y0054305D01*
X0162912Y0054417D01*
X0162978Y0054527D01*
X0163048Y0054635D01*
X0163121Y0054741D01*
X0163197Y0054845D01*
X0163276Y0054946D01*
X0163359Y0055045D01*
X0163444Y0055141D01*
X0163533Y0055234D01*
X0163624Y0055325D01*
X0163718Y0055412D01*
X0163815Y0055497D01*
X0163914Y0055579D01*
X0164016Y0055657D01*
X0164120Y0055733D01*
X0164226Y0055805D01*
X0164335Y0055874D01*
X0164446Y0055939D01*
X0164558Y0056001D01*
X0164673Y0056060D01*
X0164789Y0056114D01*
X0164907Y0056166D01*
X0165026Y0056213D01*
X0165147Y0056257D01*
X0165269Y0056297D01*
X0165393Y0056334D01*
X0165517Y0056366D01*
X0165642Y0056395D01*
X0165769Y0056419D01*
X0165895Y0056440D01*
X0166023Y0056457D01*
X0166151Y0056470D01*
X0166279Y0056479D01*
X0166408Y0056484D01*
X0166536Y0056485D01*
X0166665Y0056482D01*
X0166793Y0056475D01*
X0166921Y0056464D01*
X0167049Y0056449D01*
X0167176Y0056430D01*
X0167303Y0056408D01*
X0167428Y0056381D01*
X0167553Y0056350D01*
X0167677Y0056316D01*
X0167800Y0056278D01*
X0167921Y0056236D01*
X0168042Y0056190D01*
X0168160Y0056141D01*
X0168277Y0056087D01*
X0168393Y0056031D01*
X0168506Y0055971D01*
X0168618Y0055907D01*
X0168728Y0055840D01*
X0168835Y0055769D01*
X0168940Y0055695D01*
X0169043Y0055618D01*
X0169144Y0055538D01*
X0169242Y0055455D01*
X0169337Y0055369D01*
X0169430Y0055280D01*
X0169520Y0055188D01*
X0169607Y0055093D01*
X0169691Y0054996D01*
X0169772Y0054896D01*
X0169849Y0054793D01*
X0169924Y0054689D01*
X0169995Y0054582D01*
X0170063Y0054473D01*
X0170128Y0054361D01*
X0170189Y0054248D01*
X0170247Y0054133D01*
X0170301Y0054017D01*
X0170351Y0053898D01*
X0170398Y0053779D01*
X0170441Y0053657D01*
X0170480Y0053535D01*
X0170515Y0053411D01*
X0170547Y0053287D01*
X0170574Y0053161D01*
X0170598Y0053035D01*
X0170618Y0052908D01*
X0170634Y0052780D01*
X0170646Y0052652D01*
X0170654Y0052524D01*
X0170658Y0052395D01*
X0170658Y0052267D01*
X0170654Y0052138D01*
X0170646Y0052010D01*
X0170634Y0051882D01*
X0170618Y0051754D01*
X0170598Y0051627D01*
X0170574Y0051501D01*
X0170547Y0051375D01*
X0170515Y0051251D01*
X0170480Y0051127D01*
X0170441Y0051005D01*
X0170398Y0050883D01*
X0170351Y0050764D01*
X0170301Y0050645D01*
X0170247Y0050529D01*
X0170189Y0050414D01*
X0170128Y0050301D01*
X0170063Y0050189D01*
X0169995Y0050080D01*
X0169924Y0049973D01*
X0169849Y0049869D01*
X0169772Y0049766D01*
X0169691Y0049666D01*
X0169607Y0049569D01*
X0169520Y0049474D01*
X0169430Y0049382D01*
X0169337Y0049293D01*
X0169242Y0049207D01*
X0169144Y0049124D01*
X0169043Y0049044D01*
X0168940Y0048967D01*
X0168835Y0048893D01*
X0168728Y0048822D01*
X0168618Y0048755D01*
X0168506Y0048691D01*
X0168393Y0048631D01*
X0168277Y0048575D01*
X0168160Y0048521D01*
X0168042Y0048472D01*
X0167921Y0048426D01*
X0167800Y0048384D01*
X0167677Y0048346D01*
X0167553Y0048312D01*
X0167428Y0048281D01*
X0167303Y0048254D01*
X0167176Y0048232D01*
X0167049Y0048213D01*
X0166921Y0048198D01*
X0166793Y0048187D01*
X0166665Y0048180D01*
X0166536Y0048177D01*
X0166408Y0048178D01*
X0166279Y0048183D01*
X0166151Y0048192D01*
X0166023Y0048205D01*
X0165895Y0048222D01*
X0165769Y0048243D01*
X0165642Y0048267D01*
X0165517Y0048296D01*
X0165393Y0048328D01*
X0165269Y0048365D01*
X0165147Y0048405D01*
X0165026Y0048449D01*
X0164907Y0048496D01*
X0164789Y0048548D01*
X0164673Y0048602D01*
X0164558Y0048661D01*
X0164446Y0048723D01*
X0164335Y0048788D01*
X0164226Y0048857D01*
X0164120Y0048929D01*
X0164016Y0049005D01*
X0163914Y0049083D01*
X0163815Y0049165D01*
X0163718Y0049250D01*
X0163624Y0049337D01*
X0163533Y0049428D01*
X0163444Y0049521D01*
X0163359Y0049617D01*
X0163276Y0049716D01*
X0163197Y0049817D01*
X0163121Y0049921D01*
X0163048Y0050027D01*
X0162978Y0050135D01*
X0162912Y0050245D01*
X0162849Y0050357D01*
X0162790Y0050471D01*
X0162734Y0050587D01*
X0162682Y0050704D01*
X0162633Y0050823D01*
X0162588Y0050944D01*
X0162547Y0051066D01*
X0162510Y0051189D01*
X0162477Y0051313D01*
X0162447Y0051438D01*
X0162421Y0051564D01*
X0162400Y0051691D01*
X0162382Y0051818D01*
X0162368Y0051946D01*
X0162358Y0052074D01*
X0162352Y0052202D01*
X0162350Y0052331D01*
X0169587Y0165824D02*
X0169587Y0166064D01*
X0169467Y0166064D01*
X0169427Y0166024D01*
X0169427Y0165944D01*
X0169467Y0165904D01*
X0169587Y0165904D01*
X0169648Y0165904D02*
X0169648Y0166024D01*
X0169688Y0166064D01*
X0169728Y0166024D01*
X0169728Y0165904D01*
X0169808Y0165904D02*
X0169808Y0166064D01*
X0169768Y0166064D01*
X0169728Y0166024D01*
X0169869Y0166024D02*
X0169909Y0166064D01*
X0170029Y0166064D01*
X0170029Y0166145D02*
X0170029Y0165904D01*
X0169909Y0165904D01*
X0169869Y0165944D01*
X0169869Y0166024D01*
X0170099Y0165944D02*
X0170099Y0165904D01*
X0170139Y0165904D01*
X0170139Y0165944D01*
X0170099Y0165944D01*
X0170200Y0165944D02*
X0170200Y0166024D01*
X0170240Y0166064D01*
X0170360Y0166064D01*
X0170421Y0166064D02*
X0170541Y0166064D01*
X0170581Y0166024D01*
X0170581Y0165944D01*
X0170541Y0165904D01*
X0170421Y0165904D01*
X0170360Y0165904D02*
X0170240Y0165904D01*
X0170200Y0165944D01*
X0170360Y0165904D02*
X0170360Y0166145D01*
X0170642Y0166024D02*
X0170642Y0165944D01*
X0170682Y0165904D01*
X0170802Y0165904D01*
X0170802Y0165824D02*
X0170802Y0166064D01*
X0170682Y0166064D01*
X0170642Y0166024D01*
X0170863Y0166024D02*
X0170863Y0165984D01*
X0171023Y0165984D01*
X0171023Y0165944D02*
X0171023Y0166024D01*
X0170983Y0166064D01*
X0170903Y0166064D01*
X0170863Y0166024D01*
X0170903Y0165904D02*
X0170983Y0165904D01*
X0171023Y0165944D01*
X0171084Y0165984D02*
X0171244Y0165984D01*
X0171244Y0165944D02*
X0171244Y0166024D01*
X0171204Y0166064D01*
X0171124Y0166064D01*
X0171084Y0166024D01*
X0171084Y0165984D01*
X0171124Y0165904D02*
X0171204Y0165904D01*
X0171244Y0165944D01*
X0171305Y0165944D02*
X0171305Y0166024D01*
X0171345Y0166064D01*
X0171465Y0166064D01*
X0171465Y0166145D02*
X0171465Y0165904D01*
X0171345Y0165904D01*
X0171305Y0165944D01*
X0171526Y0166145D02*
X0171686Y0165904D01*
X0171753Y0165904D02*
X0171793Y0165944D01*
X0171793Y0166104D01*
X0171833Y0166064D02*
X0171753Y0166064D01*
X0171894Y0166064D02*
X0172014Y0166064D01*
X0172054Y0166024D01*
X0172014Y0165984D01*
X0171934Y0165984D01*
X0171894Y0165944D01*
X0171934Y0165904D01*
X0172054Y0165904D01*
X0172115Y0165904D02*
X0172115Y0166064D01*
X0172115Y0165904D02*
X0172235Y0165904D01*
X0172275Y0165944D01*
X0172275Y0166064D01*
X0172383Y0166145D02*
X0172383Y0165904D01*
X0172423Y0165904D02*
X0172343Y0165904D01*
X0172483Y0165904D02*
X0172604Y0165904D01*
X0172644Y0165944D01*
X0172644Y0166024D01*
X0172604Y0166064D01*
X0172483Y0166064D01*
X0172423Y0166145D02*
X0172383Y0166145D01*
X0172704Y0166024D02*
X0172704Y0165984D01*
X0172865Y0165984D01*
X0172865Y0165944D02*
X0172865Y0166024D01*
X0172825Y0166064D01*
X0172744Y0166064D01*
X0172704Y0166024D01*
X0172744Y0165904D02*
X0172825Y0165904D01*
X0172865Y0165944D01*
X0172925Y0165984D02*
X0173086Y0165984D01*
X0173086Y0165944D02*
X0173086Y0166024D01*
X0173046Y0166064D01*
X0172965Y0166064D01*
X0172925Y0166024D01*
X0172925Y0165984D01*
X0172965Y0165904D02*
X0173046Y0165904D01*
X0173086Y0165944D01*
X0173146Y0165944D02*
X0173186Y0165904D01*
X0173307Y0165904D01*
X0173307Y0166145D01*
X0173186Y0166145D01*
X0173146Y0166104D01*
X0173146Y0166064D01*
X0173186Y0166024D01*
X0173307Y0166024D01*
X0173186Y0166024D02*
X0173146Y0165984D01*
X0173146Y0165944D01*
X0173367Y0166145D02*
X0173527Y0165904D01*
X0173588Y0165944D02*
X0173628Y0165904D01*
X0173748Y0165904D01*
X0173809Y0165944D02*
X0173809Y0166024D01*
X0173849Y0166064D01*
X0173929Y0166064D01*
X0173969Y0166024D01*
X0173969Y0165944D01*
X0173929Y0165904D01*
X0173849Y0165904D01*
X0173809Y0165944D01*
X0173748Y0165824D02*
X0173748Y0166064D01*
X0173628Y0166064D01*
X0173588Y0166024D01*
X0173588Y0165944D01*
X0174037Y0165904D02*
X0174077Y0165944D01*
X0174077Y0166104D01*
X0174117Y0166064D02*
X0174037Y0166064D01*
X0174181Y0166064D02*
X0174301Y0165984D01*
X0174181Y0165904D01*
X0174301Y0165904D02*
X0174301Y0166145D01*
X0174362Y0166064D02*
X0174482Y0166064D01*
X0174522Y0166024D01*
X0174482Y0165984D01*
X0174402Y0165984D01*
X0174362Y0165944D01*
X0174402Y0165904D01*
X0174522Y0165904D01*
X0174583Y0165984D02*
X0174743Y0165984D01*
X0174743Y0165944D02*
X0174743Y0166024D01*
X0174703Y0166064D01*
X0174623Y0166064D01*
X0174583Y0166024D01*
X0174583Y0165984D01*
X0174623Y0165904D02*
X0174703Y0165904D01*
X0174743Y0165944D01*
X0174804Y0165944D02*
X0174804Y0166104D01*
X0174844Y0166145D01*
X0174964Y0166145D01*
X0174964Y0165904D01*
X0174844Y0165904D01*
X0174804Y0165944D01*
X0175025Y0166145D02*
X0175185Y0165904D01*
X0175252Y0165904D02*
X0175292Y0165944D01*
X0175292Y0166104D01*
X0175332Y0166064D02*
X0175252Y0166064D01*
X0175393Y0166024D02*
X0175393Y0165984D01*
X0175553Y0165984D01*
X0175553Y0165944D02*
X0175553Y0166024D01*
X0175513Y0166064D01*
X0175433Y0166064D01*
X0175393Y0166024D01*
X0175433Y0165904D02*
X0175513Y0165904D01*
X0175553Y0165944D01*
X0175614Y0165904D02*
X0175614Y0166024D01*
X0175654Y0166064D01*
X0175774Y0166064D01*
X0175774Y0165904D01*
X0175835Y0165984D02*
X0175995Y0165984D01*
X0175995Y0165944D02*
X0175995Y0166024D01*
X0175955Y0166064D01*
X0175875Y0166064D01*
X0175835Y0166024D01*
X0175835Y0165984D01*
X0175875Y0165904D02*
X0175955Y0165904D01*
X0175995Y0165944D01*
X0176056Y0165944D02*
X0176096Y0165904D01*
X0176216Y0165904D01*
X0176216Y0165824D02*
X0176216Y0166064D01*
X0176096Y0166064D01*
X0176056Y0166024D01*
X0176056Y0165944D01*
X0176280Y0166064D02*
X0176320Y0166064D01*
X0176400Y0165984D01*
X0176461Y0165984D02*
X0176581Y0165984D01*
X0176621Y0165944D01*
X0176581Y0165904D01*
X0176461Y0165904D01*
X0176461Y0166024D01*
X0176501Y0166064D01*
X0176581Y0166064D01*
X0176685Y0166064D02*
X0176805Y0165984D01*
X0176685Y0165904D01*
X0176805Y0165904D02*
X0176805Y0166145D01*
X0176866Y0166145D02*
X0177026Y0165904D01*
X0177087Y0165944D02*
X0177127Y0165984D01*
X0177207Y0165984D01*
X0177247Y0166024D01*
X0177207Y0166064D01*
X0177087Y0166064D01*
X0177087Y0165944D02*
X0177127Y0165904D01*
X0177247Y0165904D01*
X0177311Y0166064D02*
X0177351Y0166064D01*
X0177431Y0165984D01*
X0177492Y0165984D02*
X0177652Y0165984D01*
X0177652Y0165944D02*
X0177652Y0166024D01*
X0177612Y0166064D01*
X0177532Y0166064D01*
X0177492Y0166024D01*
X0177492Y0165984D01*
X0177532Y0165904D02*
X0177612Y0165904D01*
X0177652Y0165944D01*
X0177713Y0165944D02*
X0177753Y0165984D01*
X0177833Y0165984D01*
X0177873Y0166024D01*
X0177833Y0166064D01*
X0177713Y0166064D01*
X0177713Y0165944D02*
X0177753Y0165904D01*
X0177873Y0165904D01*
X0177934Y0165944D02*
X0177934Y0166145D01*
X0178094Y0166145D02*
X0178094Y0165944D01*
X0178054Y0165904D01*
X0177974Y0165904D01*
X0177934Y0165944D01*
X0178155Y0166145D02*
X0178315Y0165904D01*
X0177431Y0165904D02*
X0177431Y0166064D01*
X0176400Y0166064D02*
X0176400Y0165904D01*
X0101446Y0325658D02*
X0101448Y0325739D01*
X0101454Y0325821D01*
X0101464Y0325902D01*
X0101478Y0325982D01*
X0101495Y0326061D01*
X0101517Y0326140D01*
X0101542Y0326217D01*
X0101571Y0326294D01*
X0101604Y0326368D01*
X0101641Y0326441D01*
X0101680Y0326512D01*
X0101724Y0326581D01*
X0101770Y0326648D01*
X0101820Y0326712D01*
X0101873Y0326774D01*
X0101929Y0326834D01*
X0101987Y0326890D01*
X0102049Y0326944D01*
X0102113Y0326995D01*
X0102179Y0327042D01*
X0102247Y0327086D01*
X0102318Y0327127D01*
X0102390Y0327164D01*
X0102465Y0327198D01*
X0102540Y0327228D01*
X0102618Y0327254D01*
X0102696Y0327277D01*
X0102775Y0327295D01*
X0102855Y0327310D01*
X0102936Y0327321D01*
X0103017Y0327328D01*
X0103099Y0327331D01*
X0103180Y0327330D01*
X0103261Y0327325D01*
X0103342Y0327316D01*
X0103423Y0327303D01*
X0103503Y0327286D01*
X0103581Y0327266D01*
X0103659Y0327241D01*
X0103736Y0327213D01*
X0103811Y0327181D01*
X0103884Y0327146D01*
X0103955Y0327107D01*
X0104025Y0327064D01*
X0104092Y0327019D01*
X0104158Y0326970D01*
X0104220Y0326918D01*
X0104280Y0326862D01*
X0104337Y0326804D01*
X0104392Y0326744D01*
X0104443Y0326680D01*
X0104491Y0326615D01*
X0104536Y0326547D01*
X0104578Y0326477D01*
X0104616Y0326405D01*
X0104651Y0326331D01*
X0104682Y0326256D01*
X0104709Y0326179D01*
X0104732Y0326101D01*
X0104752Y0326022D01*
X0104768Y0325942D01*
X0104780Y0325861D01*
X0104788Y0325780D01*
X0104792Y0325699D01*
X0104792Y0325617D01*
X0104788Y0325536D01*
X0104780Y0325455D01*
X0104768Y0325374D01*
X0104752Y0325294D01*
X0104732Y0325215D01*
X0104709Y0325137D01*
X0104682Y0325060D01*
X0104651Y0324985D01*
X0104616Y0324911D01*
X0104578Y0324839D01*
X0104536Y0324769D01*
X0104491Y0324701D01*
X0104443Y0324636D01*
X0104392Y0324572D01*
X0104337Y0324512D01*
X0104280Y0324454D01*
X0104220Y0324398D01*
X0104158Y0324346D01*
X0104092Y0324297D01*
X0104025Y0324252D01*
X0103956Y0324209D01*
X0103884Y0324170D01*
X0103811Y0324135D01*
X0103736Y0324103D01*
X0103659Y0324075D01*
X0103581Y0324050D01*
X0103503Y0324030D01*
X0103423Y0324013D01*
X0103342Y0324000D01*
X0103261Y0323991D01*
X0103180Y0323986D01*
X0103099Y0323985D01*
X0103017Y0323988D01*
X0102936Y0323995D01*
X0102855Y0324006D01*
X0102775Y0324021D01*
X0102696Y0324039D01*
X0102618Y0324062D01*
X0102540Y0324088D01*
X0102465Y0324118D01*
X0102390Y0324152D01*
X0102318Y0324189D01*
X0102247Y0324230D01*
X0102179Y0324274D01*
X0102113Y0324321D01*
X0102049Y0324372D01*
X0101987Y0324426D01*
X0101929Y0324482D01*
X0101873Y0324542D01*
X0101820Y0324604D01*
X0101770Y0324668D01*
X0101724Y0324735D01*
X0101680Y0324804D01*
X0101641Y0324875D01*
X0101604Y0324948D01*
X0101571Y0325022D01*
X0101542Y0325099D01*
X0101517Y0325176D01*
X0101495Y0325255D01*
X0101478Y0325334D01*
X0101464Y0325414D01*
X0101454Y0325495D01*
X0101448Y0325577D01*
X0101446Y0325658D01*
X0086485Y0325658D02*
X0086487Y0325739D01*
X0086493Y0325821D01*
X0086503Y0325902D01*
X0086517Y0325982D01*
X0086534Y0326061D01*
X0086556Y0326140D01*
X0086581Y0326217D01*
X0086610Y0326294D01*
X0086643Y0326368D01*
X0086680Y0326441D01*
X0086719Y0326512D01*
X0086763Y0326581D01*
X0086809Y0326648D01*
X0086859Y0326712D01*
X0086912Y0326774D01*
X0086968Y0326834D01*
X0087026Y0326890D01*
X0087088Y0326944D01*
X0087152Y0326995D01*
X0087218Y0327042D01*
X0087286Y0327086D01*
X0087357Y0327127D01*
X0087429Y0327164D01*
X0087504Y0327198D01*
X0087579Y0327228D01*
X0087657Y0327254D01*
X0087735Y0327277D01*
X0087814Y0327295D01*
X0087894Y0327310D01*
X0087975Y0327321D01*
X0088056Y0327328D01*
X0088138Y0327331D01*
X0088219Y0327330D01*
X0088300Y0327325D01*
X0088381Y0327316D01*
X0088462Y0327303D01*
X0088542Y0327286D01*
X0088620Y0327266D01*
X0088698Y0327241D01*
X0088775Y0327213D01*
X0088850Y0327181D01*
X0088923Y0327146D01*
X0088994Y0327107D01*
X0089064Y0327064D01*
X0089131Y0327019D01*
X0089197Y0326970D01*
X0089259Y0326918D01*
X0089319Y0326862D01*
X0089376Y0326804D01*
X0089431Y0326744D01*
X0089482Y0326680D01*
X0089530Y0326615D01*
X0089575Y0326547D01*
X0089617Y0326477D01*
X0089655Y0326405D01*
X0089690Y0326331D01*
X0089721Y0326256D01*
X0089748Y0326179D01*
X0089771Y0326101D01*
X0089791Y0326022D01*
X0089807Y0325942D01*
X0089819Y0325861D01*
X0089827Y0325780D01*
X0089831Y0325699D01*
X0089831Y0325617D01*
X0089827Y0325536D01*
X0089819Y0325455D01*
X0089807Y0325374D01*
X0089791Y0325294D01*
X0089771Y0325215D01*
X0089748Y0325137D01*
X0089721Y0325060D01*
X0089690Y0324985D01*
X0089655Y0324911D01*
X0089617Y0324839D01*
X0089575Y0324769D01*
X0089530Y0324701D01*
X0089482Y0324636D01*
X0089431Y0324572D01*
X0089376Y0324512D01*
X0089319Y0324454D01*
X0089259Y0324398D01*
X0089197Y0324346D01*
X0089131Y0324297D01*
X0089064Y0324252D01*
X0088995Y0324209D01*
X0088923Y0324170D01*
X0088850Y0324135D01*
X0088775Y0324103D01*
X0088698Y0324075D01*
X0088620Y0324050D01*
X0088542Y0324030D01*
X0088462Y0324013D01*
X0088381Y0324000D01*
X0088300Y0323991D01*
X0088219Y0323986D01*
X0088138Y0323985D01*
X0088056Y0323988D01*
X0087975Y0323995D01*
X0087894Y0324006D01*
X0087814Y0324021D01*
X0087735Y0324039D01*
X0087657Y0324062D01*
X0087579Y0324088D01*
X0087504Y0324118D01*
X0087429Y0324152D01*
X0087357Y0324189D01*
X0087286Y0324230D01*
X0087218Y0324274D01*
X0087152Y0324321D01*
X0087088Y0324372D01*
X0087026Y0324426D01*
X0086968Y0324482D01*
X0086912Y0324542D01*
X0086859Y0324604D01*
X0086809Y0324668D01*
X0086763Y0324735D01*
X0086719Y0324804D01*
X0086680Y0324875D01*
X0086643Y0324948D01*
X0086610Y0325022D01*
X0086581Y0325099D01*
X0086556Y0325176D01*
X0086534Y0325255D01*
X0086517Y0325334D01*
X0086503Y0325414D01*
X0086493Y0325495D01*
X0086487Y0325577D01*
X0086485Y0325658D01*
D11*
X0091849Y0259342D02*
X0097988Y0259342D01*
X0094919Y0259342D02*
X0094919Y0240926D01*
X0097988Y0240926D02*
X0091849Y0240926D01*
X0041689Y0260611D02*
X0032481Y0260611D01*
X0029411Y0263681D01*
X0029411Y0275958D01*
X0032481Y0279027D01*
X0041689Y0279027D01*
X0041689Y0260611D01*
X0148309Y0268244D02*
X0151378Y0265175D01*
X0160586Y0265175D01*
X0160586Y0259037D02*
X0160586Y0277452D01*
X0151378Y0277452D01*
X0148309Y0274383D01*
X0148309Y0268244D01*
D12*
X0183087Y0273694D02*
X0186089Y0273694D01*
X0185089Y0273694D02*
X0186089Y0272193D01*
X0185589Y0271239D02*
X0185089Y0270738D01*
X0185089Y0269237D01*
X0184588Y0269237D02*
X0186089Y0269237D01*
X0186089Y0270738D01*
X0185589Y0271239D01*
X0184088Y0270738D02*
X0184088Y0269737D01*
X0184588Y0269237D01*
X0184088Y0268292D02*
X0186089Y0268292D01*
X0185089Y0268292D02*
X0184088Y0267291D01*
X0184088Y0266791D01*
X0184088Y0265837D02*
X0184088Y0264335D01*
X0184588Y0263835D01*
X0185589Y0263835D01*
X0186089Y0264335D01*
X0186089Y0265837D01*
X0187090Y0265837D02*
X0184088Y0265837D01*
X0184588Y0262890D02*
X0184088Y0262390D01*
X0184088Y0261389D01*
X0184588Y0260888D01*
X0185089Y0260888D01*
X0185089Y0262890D01*
X0185589Y0262890D02*
X0184588Y0262890D01*
X0185589Y0262890D02*
X0186089Y0262390D01*
X0186089Y0261389D01*
X0186089Y0259944D02*
X0186089Y0258442D01*
X0185589Y0257942D01*
X0183587Y0257942D01*
X0183087Y0258442D01*
X0183087Y0259944D01*
X0186089Y0259944D01*
X0186089Y0256997D02*
X0186089Y0255996D01*
X0186089Y0256497D02*
X0184088Y0256497D01*
X0184088Y0256997D01*
X0183087Y0256497D02*
X0182586Y0256497D01*
X0184088Y0254532D02*
X0184088Y0253531D01*
X0184588Y0253031D01*
X0185089Y0253031D01*
X0185089Y0255033D01*
X0185589Y0255033D02*
X0184588Y0255033D01*
X0184088Y0254532D01*
X0185589Y0255033D02*
X0186089Y0254532D01*
X0186089Y0253531D01*
X0186089Y0252086D02*
X0184088Y0252086D01*
X0184088Y0251586D01*
X0184588Y0251085D01*
X0184088Y0250585D01*
X0184588Y0250085D01*
X0186089Y0250085D01*
X0186089Y0251085D02*
X0184588Y0251085D01*
X0184088Y0272193D02*
X0185089Y0273694D01*
X0185089Y0274639D02*
X0185089Y0276641D01*
X0184088Y0276641D02*
X0184088Y0275139D01*
X0184088Y0274639D01*
X0183087Y0275139D02*
X0186089Y0275139D01*
X0186089Y0276140D02*
X0183087Y0276140D01*
D13*
X0144819Y0104764D02*
X0139319Y0104764D01*
X0139319Y0100764D01*
X0139319Y0074764D02*
X0139319Y0070764D01*
X0144819Y0070764D01*
X0153319Y0077764D02*
X0153319Y0097764D01*
X0052926Y0097764D02*
X0052926Y0077764D01*
X0044426Y0070764D02*
X0038926Y0070764D01*
X0038926Y0074764D01*
X0038926Y0100764D02*
X0038926Y0104764D01*
X0044426Y0104764D01*
D14*
X0035794Y0091903D02*
X0035311Y0091903D01*
X0034827Y0091419D01*
X0034343Y0091903D01*
X0033859Y0091903D01*
X0033376Y0091419D01*
X0033376Y0090451D01*
X0033859Y0089968D01*
X0034827Y0090935D02*
X0034827Y0091419D01*
X0035794Y0091903D02*
X0036278Y0091419D01*
X0036278Y0090451D01*
X0035794Y0089968D01*
X0035794Y0088956D02*
X0034827Y0088956D01*
X0034343Y0088472D01*
X0034343Y0087021D01*
X0033376Y0087021D02*
X0036278Y0087021D01*
X0036278Y0088472D01*
X0035794Y0088956D01*
X0036278Y0086010D02*
X0036278Y0085042D01*
X0036278Y0085526D02*
X0033859Y0085526D01*
X0033376Y0085042D01*
X0033376Y0084558D01*
X0033859Y0084075D01*
X0133769Y0084558D02*
X0133769Y0085042D01*
X0134253Y0085526D01*
X0136672Y0085526D01*
X0136672Y0085042D02*
X0136672Y0086010D01*
X0136672Y0087021D02*
X0136672Y0088472D01*
X0136188Y0088956D01*
X0135221Y0088956D01*
X0134737Y0088472D01*
X0134737Y0087021D01*
X0133769Y0087021D02*
X0136672Y0087021D01*
X0135221Y0089968D02*
X0135221Y0091903D01*
X0136672Y0091419D02*
X0135221Y0089968D01*
X0133769Y0091419D02*
X0136672Y0091419D01*
X0133769Y0084558D02*
X0134253Y0084075D01*
D15*
X0150295Y0169864D03*
X0109495Y0189064D03*
X0095095Y0189064D03*
D16*
X0144835Y0169864D03*
D17*
X0150295Y0169984D03*
X0110935Y0199384D03*
X0081535Y0189424D03*
D18*
X0081475Y0189664D03*
X0095035Y0189664D03*
X0110755Y0199144D03*
X0125035Y0204304D03*
X0150235Y0170104D03*
D19*
X0150295Y0170224D03*
X0110695Y0199024D03*
X0081535Y0197824D03*
D20*
X0150295Y0170344D03*
D21*
X0150295Y0170464D03*
X0163855Y0213904D03*
X0110455Y0198544D03*
D22*
X0110395Y0198424D03*
X0150235Y0170584D03*
D23*
X0150295Y0170704D03*
X0163975Y0178264D03*
X0110335Y0198304D03*
D24*
X0110275Y0198184D03*
X0136435Y0178384D03*
X0150235Y0170824D03*
X0164035Y0178384D03*
X0164395Y0213424D03*
X0164155Y0213784D03*
D25*
X0164335Y0213544D03*
X0164695Y0213064D03*
X0164695Y0212944D03*
X0164695Y0179464D03*
X0164695Y0179344D03*
X0164335Y0178744D03*
X0150295Y0170944D03*
D26*
X0150235Y0171064D03*
X0136195Y0178744D03*
X0136195Y0178864D03*
X0164635Y0179104D03*
X0164755Y0212704D03*
D27*
X0150295Y0171184D03*
D28*
X0150235Y0171304D03*
X0135835Y0179464D03*
D29*
X0150295Y0171424D03*
D30*
X0150295Y0171544D03*
X0164695Y0179944D03*
X0135775Y0179944D03*
X0135775Y0180064D03*
D31*
X0150295Y0171664D03*
D32*
X0150235Y0171784D03*
D33*
X0150235Y0171904D03*
D34*
X0150295Y0172024D03*
D35*
X0150295Y0172144D03*
D36*
X0155815Y0172264D03*
X0156175Y0172864D03*
X0156415Y0173344D03*
X0156655Y0173704D03*
X0157015Y0174304D03*
X0157375Y0174904D03*
X0157975Y0175864D03*
X0158215Y0176344D03*
X0158575Y0176944D03*
X0158575Y0177064D03*
X0158815Y0177544D03*
X0159055Y0180904D03*
X0158815Y0181264D03*
X0158215Y0182344D03*
X0157255Y0183904D03*
X0157015Y0184504D03*
X0156775Y0184864D03*
X0156415Y0185344D03*
X0156415Y0185464D03*
X0156175Y0186064D03*
X0155815Y0186544D03*
X0155575Y0186904D03*
X0155455Y0187264D03*
X0156055Y0206104D03*
X0156175Y0206344D03*
X0156415Y0206704D03*
X0156775Y0207304D03*
X0157255Y0208144D03*
X0157255Y0208264D03*
X0157615Y0208744D03*
X0157855Y0209104D03*
X0157975Y0209344D03*
X0158455Y0210304D03*
X0158815Y0210904D03*
X0159055Y0211264D03*
X0159055Y0214264D03*
X0158815Y0214744D03*
X0158575Y0215104D03*
X0158455Y0215344D03*
X0158215Y0215704D03*
X0157975Y0216304D03*
X0157375Y0217144D03*
X0157375Y0217264D03*
X0157015Y0217864D03*
X0156775Y0218104D03*
X0156655Y0218464D03*
X0156415Y0218944D03*
X0156175Y0219304D03*
X0156055Y0219544D03*
X0170455Y0211264D03*
X0170815Y0210664D03*
X0170815Y0210544D03*
X0171055Y0210304D03*
X0171175Y0210064D03*
X0172015Y0208504D03*
X0172255Y0208144D03*
X0172615Y0207544D03*
X0172855Y0207064D03*
X0172975Y0206944D03*
X0173455Y0206104D03*
X0173575Y0205864D03*
X0174055Y0205144D03*
X0174175Y0204664D03*
X0174175Y0204064D03*
X0174055Y0203944D03*
X0173815Y0203464D03*
X0173455Y0202864D03*
X0173455Y0202744D03*
X0172975Y0201904D03*
X0172855Y0201664D03*
X0172615Y0201304D03*
X0172375Y0200944D03*
X0171655Y0199744D03*
X0171415Y0199264D03*
X0170575Y0197704D03*
X0170575Y0194344D03*
X0171055Y0193504D03*
X0171655Y0192544D03*
X0171775Y0192304D03*
X0172015Y0191944D03*
X0172255Y0191464D03*
X0172615Y0190864D03*
X0172975Y0190264D03*
X0172975Y0190144D03*
X0173575Y0189064D03*
X0174055Y0188344D03*
X0174175Y0188104D03*
X0174055Y0187264D03*
X0174055Y0187144D03*
X0173815Y0186664D03*
X0173575Y0186304D03*
X0173455Y0186064D03*
X0173215Y0185704D03*
X0172255Y0183904D03*
X0171655Y0182944D03*
X0171415Y0182464D03*
X0171175Y0182104D03*
X0170815Y0181504D03*
X0170575Y0181144D03*
X0170455Y0180904D03*
X0145015Y0186904D03*
X0145015Y0187144D03*
X0144775Y0186664D03*
X0144775Y0186544D03*
X0144655Y0186304D03*
X0144415Y0185944D03*
X0144055Y0185344D03*
X0143575Y0184504D03*
X0143455Y0184264D03*
X0143455Y0184144D03*
X0142975Y0183544D03*
X0142615Y0182704D03*
X0142375Y0182344D03*
X0142255Y0182104D03*
X0142015Y0181744D03*
X0141655Y0181144D03*
X0141415Y0177904D03*
X0141775Y0177544D03*
X0142015Y0177064D03*
X0142375Y0176344D03*
X0142615Y0176104D03*
X0142855Y0175504D03*
X0143455Y0174544D03*
X0143575Y0174304D03*
X0144055Y0173464D03*
X0144655Y0172504D03*
X0130015Y0181144D03*
X0129655Y0181744D03*
X0129415Y0182104D03*
X0129055Y0182704D03*
X0128575Y0183544D03*
X0128455Y0183664D03*
X0128215Y0184144D03*
X0127975Y0184504D03*
X0127855Y0184864D03*
X0127615Y0185104D03*
X0126655Y0186904D03*
X0126655Y0188464D03*
X0127255Y0189544D03*
X0127255Y0189664D03*
X0127615Y0190144D03*
X0127975Y0190864D03*
X0128455Y0191704D03*
X0128575Y0191944D03*
X0114775Y0192064D03*
X0115015Y0200704D03*
X0104215Y0192304D03*
X0104215Y0192064D03*
X0100375Y0192544D03*
X0108055Y0178264D03*
X0087055Y0193144D03*
X0087055Y0193264D03*
X0087055Y0193504D03*
X0087055Y0193744D03*
X0087055Y0193864D03*
X0087055Y0194104D03*
X0087055Y0194344D03*
X0087055Y0194464D03*
X0068575Y0200464D03*
X0057415Y0182464D03*
X0044575Y0199864D03*
X0039175Y0182464D03*
D37*
X0044815Y0199144D03*
X0044815Y0199264D03*
X0049015Y0180664D03*
X0049015Y0180544D03*
X0049015Y0180304D03*
X0049015Y0180064D03*
X0058615Y0187264D03*
X0082015Y0180544D03*
X0082015Y0178144D03*
X0104815Y0196504D03*
X0118015Y0208864D03*
X0120415Y0201664D03*
X0120415Y0201544D03*
X0120415Y0201304D03*
X0120415Y0200464D03*
X0120415Y0200344D03*
X0120415Y0200104D03*
X0130015Y0198304D03*
X0132415Y0194704D03*
X0134815Y0207544D03*
X0134815Y0207664D03*
X0144415Y0193744D03*
X0144415Y0193504D03*
X0149215Y0203344D03*
X0149215Y0203464D03*
X0154015Y0193504D03*
X0145015Y0172264D03*
X0028615Y0179704D03*
D38*
X0024235Y0178024D03*
X0038875Y0180184D03*
X0057115Y0180184D03*
X0065995Y0180184D03*
X0077755Y0190624D03*
X0081595Y0187024D03*
X0082195Y0178024D03*
X0086875Y0192424D03*
X0086995Y0192784D03*
X0086995Y0193024D03*
X0086995Y0194584D03*
X0086995Y0194824D03*
X0086875Y0195184D03*
X0086755Y0195424D03*
X0100315Y0195184D03*
X0100435Y0194824D03*
X0100435Y0192784D03*
X0100315Y0192424D03*
X0104155Y0192424D03*
X0104275Y0191824D03*
X0104275Y0195424D03*
X0114715Y0191824D03*
X0114835Y0192424D03*
X0126955Y0189184D03*
X0127195Y0189424D03*
X0127675Y0190384D03*
X0127795Y0190624D03*
X0128275Y0191224D03*
X0126595Y0187024D03*
X0126715Y0186784D03*
X0126955Y0186424D03*
X0127795Y0184984D03*
X0128275Y0184024D03*
X0129355Y0182224D03*
X0129475Y0181984D03*
X0129835Y0181384D03*
X0141955Y0181624D03*
X0142315Y0182224D03*
X0142555Y0182584D03*
X0142675Y0182824D03*
X0143515Y0184384D03*
X0143635Y0184624D03*
X0144595Y0186184D03*
X0141955Y0177184D03*
X0142435Y0176224D03*
X0143635Y0174184D03*
X0144355Y0172984D03*
X0155875Y0172384D03*
X0156715Y0173824D03*
X0157075Y0174424D03*
X0157315Y0174784D03*
X0157435Y0175024D03*
X0157795Y0175624D03*
X0158995Y0181024D03*
X0158635Y0181624D03*
X0157915Y0182824D03*
X0157195Y0184024D03*
X0156715Y0184984D03*
X0156355Y0185584D03*
X0155635Y0186784D03*
X0155515Y0187024D03*
X0156355Y0206584D03*
X0156715Y0207184D03*
X0157195Y0208024D03*
X0158635Y0210424D03*
X0158995Y0214384D03*
X0158515Y0215224D03*
X0157555Y0217024D03*
X0156595Y0218584D03*
X0156475Y0218824D03*
X0156115Y0219424D03*
X0171355Y0209824D03*
X0171475Y0209584D03*
X0171955Y0208624D03*
X0172195Y0208384D03*
X0173035Y0206824D03*
X0173755Y0205624D03*
X0173875Y0205384D03*
X0173875Y0203584D03*
X0173035Y0202024D03*
X0172915Y0201784D03*
X0172555Y0201184D03*
X0172075Y0200584D03*
X0171955Y0200224D03*
X0171835Y0199984D03*
X0171595Y0199624D03*
X0171475Y0199384D03*
X0170995Y0198424D03*
X0170635Y0194224D03*
X0171115Y0193384D03*
X0171355Y0193024D03*
X0171715Y0192424D03*
X0171835Y0192184D03*
X0172195Y0191584D03*
X0172555Y0190984D03*
X0172795Y0190624D03*
X0172915Y0190384D03*
X0173035Y0190024D03*
X0173275Y0189784D03*
X0174115Y0188224D03*
X0173995Y0187024D03*
X0173635Y0186424D03*
X0173155Y0185584D03*
X0172435Y0184384D03*
X0172315Y0184024D03*
X0172195Y0183784D03*
X0171595Y0182824D03*
X0171475Y0182584D03*
X0170395Y0180784D03*
X0140395Y0207184D03*
X0125155Y0213784D03*
D39*
X0125215Y0214024D03*
X0134815Y0207184D03*
X0137215Y0204784D03*
X0128575Y0191824D03*
X0128455Y0191584D03*
X0127975Y0190984D03*
X0127375Y0189784D03*
X0126775Y0188824D03*
X0126655Y0188584D03*
X0127615Y0185224D03*
X0127975Y0184624D03*
X0128455Y0183784D03*
X0128575Y0183424D03*
X0129055Y0182824D03*
X0129175Y0182584D03*
X0129655Y0181624D03*
X0130015Y0181024D03*
X0141415Y0180784D03*
X0141415Y0178024D03*
X0141775Y0177424D03*
X0142255Y0176584D03*
X0142615Y0175984D03*
X0142855Y0175624D03*
X0143455Y0174424D03*
X0143815Y0173824D03*
X0144175Y0173224D03*
X0144655Y0172384D03*
X0142855Y0183184D03*
X0142975Y0183424D03*
X0143815Y0184984D03*
X0144415Y0185824D03*
X0144655Y0186424D03*
X0145015Y0187024D03*
X0156655Y0173584D03*
X0156415Y0173224D03*
X0156055Y0172624D03*
X0157615Y0175384D03*
X0157975Y0175984D03*
X0158455Y0176824D03*
X0158815Y0177424D03*
X0159175Y0178024D03*
X0159055Y0180784D03*
X0158455Y0181984D03*
X0157375Y0183784D03*
X0157015Y0184384D03*
X0156055Y0205984D03*
X0156175Y0206224D03*
X0156415Y0206824D03*
X0157015Y0207784D03*
X0157375Y0208384D03*
X0157615Y0208624D03*
X0157855Y0209224D03*
X0158215Y0209824D03*
X0158455Y0210184D03*
X0159055Y0211384D03*
X0158815Y0214624D03*
X0157615Y0216784D03*
X0157255Y0217384D03*
X0157015Y0217984D03*
X0156775Y0218224D03*
X0170455Y0211384D03*
X0170575Y0211024D03*
X0171175Y0210184D03*
X0171655Y0209224D03*
X0171775Y0208984D03*
X0172375Y0208024D03*
X0172855Y0207184D03*
X0173455Y0205984D03*
X0174055Y0205024D03*
X0174175Y0204184D03*
X0174055Y0203824D03*
X0173575Y0202984D03*
X0173455Y0202624D03*
X0172375Y0200824D03*
X0170815Y0198184D03*
X0170455Y0197584D03*
X0170455Y0194584D03*
X0170815Y0193984D03*
X0172015Y0191824D03*
X0172375Y0191224D03*
X0173455Y0189424D03*
X0173575Y0189184D03*
X0174175Y0187984D03*
X0174175Y0187384D03*
X0173815Y0186784D03*
X0173455Y0186184D03*
X0172975Y0185224D03*
X0172855Y0184984D03*
X0172615Y0184624D03*
X0171055Y0181984D03*
X0170815Y0181624D03*
X0170575Y0181024D03*
X0114775Y0192184D03*
X0115015Y0200824D03*
X0104215Y0195184D03*
X0104215Y0192184D03*
X0091255Y0190624D03*
X0087055Y0193384D03*
X0087055Y0193624D03*
X0087055Y0193984D03*
X0087055Y0194224D03*
X0035575Y0187024D03*
D40*
X0039355Y0180544D03*
X0038995Y0180304D03*
X0039115Y0178264D03*
X0044635Y0199744D03*
X0035635Y0200464D03*
X0025675Y0203464D03*
X0024235Y0182704D03*
X0057235Y0180304D03*
X0057595Y0180544D03*
X0057355Y0178264D03*
X0066235Y0178264D03*
X0066115Y0180304D03*
X0066475Y0180544D03*
X0076795Y0182464D03*
X0076795Y0178264D03*
X0082195Y0182704D03*
X0086755Y0182464D03*
X0086755Y0178264D03*
X0086875Y0192544D03*
X0086995Y0192664D03*
X0086995Y0192904D03*
X0086995Y0194704D03*
X0086875Y0195064D03*
X0100315Y0195064D03*
X0100435Y0194944D03*
X0100315Y0195304D03*
X0100435Y0192664D03*
X0100315Y0192304D03*
X0104275Y0191944D03*
X0104395Y0191704D03*
X0104515Y0191464D03*
X0104635Y0191104D03*
X0104155Y0195064D03*
X0104275Y0195304D03*
X0114595Y0191704D03*
X0114715Y0191944D03*
X0114835Y0192304D03*
X0117955Y0209104D03*
X0125155Y0213904D03*
X0127915Y0190744D03*
X0127795Y0190504D03*
X0127675Y0190264D03*
X0127435Y0189904D03*
X0126715Y0188704D03*
X0127075Y0186304D03*
X0127915Y0184744D03*
X0128155Y0184264D03*
X0128395Y0183904D03*
X0128875Y0183064D03*
X0129235Y0182464D03*
X0129835Y0181504D03*
X0130315Y0180664D03*
X0141355Y0180664D03*
X0142075Y0181864D03*
X0142435Y0182464D03*
X0142915Y0183304D03*
X0143275Y0183904D03*
X0143755Y0184864D03*
X0144475Y0186064D03*
X0141715Y0177664D03*
X0142075Y0176944D03*
X0142195Y0176704D03*
X0142315Y0176464D03*
X0143275Y0174904D03*
X0143755Y0173944D03*
X0144355Y0172864D03*
X0155995Y0172504D03*
X0156115Y0172744D03*
X0156835Y0173944D03*
X0157195Y0174664D03*
X0157675Y0175504D03*
X0157795Y0175744D03*
X0158035Y0176104D03*
X0158395Y0176704D03*
X0159115Y0177904D03*
X0159235Y0180664D03*
X0158515Y0181744D03*
X0158515Y0181864D03*
X0158155Y0182464D03*
X0158035Y0182704D03*
X0157915Y0182944D03*
X0157795Y0183064D03*
X0157435Y0183544D03*
X0157435Y0183664D03*
X0157075Y0184264D03*
X0155995Y0186304D03*
X0155755Y0186664D03*
X0155515Y0187144D03*
X0156955Y0207664D03*
X0157075Y0207904D03*
X0157435Y0208504D03*
X0157675Y0208864D03*
X0158035Y0209464D03*
X0158155Y0209704D03*
X0158635Y0210544D03*
X0159115Y0211504D03*
X0158755Y0214864D03*
X0158395Y0215464D03*
X0157555Y0216904D03*
X0157195Y0217504D03*
X0157075Y0217744D03*
X0156715Y0218344D03*
X0155875Y0219904D03*
X0170515Y0211144D03*
X0171235Y0209944D03*
X0171355Y0209704D03*
X0171475Y0209464D03*
X0171715Y0209104D03*
X0172195Y0208264D03*
X0172435Y0207904D03*
X0172555Y0207664D03*
X0173275Y0206464D03*
X0173635Y0205744D03*
X0173755Y0205504D03*
X0173995Y0203704D03*
X0173755Y0203344D03*
X0173155Y0202264D03*
X0173035Y0202144D03*
X0172435Y0201064D03*
X0172075Y0200464D03*
X0171835Y0200104D03*
X0171715Y0199864D03*
X0171235Y0198904D03*
X0170995Y0198544D03*
X0170875Y0198304D03*
X0170395Y0197464D03*
X0170515Y0194464D03*
X0170755Y0194104D03*
X0170875Y0193864D03*
X0171235Y0193264D03*
X0171235Y0193144D03*
X0171355Y0192904D03*
X0172075Y0191704D03*
X0172675Y0190744D03*
X0172795Y0190504D03*
X0173155Y0189904D03*
X0173275Y0189664D03*
X0173395Y0185944D03*
X0173155Y0185464D03*
X0173035Y0185344D03*
X0172915Y0185104D03*
X0172795Y0184864D03*
X0172555Y0184504D03*
X0172435Y0184264D03*
X0172315Y0184144D03*
X0172075Y0183664D03*
X0172075Y0183544D03*
X0171715Y0183064D03*
X0140395Y0207304D03*
X0058915Y0203704D03*
D41*
X0031495Y0196384D03*
X0025735Y0203584D03*
X0100495Y0194584D03*
X0100495Y0194224D03*
X0100495Y0193384D03*
X0100495Y0193024D03*
X0104095Y0192784D03*
X0104095Y0194824D03*
X0114895Y0193024D03*
X0114895Y0192784D03*
X0126535Y0188224D03*
X0127495Y0190024D03*
X0128695Y0192184D03*
X0127135Y0186184D03*
X0128095Y0184384D03*
X0143095Y0183784D03*
X0143335Y0184024D03*
X0144295Y0185584D03*
X0144895Y0186784D03*
X0142135Y0176824D03*
X0143095Y0175024D03*
X0143335Y0174784D03*
X0143935Y0173584D03*
X0144535Y0172624D03*
X0156295Y0172984D03*
X0156895Y0174184D03*
X0158095Y0176224D03*
X0158335Y0176584D03*
X0158695Y0177184D03*
X0158335Y0182224D03*
X0158095Y0182584D03*
X0157735Y0183184D03*
X0156895Y0184624D03*
X0156535Y0185224D03*
X0155935Y0186424D03*
X0155935Y0205624D03*
X0156895Y0207424D03*
X0157735Y0208984D03*
X0158095Y0209584D03*
X0158935Y0211024D03*
X0158695Y0214984D03*
X0158335Y0215584D03*
X0158095Y0215824D03*
X0157135Y0217624D03*
X0155935Y0219784D03*
X0170695Y0210784D03*
X0170935Y0210424D03*
X0172495Y0207784D03*
X0172735Y0207424D03*
X0173095Y0206584D03*
X0173335Y0206224D03*
X0173695Y0203224D03*
X0173335Y0202384D03*
X0172735Y0201424D03*
X0171295Y0199024D03*
X0170935Y0193624D03*
X0173695Y0188824D03*
X0173935Y0188584D03*
X0173335Y0185824D03*
X0171895Y0183424D03*
X0171295Y0182224D03*
X0170695Y0181384D03*
D42*
X0170695Y0181264D03*
X0170935Y0181744D03*
X0171295Y0182344D03*
X0171535Y0182704D03*
X0171895Y0183304D03*
X0172735Y0184744D03*
X0173695Y0186544D03*
X0173935Y0186904D03*
X0172495Y0191104D03*
X0171895Y0192064D03*
X0171535Y0192664D03*
X0170935Y0193744D03*
X0170335Y0194704D03*
X0170335Y0197344D03*
X0170695Y0197944D03*
X0171295Y0199144D03*
X0171535Y0199504D03*
X0172135Y0200704D03*
X0172735Y0201544D03*
X0173335Y0202504D03*
X0173695Y0203104D03*
X0173935Y0205264D03*
X0173335Y0206344D03*
X0173095Y0206704D03*
X0172735Y0207304D03*
X0171895Y0208744D03*
X0171895Y0208864D03*
X0171535Y0209344D03*
X0170695Y0210904D03*
X0170335Y0211504D03*
X0158935Y0211144D03*
X0158695Y0210664D03*
X0158335Y0209944D03*
X0156895Y0207544D03*
X0156535Y0206944D03*
X0156295Y0206464D03*
X0155935Y0205864D03*
X0155935Y0205744D03*
X0158935Y0214504D03*
X0158095Y0215944D03*
X0158095Y0216064D03*
X0157735Y0216544D03*
X0157735Y0216664D03*
X0156535Y0218704D03*
X0156295Y0219064D03*
X0155935Y0219664D03*
X0156295Y0185704D03*
X0156535Y0185104D03*
X0156895Y0184744D03*
X0157135Y0184144D03*
X0157735Y0183304D03*
X0158335Y0182104D03*
X0158695Y0181504D03*
X0158935Y0181144D03*
X0158935Y0177664D03*
X0158695Y0177304D03*
X0158335Y0176464D03*
X0157495Y0175264D03*
X0157495Y0175144D03*
X0157135Y0174544D03*
X0156895Y0174064D03*
X0156535Y0173464D03*
X0156295Y0173104D03*
X0144535Y0172744D03*
X0143935Y0173704D03*
X0143695Y0174064D03*
X0143335Y0174664D03*
X0143095Y0175144D03*
X0141895Y0177304D03*
X0141535Y0180904D03*
X0141895Y0181504D03*
X0142735Y0182944D03*
X0142735Y0183064D03*
X0143095Y0183664D03*
X0143695Y0184744D03*
X0143935Y0185104D03*
X0144295Y0185704D03*
X0129895Y0181264D03*
X0129295Y0182344D03*
X0128935Y0182944D03*
X0127495Y0185464D03*
X0127135Y0186064D03*
X0126895Y0186544D03*
X0126535Y0187144D03*
X0126535Y0187264D03*
X0126535Y0188344D03*
X0126895Y0188944D03*
X0126895Y0189064D03*
X0127135Y0189304D03*
X0128335Y0191344D03*
X0128335Y0191464D03*
X0128695Y0192064D03*
X0114895Y0192544D03*
X0114895Y0192664D03*
X0114895Y0192904D03*
X0104095Y0192904D03*
X0104095Y0192664D03*
X0104095Y0192544D03*
X0104095Y0194704D03*
X0104095Y0194944D03*
X0100495Y0194704D03*
X0100495Y0194464D03*
X0100495Y0194344D03*
X0100495Y0194104D03*
X0100495Y0193504D03*
X0100495Y0193264D03*
X0100495Y0193144D03*
X0100495Y0192904D03*
X0086935Y0194944D03*
X0066295Y0182464D03*
D43*
X0065755Y0180064D03*
X0066235Y0178144D03*
X0057355Y0178144D03*
X0056875Y0180064D03*
X0038635Y0180064D03*
X0025795Y0203704D03*
X0100555Y0193864D03*
X0100555Y0193744D03*
X0104035Y0193744D03*
X0104035Y0193864D03*
X0104035Y0193504D03*
X0104035Y0193264D03*
X0104035Y0193144D03*
X0104035Y0194344D03*
X0104035Y0194464D03*
X0114955Y0193144D03*
X0115075Y0193504D03*
X0115075Y0193744D03*
X0115075Y0193864D03*
X0115075Y0194104D03*
X0115075Y0194344D03*
X0115075Y0194464D03*
X0115075Y0194704D03*
X0115075Y0194944D03*
X0115075Y0195064D03*
X0115075Y0195304D03*
X0115075Y0195544D03*
X0115075Y0195664D03*
X0115075Y0195904D03*
X0115075Y0196144D03*
X0115075Y0196264D03*
X0115075Y0196504D03*
X0115075Y0196744D03*
X0115075Y0196864D03*
X0115075Y0197104D03*
X0115075Y0197344D03*
X0115075Y0197464D03*
X0115075Y0197704D03*
X0115075Y0200944D03*
X0115075Y0201064D03*
X0125155Y0214144D03*
X0128755Y0192304D03*
X0128035Y0191104D03*
X0126355Y0188104D03*
X0126355Y0187864D03*
X0126355Y0187744D03*
X0126355Y0187504D03*
X0126835Y0186664D03*
X0127435Y0185704D03*
X0127555Y0185344D03*
X0128755Y0183304D03*
X0129595Y0181864D03*
X0130075Y0180904D03*
X0141835Y0181264D03*
X0142795Y0175864D03*
X0142795Y0175744D03*
X0144235Y0173104D03*
X0144235Y0185464D03*
X0145075Y0187264D03*
X0156235Y0185944D03*
X0155875Y0205504D03*
X0156595Y0207064D03*
X0158395Y0210064D03*
X0170755Y0198064D03*
X0174235Y0204304D03*
X0174235Y0204544D03*
X0173395Y0189544D03*
X0173635Y0188944D03*
X0173755Y0188704D03*
X0173995Y0188464D03*
X0174235Y0187864D03*
X0174235Y0187744D03*
X0174235Y0187504D03*
X0170995Y0181864D03*
X0140395Y0207064D03*
D44*
X0127315Y0185944D03*
X0144115Y0173344D03*
X0159115Y0214144D03*
X0172315Y0191344D03*
X0173515Y0189304D03*
X0174115Y0204904D03*
X0039115Y0178144D03*
D45*
X0039535Y0180664D03*
X0057775Y0180664D03*
X0066655Y0180664D03*
X0076735Y0178144D03*
X0077695Y0190744D03*
X0086695Y0178144D03*
X0091255Y0190744D03*
X0103975Y0194104D03*
X0108055Y0178144D03*
X0115135Y0201304D03*
X0117895Y0209344D03*
X0142975Y0175264D03*
X0145255Y0187504D03*
X0155335Y0187504D03*
D46*
X0156115Y0186184D03*
X0142915Y0175384D03*
X0127315Y0185824D03*
X0157915Y0216424D03*
X0174115Y0204784D03*
D47*
X0174235Y0204424D03*
X0170635Y0197824D03*
X0171475Y0192784D03*
X0174235Y0187624D03*
X0171835Y0183184D03*
X0158995Y0177784D03*
X0158755Y0181384D03*
X0157675Y0183424D03*
X0156235Y0185824D03*
X0155395Y0187384D03*
X0156475Y0202384D03*
X0158755Y0210784D03*
X0158035Y0216184D03*
X0156235Y0219184D03*
X0146875Y0207184D03*
X0145195Y0187384D03*
X0143995Y0185224D03*
X0142195Y0181984D03*
X0141835Y0181384D03*
X0141595Y0181024D03*
X0130075Y0180784D03*
X0128755Y0183184D03*
X0127435Y0185584D03*
X0126355Y0187384D03*
X0126355Y0187624D03*
X0126355Y0187984D03*
X0128755Y0192424D03*
X0117955Y0209224D03*
X0115075Y0197824D03*
X0115075Y0197584D03*
X0115075Y0197224D03*
X0115075Y0196984D03*
X0115075Y0196624D03*
X0115075Y0196384D03*
X0115075Y0196024D03*
X0115075Y0195784D03*
X0115075Y0195424D03*
X0115075Y0195184D03*
X0115075Y0194824D03*
X0115075Y0194584D03*
X0115075Y0194224D03*
X0115075Y0193984D03*
X0115075Y0193624D03*
X0115075Y0193384D03*
X0104035Y0193384D03*
X0104035Y0193624D03*
X0104035Y0193024D03*
X0104035Y0194584D03*
X0100555Y0193984D03*
X0100555Y0193624D03*
X0059035Y0203824D03*
D48*
X0044455Y0199984D03*
X0025855Y0203824D03*
X0076735Y0182584D03*
X0086695Y0182584D03*
X0103975Y0193984D03*
X0103975Y0194224D03*
X0115135Y0201184D03*
X0141535Y0177784D03*
X0145255Y0187624D03*
X0151735Y0189784D03*
X0155335Y0187624D03*
D49*
X0145255Y0188344D03*
X0128815Y0193264D03*
X0115615Y0203104D03*
X0115615Y0203344D03*
X0111655Y0182464D03*
X0111655Y0182344D03*
X0111655Y0182104D03*
X0114655Y0182104D03*
X0114655Y0181864D03*
X0113215Y0179344D03*
X0108055Y0177904D03*
X0087775Y0182104D03*
X0077815Y0182104D03*
X0066175Y0177904D03*
X0045415Y0181864D03*
X0045415Y0182104D03*
X0042415Y0182104D03*
X0042415Y0182344D03*
X0042415Y0182464D03*
X0043975Y0179344D03*
X0039055Y0177904D03*
X0028615Y0182104D03*
D50*
X0028555Y0182344D03*
X0042355Y0182704D03*
X0045475Y0182704D03*
X0045475Y0182464D03*
X0045475Y0182344D03*
X0076795Y0177904D03*
X0085675Y0182104D03*
X0086755Y0177904D03*
X0111595Y0182704D03*
X0113155Y0179104D03*
X0115675Y0203464D03*
X0117955Y0209704D03*
X0155635Y0204544D03*
D51*
X0155095Y0188464D03*
X0057295Y0177904D03*
D52*
X0067615Y0181624D03*
X0115015Y0181024D03*
X0115015Y0180784D03*
X0115015Y0180424D03*
X0115015Y0180184D03*
X0115015Y0179824D03*
X0115015Y0179584D03*
X0115015Y0179224D03*
X0115015Y0178984D03*
X0115015Y0178624D03*
X0115015Y0178384D03*
X0115015Y0178024D03*
D53*
X0113155Y0178024D03*
X0111355Y0178024D03*
X0111355Y0178384D03*
X0111355Y0178624D03*
X0111355Y0178984D03*
X0111355Y0179224D03*
X0111355Y0179584D03*
X0111355Y0179824D03*
X0111355Y0180184D03*
X0111355Y0180424D03*
X0111355Y0180784D03*
X0111355Y0181024D03*
X0106675Y0181024D03*
X0106675Y0180784D03*
X0106675Y0180424D03*
X0106675Y0180184D03*
X0106675Y0179824D03*
X0106675Y0179584D03*
X0106675Y0179224D03*
X0106675Y0181384D03*
X0106675Y0181624D03*
X0106675Y0181984D03*
X0106675Y0182224D03*
X0106675Y0182584D03*
X0115915Y0204424D03*
X0093115Y0181984D03*
X0093115Y0181624D03*
X0093115Y0181384D03*
X0093115Y0181024D03*
X0093115Y0180784D03*
X0093115Y0179824D03*
X0093115Y0179584D03*
X0093115Y0179224D03*
X0093115Y0178984D03*
X0093115Y0178624D03*
X0093115Y0178384D03*
X0093115Y0178024D03*
X0090355Y0178384D03*
X0090355Y0178624D03*
X0090355Y0178984D03*
X0090355Y0179224D03*
X0088315Y0179224D03*
X0088555Y0180184D03*
X0088555Y0180424D03*
X0085075Y0179584D03*
X0084955Y0179824D03*
X0084955Y0180184D03*
X0084955Y0180424D03*
X0084955Y0180784D03*
X0083155Y0181024D03*
X0083155Y0181384D03*
X0083155Y0181624D03*
X0083155Y0181984D03*
X0083155Y0179824D03*
X0083155Y0179584D03*
X0083155Y0179224D03*
X0083155Y0178984D03*
X0080515Y0181024D03*
X0080275Y0179584D03*
X0080275Y0179224D03*
X0078475Y0179584D03*
X0078475Y0179824D03*
X0078355Y0179224D03*
X0078475Y0181024D03*
X0075115Y0179584D03*
X0067675Y0179224D03*
X0067675Y0181384D03*
X0064915Y0181384D03*
X0064915Y0181624D03*
X0061075Y0181024D03*
X0055915Y0179224D03*
X0055915Y0178984D03*
X0050155Y0178984D03*
X0050155Y0179224D03*
X0050155Y0179584D03*
X0050155Y0179824D03*
X0050155Y0181024D03*
X0050155Y0181384D03*
X0050155Y0181624D03*
X0043915Y0178024D03*
X0042115Y0178024D03*
X0042115Y0178384D03*
X0042115Y0178624D03*
X0042115Y0178984D03*
X0042115Y0179224D03*
X0042115Y0179584D03*
X0042115Y0179824D03*
X0042115Y0180184D03*
X0042115Y0180424D03*
X0042115Y0180784D03*
X0042115Y0181024D03*
X0040555Y0181384D03*
X0040555Y0179224D03*
X0037675Y0179224D03*
X0037675Y0178984D03*
X0034075Y0178984D03*
X0034075Y0179224D03*
X0034075Y0179584D03*
X0034075Y0179824D03*
X0034075Y0180184D03*
X0034075Y0180424D03*
X0034075Y0180784D03*
X0034075Y0181024D03*
X0034075Y0181384D03*
X0034075Y0181624D03*
X0034075Y0181984D03*
X0034075Y0182224D03*
X0034075Y0182584D03*
X0029515Y0180424D03*
X0029275Y0181024D03*
X0027715Y0180424D03*
X0030115Y0178624D03*
X0022315Y0179224D03*
X0022315Y0179584D03*
X0022555Y0181024D03*
D54*
X0068575Y0187024D03*
X0081655Y0200584D03*
X0091255Y0190984D03*
X0095095Y0200584D03*
X0108055Y0178024D03*
X0115375Y0202384D03*
X0128935Y0193024D03*
D55*
X0129835Y0201784D03*
X0129835Y0202024D03*
X0130795Y0214984D03*
X0113995Y0190624D03*
X0104995Y0190624D03*
X0099835Y0196384D03*
X0103435Y0178624D03*
X0103435Y0178384D03*
X0103435Y0178024D03*
X0076795Y0182224D03*
X0072595Y0191584D03*
X0072595Y0191824D03*
X0072835Y0193384D03*
X0072835Y0193624D03*
X0072835Y0193984D03*
X0072835Y0194224D03*
X0072595Y0195784D03*
X0052795Y0195784D03*
X0052795Y0196024D03*
X0052795Y0196384D03*
X0052795Y0196624D03*
X0052795Y0196984D03*
X0052795Y0197224D03*
X0052795Y0197584D03*
X0052795Y0197824D03*
X0052795Y0198184D03*
X0052795Y0198424D03*
X0052795Y0198784D03*
X0052795Y0199024D03*
X0052795Y0199384D03*
X0052795Y0199624D03*
X0052795Y0199984D03*
X0052795Y0195424D03*
X0052795Y0195184D03*
X0052795Y0194824D03*
X0052795Y0194584D03*
X0052795Y0194224D03*
X0052795Y0193984D03*
X0052795Y0193624D03*
X0052795Y0193384D03*
X0052795Y0193024D03*
X0052795Y0192784D03*
X0052795Y0192424D03*
X0052795Y0192184D03*
X0052795Y0191824D03*
X0044995Y0190984D03*
X0039235Y0196624D03*
X0031435Y0190984D03*
X0031435Y0190624D03*
X0025435Y0190624D03*
X0025435Y0190384D03*
X0025435Y0190984D03*
X0025435Y0191224D03*
X0025435Y0191584D03*
X0025435Y0191824D03*
X0025435Y0192184D03*
X0025435Y0192424D03*
X0025435Y0192784D03*
X0025435Y0193024D03*
X0025435Y0193384D03*
X0025435Y0193624D03*
X0025435Y0193984D03*
X0025435Y0194224D03*
X0025435Y0194584D03*
X0025435Y0194824D03*
X0025435Y0195184D03*
X0025435Y0195424D03*
X0025435Y0195784D03*
X0025435Y0196024D03*
X0025435Y0196384D03*
X0025435Y0196624D03*
X0025435Y0196984D03*
X0025435Y0197224D03*
X0025435Y0197584D03*
X0025435Y0200584D03*
X0025435Y0200824D03*
X0025435Y0201184D03*
X0025435Y0201424D03*
X0025435Y0201784D03*
X0025435Y0202024D03*
X0025435Y0202384D03*
X0025435Y0202624D03*
X0149395Y0193384D03*
X0154195Y0198784D03*
X0158995Y0198184D03*
D56*
X0155695Y0204424D03*
X0115855Y0204184D03*
X0113215Y0178384D03*
X0109375Y0178984D03*
X0106735Y0178984D03*
X0100135Y0178984D03*
X0100135Y0179224D03*
X0100135Y0179584D03*
X0100135Y0179824D03*
X0100135Y0180184D03*
X0100135Y0180424D03*
X0100135Y0180784D03*
X0100135Y0181024D03*
X0100135Y0181384D03*
X0100135Y0181624D03*
X0100135Y0181984D03*
X0100135Y0178624D03*
X0100135Y0178384D03*
X0100135Y0178024D03*
X0090415Y0179584D03*
X0090415Y0180784D03*
X0090295Y0181624D03*
X0088375Y0181384D03*
X0088255Y0181624D03*
X0088495Y0180784D03*
X0088135Y0178984D03*
X0085255Y0178984D03*
X0085135Y0179224D03*
X0085015Y0181024D03*
X0085135Y0181384D03*
X0085255Y0181624D03*
X0080335Y0179824D03*
X0080335Y0178984D03*
X0078175Y0178984D03*
X0078535Y0180784D03*
X0078415Y0181384D03*
X0078295Y0181624D03*
X0075295Y0181624D03*
X0075175Y0181384D03*
X0075055Y0181024D03*
X0075175Y0179224D03*
X0075295Y0178984D03*
X0072295Y0178984D03*
X0072295Y0179224D03*
X0072295Y0179584D03*
X0072295Y0179824D03*
X0072295Y0180184D03*
X0072295Y0180424D03*
X0072295Y0180784D03*
X0072295Y0181024D03*
X0072295Y0181384D03*
X0072295Y0181624D03*
X0072295Y0181984D03*
X0072295Y0178624D03*
X0072295Y0178384D03*
X0072295Y0178024D03*
X0067615Y0178984D03*
X0067495Y0181984D03*
X0064855Y0179584D03*
X0062455Y0181024D03*
X0062575Y0181384D03*
X0062935Y0181984D03*
X0063055Y0182224D03*
X0060895Y0181384D03*
X0060775Y0181624D03*
X0060655Y0181984D03*
X0060535Y0182224D03*
X0060295Y0182584D03*
X0058615Y0181984D03*
X0058735Y0178984D03*
X0055975Y0179584D03*
X0053215Y0179584D03*
X0053215Y0179824D03*
X0053215Y0180184D03*
X0053215Y0180424D03*
X0053215Y0180784D03*
X0053215Y0181024D03*
X0053215Y0181384D03*
X0053215Y0181624D03*
X0053215Y0181984D03*
X0053215Y0179224D03*
X0053215Y0178984D03*
X0053215Y0178624D03*
X0053215Y0178384D03*
X0053215Y0178024D03*
X0061735Y0179824D03*
X0043975Y0178384D03*
X0040495Y0178984D03*
X0040375Y0181984D03*
X0037735Y0179584D03*
X0030295Y0178024D03*
X0030175Y0178384D03*
X0029695Y0179824D03*
X0029575Y0180184D03*
X0027895Y0181024D03*
X0027535Y0179824D03*
X0027055Y0178624D03*
X0027055Y0178384D03*
X0026935Y0178024D03*
X0022375Y0178984D03*
X0022375Y0179824D03*
D57*
X0022435Y0181384D03*
X0022435Y0181624D03*
X0025195Y0181624D03*
X0025195Y0181384D03*
X0025195Y0181024D03*
X0025195Y0181984D03*
X0025195Y0179824D03*
X0025195Y0179584D03*
X0025195Y0179224D03*
X0025195Y0178984D03*
X0027235Y0178984D03*
X0027595Y0180184D03*
X0027835Y0180784D03*
X0029395Y0180784D03*
X0029995Y0178984D03*
X0037795Y0181384D03*
X0037795Y0181624D03*
X0056035Y0181624D03*
X0056035Y0181384D03*
X0058795Y0181384D03*
X0058795Y0179224D03*
X0061795Y0179224D03*
X0061795Y0178984D03*
X0061795Y0178624D03*
X0061795Y0178384D03*
X0061795Y0178024D03*
X0061795Y0179584D03*
X0064795Y0179224D03*
X0064795Y0178984D03*
X0074995Y0179824D03*
X0074995Y0180184D03*
X0074995Y0180424D03*
X0074995Y0180784D03*
X0078595Y0180424D03*
X0078595Y0180184D03*
X0080395Y0181384D03*
X0080395Y0181624D03*
X0088435Y0181024D03*
X0088435Y0179824D03*
X0088435Y0179584D03*
X0090235Y0181024D03*
X0090235Y0181384D03*
X0097195Y0181384D03*
X0097195Y0181624D03*
X0097195Y0181984D03*
X0097195Y0182224D03*
X0097195Y0182584D03*
X0097195Y0181024D03*
X0097195Y0180784D03*
X0097195Y0180424D03*
X0097195Y0180184D03*
X0097195Y0179824D03*
X0097195Y0179584D03*
X0097195Y0179224D03*
X0097195Y0178984D03*
X0097195Y0178624D03*
X0097195Y0178384D03*
X0097195Y0178024D03*
X0104635Y0178984D03*
X0104635Y0179224D03*
X0104635Y0179584D03*
X0104635Y0179824D03*
X0104635Y0180184D03*
X0104635Y0180424D03*
X0104635Y0180784D03*
X0104635Y0181024D03*
X0104635Y0181384D03*
X0104635Y0181624D03*
X0104635Y0181984D03*
X0104635Y0182224D03*
X0104635Y0182584D03*
X0109435Y0182584D03*
X0109435Y0182224D03*
X0109435Y0181984D03*
X0109435Y0181624D03*
X0109435Y0181384D03*
X0109435Y0181024D03*
X0109435Y0180784D03*
X0109435Y0180424D03*
X0109435Y0180184D03*
X0109435Y0179824D03*
X0109435Y0179584D03*
X0109435Y0179224D03*
D58*
X0115795Y0203824D03*
X0140395Y0206584D03*
X0090235Y0178024D03*
X0077995Y0181984D03*
X0063235Y0182584D03*
X0038035Y0181984D03*
D59*
X0039115Y0178024D03*
X0057355Y0178024D03*
X0058075Y0180784D03*
X0066955Y0180784D03*
X0086755Y0178024D03*
X0115315Y0202024D03*
X0128875Y0192784D03*
X0145315Y0187984D03*
X0155755Y0205024D03*
D60*
X0140395Y0206824D03*
X0124795Y0194584D03*
X0076795Y0178024D03*
X0066235Y0178024D03*
X0061795Y0180784D03*
X0039835Y0180784D03*
D61*
X0039235Y0190384D03*
X0045235Y0190384D03*
X0048835Y0178624D03*
X0048835Y0178384D03*
X0048835Y0178024D03*
X0032035Y0197224D03*
X0081835Y0182224D03*
X0091795Y0182224D03*
X0131635Y0213424D03*
X0132835Y0211384D03*
X0130195Y0215824D03*
X0130195Y0216184D03*
X0134635Y0218224D03*
X0140635Y0208384D03*
X0158635Y0199024D03*
D62*
X0091255Y0191584D03*
X0077695Y0191584D03*
X0058735Y0181624D03*
X0045775Y0181024D03*
X0045775Y0180784D03*
X0045775Y0180424D03*
X0045775Y0180184D03*
X0045775Y0179824D03*
X0045775Y0179584D03*
X0045775Y0179224D03*
X0045775Y0178984D03*
X0045775Y0178624D03*
X0045775Y0178384D03*
X0045775Y0178024D03*
X0040495Y0181624D03*
D63*
X0039475Y0190984D03*
X0039475Y0191224D03*
X0039115Y0197224D03*
X0044875Y0197224D03*
X0044875Y0196984D03*
X0044875Y0196624D03*
X0044875Y0196384D03*
X0044875Y0196024D03*
X0044875Y0195784D03*
X0044875Y0195424D03*
X0044875Y0195184D03*
X0044875Y0194824D03*
X0044875Y0194584D03*
X0044875Y0194224D03*
X0044875Y0193984D03*
X0044875Y0193624D03*
X0044875Y0193384D03*
X0044875Y0193024D03*
X0044875Y0192784D03*
X0044875Y0192424D03*
X0044875Y0192184D03*
X0044875Y0191824D03*
X0044875Y0191584D03*
X0044875Y0197584D03*
X0044875Y0197824D03*
X0044875Y0198184D03*
X0044875Y0198424D03*
X0044875Y0198784D03*
X0052675Y0191584D03*
X0052675Y0191224D03*
X0058675Y0202624D03*
X0058675Y0202984D03*
X0072715Y0195424D03*
X0072715Y0195184D03*
X0072715Y0192424D03*
X0072715Y0192184D03*
X0077875Y0190384D03*
X0086275Y0196384D03*
X0091315Y0190384D03*
X0086755Y0182224D03*
X0091915Y0180184D03*
X0104875Y0196624D03*
X0120475Y0199984D03*
X0120475Y0201784D03*
X0125155Y0207184D03*
X0130075Y0198184D03*
X0140515Y0207784D03*
X0140515Y0208024D03*
X0149155Y0203584D03*
X0144355Y0193384D03*
X0153955Y0193384D03*
X0128755Y0220024D03*
X0032875Y0178624D03*
X0032875Y0178384D03*
X0032875Y0178024D03*
X0028555Y0179584D03*
X0031915Y0196984D03*
D64*
X0028615Y0181864D03*
X0028615Y0181744D03*
X0091255Y0191104D03*
X0095215Y0180064D03*
X0095215Y0179944D03*
X0095215Y0179704D03*
X0095215Y0179464D03*
X0111775Y0181144D03*
X0111775Y0181264D03*
X0134815Y0206704D03*
X0168775Y0178144D03*
D65*
X0159895Y0178144D03*
X0118495Y0207904D03*
X0105895Y0197704D03*
X0098935Y0197344D03*
X0095695Y0193144D03*
X0095935Y0192904D03*
X0096295Y0192544D03*
X0096535Y0192304D03*
X0095335Y0193504D03*
X0095095Y0193744D03*
X0094735Y0194104D03*
X0094495Y0194344D03*
X0093895Y0194944D03*
X0093295Y0195544D03*
X0092935Y0195904D03*
X0091495Y0197344D03*
X0082735Y0192664D03*
X0082495Y0192904D03*
X0081295Y0194104D03*
X0080335Y0195064D03*
X0071695Y0197464D03*
X0071695Y0190144D03*
X0065335Y0197464D03*
X0051895Y0189904D03*
X0038935Y0189904D03*
D66*
X0045295Y0190264D03*
X0052255Y0190264D03*
X0064975Y0190264D03*
X0064975Y0197104D03*
X0072055Y0197104D03*
X0072055Y0190504D03*
X0085735Y0197104D03*
X0085975Y0196864D03*
X0091735Y0182104D03*
X0105535Y0190144D03*
X0120775Y0202744D03*
X0129535Y0202744D03*
X0132775Y0211504D03*
X0132655Y0211744D03*
X0132535Y0211864D03*
X0132295Y0212344D03*
X0132295Y0212464D03*
X0132055Y0212704D03*
X0131935Y0212944D03*
X0131575Y0213544D03*
X0130975Y0214744D03*
X0130375Y0215704D03*
X0129895Y0216544D03*
X0129775Y0216664D03*
X0129655Y0216904D03*
X0128935Y0220264D03*
X0133495Y0220144D03*
X0133855Y0219664D03*
X0133855Y0219544D03*
X0133975Y0219304D03*
X0134095Y0219064D03*
X0134335Y0218704D03*
X0134695Y0218104D03*
X0134935Y0217744D03*
X0135175Y0217264D03*
X0137575Y0212704D03*
X0137335Y0212464D03*
X0137335Y0212344D03*
X0136975Y0211744D03*
X0136855Y0211504D03*
X0141295Y0219544D03*
X0143095Y0212944D03*
X0141775Y0210544D03*
X0144775Y0203944D03*
X0148975Y0203944D03*
X0154375Y0199144D03*
X0158575Y0199144D03*
X0159175Y0197944D03*
X0169735Y0197104D03*
X0145975Y0217864D03*
X0140935Y0178144D03*
D67*
X0131035Y0178144D03*
X0116275Y0205864D03*
D68*
X0115015Y0181264D03*
X0115015Y0181144D03*
X0115015Y0180904D03*
X0115015Y0180664D03*
X0115015Y0180544D03*
X0115015Y0180304D03*
X0115015Y0180064D03*
X0115015Y0179944D03*
X0115015Y0179704D03*
X0115015Y0179464D03*
X0115015Y0179344D03*
X0115015Y0179104D03*
X0115015Y0178864D03*
X0115015Y0178744D03*
X0115015Y0178504D03*
X0115015Y0178264D03*
X0115015Y0178144D03*
X0067615Y0181504D03*
X0067615Y0181744D03*
D69*
X0067615Y0181264D03*
X0065095Y0181864D03*
X0063175Y0182464D03*
X0062815Y0181744D03*
X0062695Y0181504D03*
X0062575Y0181264D03*
X0062455Y0181144D03*
X0061015Y0181144D03*
X0060895Y0181504D03*
X0060775Y0181744D03*
X0060655Y0181864D03*
X0060535Y0182104D03*
X0060415Y0182344D03*
X0060415Y0182464D03*
X0060295Y0182704D03*
X0058735Y0181264D03*
X0056215Y0181864D03*
X0055975Y0178864D03*
X0056095Y0178744D03*
X0053215Y0178744D03*
X0053215Y0178864D03*
X0053215Y0179104D03*
X0053215Y0179344D03*
X0053215Y0179464D03*
X0053215Y0179704D03*
X0053215Y0179944D03*
X0053215Y0180064D03*
X0053215Y0180304D03*
X0053215Y0180544D03*
X0053215Y0180664D03*
X0053215Y0180904D03*
X0053215Y0181144D03*
X0053215Y0181264D03*
X0053215Y0181504D03*
X0053215Y0181744D03*
X0053215Y0181864D03*
X0053215Y0178504D03*
X0053215Y0178264D03*
X0053215Y0178144D03*
X0043975Y0178144D03*
X0043975Y0178264D03*
X0040495Y0181264D03*
X0037975Y0181864D03*
X0037735Y0178864D03*
X0037855Y0178744D03*
X0030295Y0178144D03*
X0030175Y0178504D03*
X0030055Y0178744D03*
X0030055Y0178864D03*
X0029455Y0180544D03*
X0027775Y0180664D03*
X0027655Y0180304D03*
X0027535Y0179944D03*
X0027175Y0178864D03*
X0027175Y0178744D03*
X0027055Y0178504D03*
X0026935Y0178264D03*
X0026935Y0178144D03*
X0022495Y0181864D03*
X0064855Y0178864D03*
X0064975Y0178744D03*
X0072295Y0178744D03*
X0072295Y0178864D03*
X0072295Y0179104D03*
X0072295Y0179344D03*
X0072295Y0179464D03*
X0072295Y0179704D03*
X0072295Y0179944D03*
X0072295Y0180064D03*
X0072295Y0180304D03*
X0072295Y0180544D03*
X0072295Y0180664D03*
X0072295Y0180904D03*
X0072295Y0181144D03*
X0072295Y0181264D03*
X0072295Y0181504D03*
X0072295Y0181744D03*
X0072295Y0181864D03*
X0072295Y0178504D03*
X0072295Y0178264D03*
X0072295Y0178144D03*
X0075175Y0179344D03*
X0075295Y0179104D03*
X0075415Y0178864D03*
X0075055Y0179704D03*
X0075175Y0181504D03*
X0075295Y0181744D03*
X0075415Y0181864D03*
X0078415Y0181264D03*
X0078535Y0180664D03*
X0078535Y0180064D03*
X0078535Y0179944D03*
X0078415Y0179464D03*
X0078415Y0179344D03*
X0078295Y0179104D03*
X0080455Y0181864D03*
X0085135Y0181504D03*
X0085255Y0181744D03*
X0085375Y0181864D03*
X0085015Y0179704D03*
X0085135Y0179344D03*
X0085255Y0179104D03*
X0085375Y0178864D03*
X0088255Y0179104D03*
X0088375Y0179344D03*
X0088375Y0179464D03*
X0088495Y0179944D03*
X0088495Y0180064D03*
X0088495Y0180664D03*
X0088375Y0181264D03*
X0090295Y0180904D03*
X0090295Y0181744D03*
X0090415Y0179464D03*
X0090295Y0178264D03*
X0091255Y0191464D03*
X0100135Y0181864D03*
X0100135Y0181744D03*
X0100135Y0181504D03*
X0100135Y0181264D03*
X0100135Y0181144D03*
X0100135Y0180904D03*
X0100135Y0180664D03*
X0100135Y0180544D03*
X0100135Y0180304D03*
X0100135Y0180064D03*
X0100135Y0179944D03*
X0100135Y0179704D03*
X0100135Y0179464D03*
X0100135Y0179344D03*
X0100135Y0179104D03*
X0100135Y0178864D03*
X0100135Y0178744D03*
X0100135Y0178504D03*
X0100135Y0178264D03*
X0100135Y0178144D03*
X0106735Y0179104D03*
X0106855Y0178864D03*
X0109255Y0178864D03*
X0109375Y0179104D03*
X0113215Y0178264D03*
X0113215Y0178144D03*
X0115855Y0204304D03*
X0077695Y0191464D03*
D70*
X0078355Y0181504D03*
X0078475Y0181144D03*
X0078475Y0180904D03*
X0078475Y0179704D03*
X0080275Y0179704D03*
X0080275Y0179464D03*
X0080275Y0179344D03*
X0080275Y0179104D03*
X0083155Y0179104D03*
X0083155Y0178864D03*
X0083155Y0178744D03*
X0083155Y0179344D03*
X0083155Y0179464D03*
X0083155Y0179704D03*
X0083155Y0179944D03*
X0083155Y0180064D03*
X0083155Y0180904D03*
X0083155Y0181144D03*
X0083155Y0181264D03*
X0083155Y0181504D03*
X0083155Y0181744D03*
X0083155Y0181864D03*
X0085075Y0181264D03*
X0085075Y0181144D03*
X0084955Y0180904D03*
X0084955Y0180664D03*
X0084955Y0180544D03*
X0084955Y0180304D03*
X0084955Y0180064D03*
X0084955Y0179944D03*
X0085075Y0179464D03*
X0088555Y0180304D03*
X0088555Y0180544D03*
X0088315Y0181504D03*
X0090355Y0179344D03*
X0090355Y0179104D03*
X0090355Y0178864D03*
X0090355Y0178744D03*
X0090355Y0178504D03*
X0093115Y0178504D03*
X0093115Y0178264D03*
X0093115Y0178144D03*
X0093115Y0178744D03*
X0093115Y0178864D03*
X0093115Y0179104D03*
X0093115Y0179344D03*
X0093115Y0179464D03*
X0093115Y0179704D03*
X0093115Y0180664D03*
X0093115Y0180904D03*
X0093115Y0181144D03*
X0093115Y0181264D03*
X0093115Y0181504D03*
X0093115Y0181744D03*
X0093115Y0181864D03*
X0106675Y0181864D03*
X0106675Y0181744D03*
X0106675Y0181504D03*
X0106675Y0181264D03*
X0106675Y0181144D03*
X0106675Y0180904D03*
X0106675Y0180664D03*
X0106675Y0180544D03*
X0106675Y0180304D03*
X0106675Y0180064D03*
X0106675Y0179944D03*
X0106675Y0179704D03*
X0106675Y0179464D03*
X0106675Y0179344D03*
X0106675Y0182104D03*
X0106675Y0182344D03*
X0106675Y0182464D03*
X0106675Y0182704D03*
X0111355Y0180904D03*
X0111355Y0180664D03*
X0111355Y0180544D03*
X0111355Y0180304D03*
X0111355Y0180064D03*
X0111355Y0179944D03*
X0111355Y0179704D03*
X0111355Y0179464D03*
X0111355Y0179344D03*
X0111355Y0179104D03*
X0111355Y0178864D03*
X0111355Y0178744D03*
X0111355Y0178504D03*
X0111355Y0178264D03*
X0111355Y0178144D03*
X0115915Y0204544D03*
X0125155Y0214504D03*
X0128875Y0193504D03*
X0145315Y0188464D03*
X0155755Y0204304D03*
X0075115Y0181264D03*
X0075115Y0181144D03*
X0075115Y0179464D03*
X0067675Y0179344D03*
X0067675Y0179104D03*
X0067555Y0178864D03*
X0067555Y0181144D03*
X0067555Y0181864D03*
X0064915Y0181504D03*
X0060955Y0181264D03*
X0058675Y0181144D03*
X0058675Y0181864D03*
X0056155Y0181744D03*
X0055915Y0179464D03*
X0055915Y0179344D03*
X0055915Y0179104D03*
X0058675Y0178864D03*
X0050155Y0178864D03*
X0050155Y0179104D03*
X0050155Y0179344D03*
X0050155Y0179464D03*
X0050155Y0179704D03*
X0050155Y0179944D03*
X0050155Y0180904D03*
X0050155Y0181144D03*
X0050155Y0181264D03*
X0050155Y0181504D03*
X0050155Y0181744D03*
X0050155Y0181864D03*
X0042115Y0180904D03*
X0042115Y0180664D03*
X0042115Y0180544D03*
X0042115Y0180304D03*
X0042115Y0180064D03*
X0042115Y0179944D03*
X0042115Y0179704D03*
X0042115Y0179464D03*
X0042115Y0179344D03*
X0042115Y0179104D03*
X0042115Y0178864D03*
X0042115Y0178744D03*
X0042115Y0178504D03*
X0042115Y0178264D03*
X0042115Y0178144D03*
X0040555Y0179104D03*
X0040555Y0179344D03*
X0037675Y0179344D03*
X0037675Y0179464D03*
X0037675Y0179104D03*
X0037915Y0181744D03*
X0034075Y0181744D03*
X0034075Y0181864D03*
X0034075Y0182104D03*
X0034075Y0182344D03*
X0034075Y0182464D03*
X0034075Y0182704D03*
X0034075Y0181504D03*
X0034075Y0181264D03*
X0034075Y0181144D03*
X0034075Y0180904D03*
X0034075Y0180664D03*
X0034075Y0180544D03*
X0034075Y0180304D03*
X0034075Y0180064D03*
X0034075Y0179944D03*
X0034075Y0179704D03*
X0034075Y0179464D03*
X0034075Y0179344D03*
X0034075Y0179104D03*
X0034075Y0178864D03*
X0034075Y0178744D03*
X0029515Y0180304D03*
X0029275Y0180904D03*
X0029275Y0181144D03*
X0029155Y0181264D03*
X0027955Y0181264D03*
X0027955Y0181144D03*
X0027715Y0180544D03*
X0022315Y0179704D03*
X0022315Y0179464D03*
X0022315Y0179344D03*
X0022315Y0179104D03*
D71*
X0023995Y0178264D03*
X0023995Y0180664D03*
X0023995Y0182464D03*
X0025435Y0190504D03*
X0025435Y0190744D03*
X0025435Y0190864D03*
X0025435Y0191104D03*
X0025435Y0191344D03*
X0025435Y0191464D03*
X0025435Y0191704D03*
X0025435Y0191944D03*
X0025435Y0192064D03*
X0025435Y0192304D03*
X0025435Y0192544D03*
X0025435Y0192664D03*
X0025435Y0192904D03*
X0025435Y0193144D03*
X0025435Y0193264D03*
X0025435Y0193504D03*
X0025435Y0193744D03*
X0025435Y0193864D03*
X0025435Y0194104D03*
X0025435Y0194344D03*
X0025435Y0194464D03*
X0025435Y0194704D03*
X0025435Y0194944D03*
X0025435Y0195064D03*
X0025435Y0195304D03*
X0025435Y0195544D03*
X0025435Y0195664D03*
X0025435Y0195904D03*
X0025435Y0196144D03*
X0025435Y0196264D03*
X0025435Y0196504D03*
X0025435Y0196744D03*
X0025435Y0196864D03*
X0025435Y0197104D03*
X0025435Y0197344D03*
X0025435Y0197464D03*
X0025435Y0197704D03*
X0025435Y0200344D03*
X0025435Y0200464D03*
X0025435Y0200704D03*
X0025435Y0200944D03*
X0025435Y0201064D03*
X0025435Y0201304D03*
X0025435Y0201544D03*
X0025435Y0201664D03*
X0025435Y0201904D03*
X0025435Y0202144D03*
X0025435Y0202264D03*
X0025435Y0202504D03*
X0025435Y0202744D03*
X0031435Y0190864D03*
X0031435Y0190744D03*
X0031435Y0190504D03*
X0039235Y0196744D03*
X0039235Y0196864D03*
X0044995Y0191104D03*
X0044995Y0190864D03*
X0052795Y0191944D03*
X0052795Y0192064D03*
X0052795Y0192304D03*
X0052795Y0192544D03*
X0052795Y0192664D03*
X0052795Y0192904D03*
X0052795Y0193144D03*
X0052795Y0193264D03*
X0052795Y0193504D03*
X0052795Y0193744D03*
X0052795Y0193864D03*
X0052795Y0194104D03*
X0052795Y0194344D03*
X0052795Y0194464D03*
X0052795Y0194704D03*
X0052795Y0194944D03*
X0052795Y0195064D03*
X0052795Y0195304D03*
X0052795Y0195544D03*
X0052795Y0195664D03*
X0052795Y0195904D03*
X0052795Y0196144D03*
X0052795Y0196264D03*
X0052795Y0196504D03*
X0052795Y0196744D03*
X0052795Y0196864D03*
X0052795Y0197104D03*
X0052795Y0197344D03*
X0052795Y0197464D03*
X0052795Y0197704D03*
X0052795Y0197944D03*
X0052795Y0198064D03*
X0052795Y0198304D03*
X0052795Y0198544D03*
X0052795Y0198664D03*
X0052795Y0198904D03*
X0052795Y0199144D03*
X0052795Y0199264D03*
X0052795Y0199504D03*
X0052795Y0199744D03*
X0052795Y0199864D03*
X0052795Y0200104D03*
X0066235Y0178504D03*
X0072595Y0191704D03*
X0072595Y0191944D03*
X0072835Y0193264D03*
X0072835Y0193504D03*
X0072835Y0193744D03*
X0072835Y0193864D03*
X0072835Y0194104D03*
X0072835Y0194344D03*
X0072595Y0195664D03*
X0072595Y0195904D03*
X0076795Y0178504D03*
X0086395Y0196264D03*
X0104995Y0196864D03*
X0104995Y0190744D03*
X0103435Y0178504D03*
X0103435Y0178264D03*
X0103435Y0178144D03*
X0113995Y0190744D03*
X0129835Y0201904D03*
X0134995Y0201304D03*
X0134635Y0198064D03*
X0139435Y0201304D03*
X0139795Y0193264D03*
X0139795Y0193144D03*
X0144595Y0203704D03*
X0146395Y0218944D03*
X0146395Y0219904D03*
X0128995Y0218464D03*
X0128995Y0218344D03*
X0170035Y0180664D03*
D72*
X0109435Y0180664D03*
X0109435Y0180544D03*
X0109435Y0180304D03*
X0109435Y0180064D03*
X0109435Y0179944D03*
X0109435Y0179704D03*
X0109435Y0179464D03*
X0109435Y0179344D03*
X0109435Y0180904D03*
X0109435Y0181144D03*
X0109435Y0181264D03*
X0109435Y0181504D03*
X0109435Y0181744D03*
X0109435Y0181864D03*
X0109435Y0182104D03*
X0109435Y0182344D03*
X0109435Y0182464D03*
X0109435Y0182704D03*
X0104635Y0182704D03*
X0104635Y0182464D03*
X0104635Y0182344D03*
X0104635Y0182104D03*
X0104635Y0181864D03*
X0104635Y0181744D03*
X0104635Y0181504D03*
X0104635Y0181264D03*
X0104635Y0181144D03*
X0104635Y0180904D03*
X0104635Y0180664D03*
X0104635Y0180544D03*
X0104635Y0180304D03*
X0104635Y0180064D03*
X0104635Y0179944D03*
X0104635Y0179704D03*
X0104635Y0179464D03*
X0104635Y0179344D03*
X0104635Y0179104D03*
X0104635Y0178864D03*
X0104635Y0178744D03*
X0097195Y0178744D03*
X0097195Y0178864D03*
X0097195Y0179104D03*
X0097195Y0179344D03*
X0097195Y0179464D03*
X0097195Y0179704D03*
X0097195Y0179944D03*
X0097195Y0180064D03*
X0097195Y0180304D03*
X0097195Y0180544D03*
X0097195Y0180664D03*
X0097195Y0180904D03*
X0097195Y0181144D03*
X0097195Y0181264D03*
X0097195Y0181504D03*
X0097195Y0181744D03*
X0097195Y0181864D03*
X0097195Y0182104D03*
X0097195Y0182344D03*
X0097195Y0182464D03*
X0097195Y0182704D03*
X0097195Y0178504D03*
X0097195Y0178264D03*
X0097195Y0178144D03*
X0090235Y0181144D03*
X0090235Y0181264D03*
X0090235Y0181504D03*
X0088435Y0181144D03*
X0088435Y0180904D03*
X0088435Y0179704D03*
X0080395Y0181144D03*
X0080395Y0181264D03*
X0080395Y0181504D03*
X0080395Y0181744D03*
X0078595Y0180544D03*
X0078595Y0180304D03*
X0074995Y0180304D03*
X0074995Y0180064D03*
X0074995Y0179944D03*
X0074995Y0180544D03*
X0074995Y0180664D03*
X0074995Y0180904D03*
X0065035Y0181744D03*
X0064795Y0179464D03*
X0064795Y0179344D03*
X0064795Y0179104D03*
X0061795Y0179104D03*
X0061795Y0178864D03*
X0061795Y0178744D03*
X0061795Y0178504D03*
X0061795Y0178264D03*
X0061795Y0178144D03*
X0061795Y0179344D03*
X0061795Y0179464D03*
X0061795Y0179704D03*
X0058795Y0179344D03*
X0058795Y0179104D03*
X0056035Y0181504D03*
X0040435Y0181144D03*
X0040435Y0181864D03*
X0040435Y0178864D03*
X0037795Y0181504D03*
X0030235Y0178264D03*
X0029635Y0179944D03*
X0029635Y0180064D03*
X0029395Y0180664D03*
X0027835Y0180904D03*
X0027595Y0180064D03*
X0025195Y0180064D03*
X0025195Y0179944D03*
X0025195Y0179704D03*
X0025195Y0179464D03*
X0025195Y0179344D03*
X0025195Y0179104D03*
X0025195Y0178864D03*
X0025195Y0178744D03*
X0025195Y0180904D03*
X0025195Y0181144D03*
X0025195Y0181264D03*
X0025195Y0181504D03*
X0025195Y0181744D03*
X0025195Y0181864D03*
X0022435Y0181744D03*
X0022435Y0181504D03*
X0022435Y0181264D03*
X0022435Y0181144D03*
D73*
X0022435Y0179944D03*
X0022435Y0178864D03*
X0061795Y0179944D03*
X0062995Y0182104D03*
X0063235Y0182704D03*
X0067435Y0178744D03*
X0077995Y0178744D03*
X0078235Y0181744D03*
X0080635Y0180904D03*
X0080395Y0179944D03*
X0080395Y0178864D03*
X0081595Y0186904D03*
X0088195Y0181744D03*
X0090235Y0178144D03*
X0095035Y0186904D03*
X0109195Y0178744D03*
X0115795Y0203944D03*
X0115795Y0204064D03*
D74*
X0118195Y0208504D03*
X0120595Y0199504D03*
X0129595Y0202504D03*
X0130195Y0197944D03*
X0131635Y0213304D03*
X0131035Y0214504D03*
X0130195Y0215944D03*
X0130195Y0216064D03*
X0129595Y0217144D03*
X0129235Y0217744D03*
X0131035Y0223144D03*
X0135235Y0217144D03*
X0135595Y0216544D03*
X0137035Y0211864D03*
X0140635Y0208504D03*
X0144235Y0193144D03*
X0113635Y0190264D03*
X0091795Y0180544D03*
X0091795Y0179944D03*
X0081835Y0180304D03*
X0081835Y0178504D03*
X0081835Y0182104D03*
X0086035Y0196744D03*
X0072235Y0196744D03*
X0072235Y0196864D03*
X0072235Y0190864D03*
X0072235Y0190744D03*
X0064795Y0190504D03*
X0064795Y0196864D03*
X0052435Y0190504D03*
X0048835Y0178744D03*
X0048835Y0178504D03*
X0048835Y0178264D03*
X0048835Y0178144D03*
X0039235Y0190264D03*
X0038995Y0197464D03*
D75*
X0040495Y0181744D03*
X0040495Y0181504D03*
X0045775Y0181264D03*
X0045775Y0181144D03*
X0045775Y0180904D03*
X0045775Y0180664D03*
X0045775Y0180544D03*
X0045775Y0180304D03*
X0045775Y0180064D03*
X0045775Y0179944D03*
X0045775Y0179704D03*
X0045775Y0179464D03*
X0045775Y0179344D03*
X0045775Y0179104D03*
X0045775Y0178864D03*
X0045775Y0178744D03*
X0045775Y0178504D03*
X0045775Y0178264D03*
X0045775Y0178144D03*
X0058735Y0181504D03*
X0058735Y0181744D03*
X0115975Y0204664D03*
D76*
X0120475Y0201904D03*
X0120475Y0199864D03*
X0114115Y0190864D03*
X0105115Y0190504D03*
X0105115Y0197104D03*
X0099715Y0196504D03*
X0091915Y0182464D03*
X0091915Y0180304D03*
X0086755Y0178504D03*
X0081955Y0178264D03*
X0081955Y0180664D03*
X0081955Y0182464D03*
X0072715Y0192304D03*
X0072715Y0192544D03*
X0072715Y0192664D03*
X0072475Y0191344D03*
X0072715Y0194944D03*
X0072715Y0195064D03*
X0072715Y0195304D03*
X0072475Y0196264D03*
X0064555Y0196264D03*
X0064555Y0190864D03*
X0058675Y0202744D03*
X0058675Y0202864D03*
X0058675Y0203104D03*
X0052675Y0191464D03*
X0052675Y0191344D03*
X0052675Y0191104D03*
X0052555Y0190864D03*
X0052555Y0190744D03*
X0057355Y0178504D03*
X0044875Y0191464D03*
X0044875Y0191704D03*
X0044875Y0191944D03*
X0044875Y0192064D03*
X0044875Y0192304D03*
X0044875Y0192544D03*
X0044875Y0192664D03*
X0044875Y0192904D03*
X0044875Y0193144D03*
X0044875Y0193264D03*
X0044875Y0193504D03*
X0044875Y0193744D03*
X0044875Y0193864D03*
X0044875Y0194104D03*
X0044875Y0194344D03*
X0044875Y0194464D03*
X0044875Y0194704D03*
X0044875Y0194944D03*
X0044875Y0195064D03*
X0044875Y0195304D03*
X0044875Y0195544D03*
X0044875Y0195664D03*
X0044875Y0195904D03*
X0044875Y0196144D03*
X0044875Y0196264D03*
X0044875Y0196504D03*
X0044875Y0196744D03*
X0044875Y0196864D03*
X0044875Y0197104D03*
X0044875Y0197344D03*
X0044875Y0197464D03*
X0044875Y0197704D03*
X0044875Y0197944D03*
X0044875Y0198064D03*
X0044875Y0198304D03*
X0044875Y0198544D03*
X0044875Y0198664D03*
X0044875Y0198904D03*
X0039115Y0197104D03*
X0039475Y0191104D03*
X0039475Y0190864D03*
X0039115Y0178504D03*
X0032875Y0178504D03*
X0032875Y0178264D03*
X0032875Y0178144D03*
X0031555Y0190264D03*
X0129715Y0202264D03*
X0137155Y0204664D03*
X0140515Y0207904D03*
X0149155Y0203704D03*
X0142075Y0189904D03*
X0158755Y0198904D03*
X0158875Y0198664D03*
D77*
X0158935Y0198544D03*
X0158935Y0198304D03*
X0154135Y0198544D03*
X0154135Y0198664D03*
X0149335Y0193504D03*
X0144535Y0203464D03*
X0140455Y0207664D03*
X0134695Y0198304D03*
X0129895Y0201544D03*
X0129895Y0201664D03*
X0128935Y0218704D03*
X0128695Y0218944D03*
X0128695Y0219064D03*
X0128695Y0219904D03*
X0113935Y0190504D03*
X0108055Y0178504D03*
X0104935Y0190864D03*
X0104935Y0196744D03*
X0099895Y0196264D03*
X0099895Y0196144D03*
X0086455Y0196144D03*
X0072775Y0194704D03*
X0072775Y0194464D03*
X0072655Y0195544D03*
X0072775Y0193144D03*
X0072775Y0192904D03*
X0072655Y0192064D03*
X0064375Y0191104D03*
X0058735Y0203344D03*
X0044935Y0191344D03*
X0039535Y0191344D03*
X0039535Y0191464D03*
X0031855Y0196864D03*
X0025495Y0202864D03*
X0025495Y0203104D03*
X0024055Y0180544D03*
X0024055Y0178144D03*
X0146455Y0219064D03*
X0146455Y0219664D03*
X0169975Y0180544D03*
D78*
X0136615Y0178264D03*
D79*
X0139615Y0193624D03*
X0139615Y0193984D03*
X0139615Y0194224D03*
X0139615Y0194584D03*
X0139615Y0194824D03*
X0139615Y0195184D03*
X0139615Y0195424D03*
X0139615Y0195784D03*
X0139615Y0196024D03*
X0139615Y0196384D03*
X0139615Y0196624D03*
X0139615Y0196984D03*
X0139615Y0197224D03*
X0139615Y0197584D03*
X0139615Y0197824D03*
X0139615Y0198184D03*
X0139615Y0198424D03*
X0139615Y0198784D03*
X0139615Y0199024D03*
X0139615Y0199384D03*
X0139615Y0199624D03*
X0139615Y0199984D03*
X0139615Y0200224D03*
X0139615Y0200584D03*
X0134815Y0200584D03*
X0134815Y0200224D03*
X0134815Y0199984D03*
X0134815Y0199624D03*
X0134815Y0199384D03*
X0134815Y0207424D03*
X0118015Y0208984D03*
X0104455Y0195784D03*
X0104455Y0191584D03*
X0104575Y0191224D03*
X0100255Y0195424D03*
X0108055Y0178384D03*
X0064255Y0191224D03*
X0057415Y0180424D03*
X0058855Y0203584D03*
X0039175Y0180424D03*
X0159415Y0214024D03*
X0171175Y0198784D03*
X0170215Y0194824D03*
D80*
X0154075Y0194824D03*
X0154075Y0194584D03*
X0154075Y0194224D03*
X0154075Y0193984D03*
X0154075Y0193624D03*
X0154075Y0195184D03*
X0154075Y0195424D03*
X0154075Y0195784D03*
X0154075Y0196024D03*
X0154075Y0196384D03*
X0154075Y0196624D03*
X0154075Y0196984D03*
X0154075Y0197224D03*
X0154075Y0197584D03*
X0154075Y0197824D03*
X0154075Y0198184D03*
X0154075Y0198424D03*
X0149275Y0198424D03*
X0149275Y0198184D03*
X0149275Y0197824D03*
X0149275Y0197584D03*
X0149275Y0197224D03*
X0149275Y0196984D03*
X0149275Y0196624D03*
X0149275Y0196384D03*
X0149275Y0196024D03*
X0149275Y0195784D03*
X0149275Y0195424D03*
X0149275Y0195184D03*
X0149275Y0194824D03*
X0149275Y0194584D03*
X0149275Y0194224D03*
X0149275Y0193984D03*
X0149275Y0193624D03*
X0149275Y0198784D03*
X0149275Y0199024D03*
X0149275Y0199384D03*
X0149275Y0199624D03*
X0149275Y0199984D03*
X0149275Y0200224D03*
X0149275Y0200584D03*
X0149275Y0200824D03*
X0149275Y0201184D03*
X0149275Y0201424D03*
X0149275Y0201784D03*
X0149275Y0202024D03*
X0149275Y0202384D03*
X0149275Y0202624D03*
X0149275Y0202984D03*
X0149275Y0203224D03*
X0144475Y0203224D03*
X0144475Y0202984D03*
X0144475Y0202624D03*
X0144475Y0202384D03*
X0144475Y0202024D03*
X0144475Y0201784D03*
X0144475Y0201424D03*
X0144475Y0201184D03*
X0144475Y0200824D03*
X0144475Y0200584D03*
X0144475Y0200224D03*
X0144475Y0199984D03*
X0144475Y0199624D03*
X0144475Y0199384D03*
X0144475Y0199024D03*
X0144475Y0198784D03*
X0144475Y0198424D03*
X0144475Y0198184D03*
X0144475Y0197824D03*
X0144475Y0197584D03*
X0144475Y0197224D03*
X0144475Y0196984D03*
X0144475Y0196624D03*
X0144475Y0196384D03*
X0144475Y0196024D03*
X0144475Y0195784D03*
X0144475Y0195424D03*
X0144475Y0195184D03*
X0144475Y0194824D03*
X0144475Y0194584D03*
X0144475Y0194224D03*
X0144475Y0193984D03*
X0139555Y0200824D03*
X0134875Y0200824D03*
X0134755Y0199024D03*
X0134755Y0198784D03*
X0134755Y0198424D03*
X0129955Y0198424D03*
X0129955Y0198784D03*
X0129955Y0199024D03*
X0129955Y0199384D03*
X0129955Y0199624D03*
X0129955Y0199984D03*
X0129955Y0200224D03*
X0129955Y0200584D03*
X0129955Y0200824D03*
X0129955Y0201184D03*
X0125155Y0207424D03*
X0125155Y0207784D03*
X0125155Y0208024D03*
X0125155Y0208384D03*
X0125155Y0208624D03*
X0125155Y0208984D03*
X0125155Y0209224D03*
X0125155Y0209584D03*
X0125155Y0209824D03*
X0125155Y0210184D03*
X0125155Y0210424D03*
X0125155Y0210784D03*
X0125155Y0211024D03*
X0125155Y0211384D03*
X0125155Y0211624D03*
X0125155Y0211984D03*
X0125155Y0212224D03*
X0125155Y0212584D03*
X0125155Y0212824D03*
X0125155Y0213184D03*
X0125155Y0213424D03*
X0128635Y0219184D03*
X0128635Y0219424D03*
X0128635Y0219784D03*
X0120355Y0201184D03*
X0120355Y0200824D03*
X0120355Y0200584D03*
X0114355Y0191224D03*
X0109435Y0187024D03*
X0104755Y0196384D03*
X0099955Y0196024D03*
X0086635Y0195784D03*
X0086755Y0178384D03*
X0076795Y0178384D03*
X0066235Y0178384D03*
X0057355Y0178384D03*
X0044755Y0199384D03*
X0025555Y0203224D03*
X0140395Y0207424D03*
D81*
X0144655Y0203824D03*
X0149095Y0203824D03*
X0146335Y0218824D03*
X0139375Y0201424D03*
X0135055Y0201424D03*
X0134815Y0207784D03*
X0131335Y0213784D03*
X0129055Y0218224D03*
X0133615Y0220024D03*
X0129655Y0202384D03*
X0120655Y0202384D03*
X0120535Y0202024D03*
X0120535Y0199624D03*
X0120655Y0199384D03*
X0118135Y0208624D03*
X0099655Y0196624D03*
X0091855Y0180424D03*
X0086095Y0196624D03*
X0081895Y0180784D03*
X0081895Y0180424D03*
X0081895Y0178384D03*
X0072415Y0191224D03*
X0072535Y0196024D03*
X0072415Y0196384D03*
X0064735Y0196624D03*
X0064615Y0196384D03*
X0064735Y0190624D03*
X0058615Y0190624D03*
X0058615Y0190384D03*
X0058615Y0190024D03*
X0058615Y0189784D03*
X0058615Y0189424D03*
X0058615Y0189184D03*
X0058615Y0188824D03*
X0058615Y0188584D03*
X0058615Y0188224D03*
X0058615Y0187984D03*
X0058615Y0187624D03*
X0058615Y0187384D03*
X0058615Y0190984D03*
X0058615Y0191224D03*
X0058615Y0191584D03*
X0058615Y0191824D03*
X0058615Y0192184D03*
X0058615Y0192424D03*
X0058615Y0192784D03*
X0058615Y0193024D03*
X0058615Y0193384D03*
X0058615Y0193624D03*
X0058615Y0193984D03*
X0058615Y0194224D03*
X0058615Y0194584D03*
X0058615Y0194824D03*
X0058615Y0195184D03*
X0058615Y0195424D03*
X0058615Y0195784D03*
X0058615Y0196024D03*
X0058615Y0196384D03*
X0058615Y0196624D03*
X0058615Y0196984D03*
X0058615Y0197224D03*
X0058615Y0197584D03*
X0058615Y0197824D03*
X0058615Y0198184D03*
X0058615Y0198424D03*
X0058615Y0198784D03*
X0058615Y0199024D03*
X0058615Y0199384D03*
X0058615Y0199624D03*
X0058615Y0199984D03*
X0058615Y0200224D03*
X0058615Y0200584D03*
X0058615Y0200824D03*
X0058615Y0201184D03*
X0058615Y0201424D03*
X0058615Y0201784D03*
X0058615Y0202024D03*
X0058615Y0202384D03*
X0052615Y0190984D03*
X0052495Y0190624D03*
X0048895Y0182584D03*
X0048895Y0182224D03*
X0048895Y0181984D03*
X0045055Y0190624D03*
X0039415Y0190624D03*
X0039175Y0196384D03*
X0039175Y0196984D03*
X0031495Y0191224D03*
X0031495Y0190384D03*
X0025375Y0197824D03*
X0023935Y0180784D03*
X0023935Y0180424D03*
X0023935Y0178384D03*
D82*
X0039115Y0178384D03*
X0086515Y0196024D03*
X0104515Y0196024D03*
X0146515Y0219424D03*
D83*
X0164215Y0213664D03*
X0164455Y0213304D03*
X0164455Y0178864D03*
X0164215Y0178504D03*
X0136015Y0179104D03*
X0110215Y0197944D03*
D84*
X0110275Y0198064D03*
X0136435Y0178504D03*
D85*
X0132355Y0194464D03*
X0113155Y0178504D03*
X0106915Y0178744D03*
X0090475Y0179704D03*
X0090355Y0181864D03*
X0088075Y0181864D03*
X0088075Y0178864D03*
X0087955Y0178744D03*
X0078115Y0178864D03*
X0078115Y0181864D03*
X0077755Y0191344D03*
X0063115Y0182344D03*
X0062875Y0181864D03*
X0058555Y0178744D03*
X0043915Y0178504D03*
X0040315Y0178744D03*
X0028555Y0182704D03*
X0022675Y0180904D03*
D86*
X0023875Y0180304D03*
X0023875Y0178504D03*
X0023875Y0182104D03*
X0031555Y0191344D03*
X0032155Y0197344D03*
X0039115Y0196264D03*
X0039355Y0190504D03*
X0091315Y0190264D03*
X0099475Y0196864D03*
X0120715Y0199144D03*
X0120715Y0199264D03*
X0120715Y0202504D03*
X0131875Y0213064D03*
X0132355Y0212104D03*
X0130915Y0214864D03*
X0130555Y0215344D03*
X0130555Y0215464D03*
X0129475Y0217264D03*
X0129355Y0217504D03*
X0129115Y0217864D03*
X0133675Y0219904D03*
X0134515Y0218464D03*
X0134515Y0218344D03*
X0135115Y0217504D03*
X0135475Y0216664D03*
X0137755Y0213064D03*
X0137755Y0212944D03*
X0139315Y0201544D03*
X0135115Y0201544D03*
X0134515Y0197944D03*
X0146875Y0207064D03*
X0146275Y0218464D03*
X0144115Y0223144D03*
X0149515Y0193144D03*
D87*
X0164335Y0178624D03*
D88*
X0136255Y0178624D03*
X0136015Y0179224D03*
D89*
X0134815Y0206584D03*
X0113215Y0178624D03*
X0109015Y0178624D03*
X0057415Y0182824D03*
D90*
X0058435Y0178624D03*
X0056275Y0178624D03*
X0061795Y0180184D03*
X0065155Y0178624D03*
X0076795Y0182824D03*
X0080635Y0181984D03*
X0085675Y0178624D03*
X0086755Y0182824D03*
X0107035Y0178624D03*
X0111595Y0182584D03*
X0113155Y0178984D03*
X0115675Y0203584D03*
X0128875Y0193384D03*
X0155155Y0188584D03*
X0045475Y0182584D03*
X0042355Y0182584D03*
X0040195Y0178624D03*
X0038035Y0178624D03*
X0022675Y0181984D03*
D91*
X0028615Y0182224D03*
X0042415Y0182224D03*
X0045415Y0182224D03*
X0045415Y0181984D03*
X0043975Y0179224D03*
X0077815Y0178624D03*
X0087775Y0178624D03*
X0091255Y0191224D03*
X0111655Y0182224D03*
X0114655Y0182224D03*
X0114655Y0181984D03*
X0113215Y0179224D03*
X0115615Y0203224D03*
D92*
X0118255Y0208384D03*
X0120775Y0199024D03*
X0129535Y0202624D03*
X0130255Y0197824D03*
X0134455Y0197824D03*
X0139975Y0193024D03*
X0140695Y0208624D03*
X0136735Y0211384D03*
X0137095Y0211984D03*
X0137455Y0212584D03*
X0137575Y0212824D03*
X0132655Y0211624D03*
X0132535Y0211984D03*
X0132175Y0212584D03*
X0132055Y0212824D03*
X0131095Y0214384D03*
X0130975Y0214624D03*
X0130495Y0215584D03*
X0129895Y0216424D03*
X0129655Y0217024D03*
X0133735Y0219784D03*
X0133975Y0219424D03*
X0134095Y0219184D03*
X0134455Y0218584D03*
X0134935Y0217624D03*
X0141295Y0219424D03*
X0145135Y0216424D03*
X0144775Y0215824D03*
X0145975Y0217984D03*
X0146095Y0218224D03*
X0149575Y0193024D03*
X0153775Y0193024D03*
X0105295Y0190384D03*
X0099295Y0196984D03*
X0085855Y0196984D03*
X0081775Y0180184D03*
X0081775Y0178624D03*
X0072175Y0190624D03*
X0072175Y0196984D03*
X0064855Y0196984D03*
X0064855Y0190384D03*
X0052375Y0190384D03*
D93*
X0043915Y0178984D03*
X0067315Y0178624D03*
X0075715Y0178624D03*
X0114715Y0182584D03*
D94*
X0090535Y0181984D03*
X0090655Y0179824D03*
X0085495Y0181984D03*
X0075535Y0181984D03*
X0067375Y0181024D03*
X0066295Y0182824D03*
X0058495Y0181024D03*
X0043975Y0178624D03*
X0040255Y0181024D03*
X0039175Y0182824D03*
D95*
X0038815Y0197584D03*
X0023815Y0180184D03*
X0023815Y0178624D03*
X0105415Y0197224D03*
X0129415Y0217384D03*
X0134815Y0217984D03*
X0137215Y0212224D03*
X0134815Y0208024D03*
X0140215Y0217624D03*
X0132415Y0194824D03*
D96*
X0113215Y0178864D03*
X0113215Y0178744D03*
X0038215Y0182104D03*
X0028615Y0182464D03*
X0022615Y0180064D03*
X0022615Y0178744D03*
D97*
X0023095Y0187264D03*
X0037855Y0179704D03*
X0040135Y0182104D03*
X0043975Y0178864D03*
X0043975Y0178744D03*
X0056095Y0179704D03*
X0056455Y0182104D03*
X0058375Y0182104D03*
X0061735Y0180064D03*
X0064975Y0179704D03*
X0065335Y0182104D03*
X0067255Y0182104D03*
X0075535Y0178744D03*
X0080575Y0178744D03*
X0080575Y0180064D03*
X0085495Y0178744D03*
X0090535Y0180664D03*
X0091255Y0191344D03*
X0109495Y0186904D03*
X0115735Y0203704D03*
D98*
X0136075Y0178984D03*
X0164515Y0178984D03*
X0164635Y0179224D03*
X0164755Y0212824D03*
X0164515Y0213184D03*
D99*
X0161515Y0194464D03*
X0114715Y0182704D03*
X0114715Y0182464D03*
X0114715Y0182344D03*
X0075715Y0182104D03*
X0043915Y0179104D03*
D100*
X0031615Y0191464D03*
X0032215Y0197464D03*
X0028615Y0179104D03*
X0077815Y0190264D03*
X0105415Y0190264D03*
X0130015Y0216304D03*
X0131215Y0214264D03*
X0131215Y0214144D03*
X0135415Y0216904D03*
X0134815Y0217864D03*
X0134215Y0218944D03*
X0137215Y0212104D03*
X0145615Y0217144D03*
X0146215Y0218344D03*
X0169615Y0195064D03*
D101*
X0154315Y0199024D03*
X0146275Y0218584D03*
X0146275Y0220024D03*
X0136915Y0211624D03*
X0135475Y0216784D03*
X0135115Y0217384D03*
X0130555Y0215224D03*
X0131275Y0214024D03*
X0131755Y0213184D03*
X0132355Y0212224D03*
X0129355Y0217624D03*
X0129115Y0217984D03*
X0120715Y0202624D03*
X0124555Y0194824D03*
X0113755Y0190384D03*
X0072355Y0190984D03*
X0072355Y0196624D03*
X0031675Y0190024D03*
X0025315Y0190024D03*
X0023875Y0182224D03*
X0028555Y0179224D03*
D102*
X0135895Y0179344D03*
D103*
X0144295Y0193264D03*
X0149455Y0193264D03*
X0151735Y0189904D03*
X0153895Y0193144D03*
X0153895Y0193264D03*
X0154255Y0198904D03*
X0156535Y0202264D03*
X0159055Y0198064D03*
X0146335Y0218704D03*
X0140575Y0208264D03*
X0140575Y0208144D03*
X0134815Y0207904D03*
X0131335Y0213904D03*
X0130735Y0215104D03*
X0129055Y0218104D03*
X0128815Y0220144D03*
X0129775Y0202144D03*
X0130135Y0198064D03*
X0120535Y0199744D03*
X0120535Y0202144D03*
X0120535Y0202264D03*
X0118135Y0208744D03*
X0099535Y0196744D03*
X0091855Y0182344D03*
X0091855Y0180064D03*
X0086215Y0196504D03*
X0081895Y0182344D03*
X0072415Y0191104D03*
X0072535Y0191464D03*
X0072535Y0196144D03*
X0072415Y0196504D03*
X0068575Y0187144D03*
X0064615Y0190744D03*
X0064615Y0196504D03*
X0064735Y0196744D03*
X0058615Y0196744D03*
X0058615Y0196864D03*
X0058615Y0197104D03*
X0058615Y0197344D03*
X0058615Y0197464D03*
X0058615Y0197704D03*
X0058615Y0197944D03*
X0058615Y0198064D03*
X0058615Y0198304D03*
X0058615Y0198544D03*
X0058615Y0198664D03*
X0058615Y0198904D03*
X0058615Y0199144D03*
X0058615Y0199264D03*
X0058615Y0199504D03*
X0058615Y0199744D03*
X0058615Y0199864D03*
X0058615Y0200104D03*
X0058615Y0200344D03*
X0058615Y0200464D03*
X0058615Y0200704D03*
X0058615Y0200944D03*
X0058615Y0201064D03*
X0058615Y0201304D03*
X0058615Y0201544D03*
X0058615Y0201664D03*
X0058615Y0201904D03*
X0058615Y0202144D03*
X0058615Y0202264D03*
X0058615Y0202504D03*
X0058615Y0196504D03*
X0058615Y0196264D03*
X0058615Y0196144D03*
X0058615Y0195904D03*
X0058615Y0195664D03*
X0058615Y0195544D03*
X0058615Y0195304D03*
X0058615Y0195064D03*
X0058615Y0194944D03*
X0058615Y0194704D03*
X0058615Y0194464D03*
X0058615Y0194344D03*
X0058615Y0194104D03*
X0058615Y0193864D03*
X0058615Y0193744D03*
X0058615Y0193504D03*
X0058615Y0193264D03*
X0058615Y0193144D03*
X0058615Y0192904D03*
X0058615Y0192664D03*
X0058615Y0192544D03*
X0058615Y0192304D03*
X0058615Y0192064D03*
X0058615Y0191944D03*
X0058615Y0191704D03*
X0058615Y0191464D03*
X0058615Y0191344D03*
X0058615Y0191104D03*
X0058615Y0190864D03*
X0058615Y0190744D03*
X0058615Y0190504D03*
X0058615Y0190264D03*
X0058615Y0190144D03*
X0058615Y0189904D03*
X0058615Y0189664D03*
X0058615Y0189544D03*
X0058615Y0189304D03*
X0058615Y0189064D03*
X0058615Y0188944D03*
X0058615Y0188704D03*
X0058615Y0188464D03*
X0058615Y0188344D03*
X0058615Y0188104D03*
X0058615Y0187864D03*
X0058615Y0187744D03*
X0058615Y0187504D03*
X0052735Y0191704D03*
X0048895Y0182704D03*
X0048895Y0182464D03*
X0048895Y0182344D03*
X0048895Y0182104D03*
X0045175Y0190504D03*
X0045055Y0190744D03*
X0039415Y0190744D03*
X0039175Y0196504D03*
X0039055Y0197344D03*
X0031975Y0197104D03*
X0031495Y0191104D03*
X0031615Y0190144D03*
X0025375Y0190144D03*
X0025375Y0190264D03*
X0023935Y0182344D03*
X0028615Y0179464D03*
X0028615Y0179344D03*
D104*
X0043195Y0180664D03*
X0043195Y0180904D03*
X0043435Y0179704D03*
X0044395Y0179464D03*
X0044635Y0180304D03*
X0044635Y0180544D03*
X0044635Y0180664D03*
X0044755Y0180904D03*
X0044755Y0181144D03*
X0112435Y0180904D03*
X0112435Y0180664D03*
X0112555Y0180304D03*
X0112555Y0180064D03*
X0112675Y0179704D03*
X0113635Y0179464D03*
X0113755Y0179704D03*
X0113755Y0179944D03*
X0113755Y0180064D03*
X0113875Y0180304D03*
X0113875Y0180544D03*
X0113875Y0180664D03*
X0113995Y0180904D03*
X0113995Y0181144D03*
X0125275Y0194464D03*
X0116035Y0204904D03*
X0155275Y0188704D03*
D105*
X0116095Y0205144D03*
X0116095Y0205264D03*
X0112495Y0180544D03*
X0112735Y0179464D03*
X0077695Y0191704D03*
X0043495Y0179464D03*
D106*
X0164815Y0179584D03*
D107*
X0164755Y0212584D03*
X0135835Y0179584D03*
D108*
X0116035Y0204784D03*
X0113995Y0181024D03*
X0113995Y0180784D03*
X0113875Y0180424D03*
X0113755Y0179824D03*
X0113635Y0179584D03*
X0112675Y0179584D03*
X0112675Y0179824D03*
X0112555Y0180184D03*
X0112435Y0180784D03*
X0044755Y0180784D03*
X0044755Y0181024D03*
X0044635Y0180424D03*
X0044395Y0179584D03*
X0043435Y0179584D03*
X0043435Y0179824D03*
X0043195Y0180784D03*
D109*
X0048775Y0187024D03*
X0065215Y0179824D03*
X0095215Y0179824D03*
X0095215Y0179584D03*
X0111775Y0181384D03*
D110*
X0164755Y0179704D03*
D111*
X0135835Y0179704D03*
D112*
X0167515Y0180664D03*
X0044515Y0180064D03*
X0044515Y0179944D03*
X0044515Y0179704D03*
X0043315Y0180064D03*
X0043315Y0180304D03*
D113*
X0164755Y0179824D03*
D114*
X0135835Y0179824D03*
D115*
X0056335Y0179824D03*
X0042535Y0181384D03*
X0038095Y0179824D03*
D116*
X0043315Y0180184D03*
X0044515Y0179824D03*
D117*
X0043375Y0179944D03*
X0043255Y0180544D03*
X0044815Y0181264D03*
X0112615Y0179944D03*
X0114055Y0181264D03*
D118*
X0115315Y0201904D03*
X0128875Y0192904D03*
X0146875Y0207304D03*
X0155755Y0204904D03*
X0155155Y0188104D03*
X0086755Y0182704D03*
X0077755Y0190864D03*
X0065515Y0179944D03*
D119*
X0061795Y0180904D03*
X0056635Y0179944D03*
X0038395Y0179944D03*
X0076795Y0182704D03*
D120*
X0164755Y0180064D03*
X0164755Y0212104D03*
D121*
X0164695Y0211984D03*
X0164695Y0180184D03*
D122*
X0135715Y0180184D03*
D123*
X0128815Y0193624D03*
X0113815Y0180184D03*
X0112375Y0181024D03*
X0145375Y0188584D03*
X0044575Y0180184D03*
X0043255Y0180424D03*
D124*
X0049015Y0180424D03*
X0049015Y0180184D03*
X0049015Y0180784D03*
X0057415Y0182224D03*
X0044815Y0199024D03*
X0082015Y0182584D03*
X0104815Y0190984D03*
X0120415Y0200224D03*
X0120415Y0201424D03*
X0128815Y0218824D03*
X0144415Y0193624D03*
X0158815Y0198784D03*
D125*
X0164815Y0211864D03*
X0164815Y0180304D03*
X0135775Y0180304D03*
D126*
X0141955Y0189664D03*
X0137155Y0204904D03*
X0151675Y0189664D03*
X0156475Y0202504D03*
X0115555Y0202864D03*
X0114595Y0181744D03*
X0114595Y0181504D03*
X0111715Y0181504D03*
X0111715Y0181744D03*
X0111715Y0181864D03*
X0067195Y0180904D03*
X0061795Y0180304D03*
X0058315Y0180904D03*
X0045355Y0181504D03*
X0045355Y0181744D03*
X0042475Y0181744D03*
X0042475Y0181864D03*
X0042475Y0181504D03*
X0040075Y0180904D03*
D127*
X0164755Y0180424D03*
D128*
X0135775Y0180424D03*
D129*
X0116095Y0205024D03*
X0112495Y0180424D03*
X0043135Y0181024D03*
D130*
X0044695Y0199624D03*
X0031735Y0196624D03*
X0066295Y0180424D03*
X0095095Y0187024D03*
X0100135Y0195784D03*
X0114535Y0191584D03*
D131*
X0114595Y0181624D03*
X0114595Y0181384D03*
X0111715Y0181624D03*
X0111715Y0181984D03*
X0115555Y0202984D03*
X0117955Y0209584D03*
X0061795Y0180424D03*
X0045355Y0181384D03*
X0045355Y0181624D03*
X0042475Y0181624D03*
X0042475Y0181984D03*
X0028555Y0181984D03*
D132*
X0095095Y0188944D03*
X0095095Y0198544D03*
X0109495Y0188944D03*
X0162895Y0180544D03*
D133*
X0135835Y0180544D03*
D134*
X0128875Y0193144D03*
X0140395Y0206704D03*
X0155755Y0204664D03*
X0155275Y0188344D03*
X0115435Y0202504D03*
X0061795Y0180664D03*
X0061795Y0180544D03*
D135*
X0077695Y0191104D03*
X0042535Y0181264D03*
X0042535Y0181144D03*
X0115495Y0202744D03*
D136*
X0155215Y0188224D03*
X0028615Y0181384D03*
D137*
X0028615Y0181504D03*
X0057415Y0182704D03*
D138*
X0056275Y0181984D03*
X0062755Y0181624D03*
X0065155Y0181984D03*
X0087955Y0181984D03*
X0028555Y0182584D03*
D139*
X0028555Y0181624D03*
X0044275Y0200224D03*
X0077755Y0190984D03*
X0115435Y0202624D03*
X0125155Y0214384D03*
X0155755Y0204784D03*
D140*
X0156595Y0202144D03*
X0145435Y0216904D03*
X0145195Y0216544D03*
X0145075Y0216304D03*
X0144955Y0216064D03*
X0144595Y0215464D03*
X0144355Y0215104D03*
X0144235Y0214864D03*
X0143995Y0214264D03*
X0143875Y0214144D03*
X0143155Y0213064D03*
X0143035Y0212704D03*
X0142795Y0212344D03*
X0142675Y0212104D03*
X0142555Y0211864D03*
X0142435Y0211744D03*
X0142195Y0211264D03*
X0142075Y0211144D03*
X0141955Y0210904D03*
X0141835Y0210664D03*
X0141595Y0210304D03*
X0141355Y0209944D03*
X0141235Y0209704D03*
X0140875Y0209104D03*
X0140755Y0208744D03*
X0139675Y0216544D03*
X0140035Y0217144D03*
X0140155Y0217504D03*
X0140395Y0217864D03*
X0140755Y0218344D03*
X0140755Y0218464D03*
X0140875Y0218704D03*
X0140995Y0218944D03*
X0141235Y0219304D03*
X0141475Y0219664D03*
X0141595Y0219904D03*
X0146155Y0220144D03*
X0146035Y0218104D03*
X0145795Y0217504D03*
X0145675Y0217264D03*
X0134875Y0208144D03*
X0129475Y0202864D03*
X0120835Y0202864D03*
X0120955Y0198904D03*
X0105475Y0197344D03*
X0099235Y0197104D03*
X0095035Y0200344D03*
X0100195Y0182704D03*
X0100195Y0182464D03*
X0100195Y0182344D03*
X0100195Y0182104D03*
X0081595Y0200344D03*
X0072355Y0182704D03*
X0072355Y0182464D03*
X0072355Y0182344D03*
X0072355Y0182104D03*
X0053275Y0182104D03*
X0053275Y0182344D03*
X0053275Y0182464D03*
X0053275Y0182704D03*
X0052195Y0190144D03*
X0038995Y0196144D03*
X0031795Y0189904D03*
X0169555Y0195304D03*
X0169795Y0194944D03*
D141*
X0169555Y0195184D03*
X0169795Y0197224D03*
X0159235Y0197824D03*
X0151675Y0190024D03*
X0142075Y0190024D03*
X0140875Y0208984D03*
X0140995Y0209224D03*
X0141355Y0209824D03*
X0141595Y0210184D03*
X0142795Y0212224D03*
X0143035Y0212824D03*
X0143275Y0213184D03*
X0143755Y0214024D03*
X0143995Y0214384D03*
X0144475Y0215224D03*
X0145555Y0217024D03*
X0140635Y0218224D03*
X0137755Y0213184D03*
X0135355Y0217024D03*
X0134275Y0218824D03*
X0129355Y0202984D03*
X0120955Y0202984D03*
X0120955Y0198784D03*
X0100195Y0182584D03*
X0100195Y0182224D03*
X0072355Y0182224D03*
X0072355Y0182584D03*
X0071995Y0190384D03*
X0065035Y0197224D03*
X0053275Y0182584D03*
X0053275Y0182224D03*
X0023635Y0187384D03*
D142*
X0024055Y0182584D03*
X0025495Y0202984D03*
X0039535Y0191584D03*
X0039175Y0182224D03*
X0044935Y0191224D03*
X0052735Y0200224D03*
X0058735Y0203224D03*
X0064495Y0190984D03*
X0066295Y0182224D03*
X0072775Y0192784D03*
X0072775Y0193024D03*
X0072775Y0194584D03*
X0072775Y0194824D03*
X0091975Y0182584D03*
X0105055Y0196984D03*
X0114175Y0190984D03*
X0129895Y0201424D03*
X0134935Y0201184D03*
X0134695Y0198184D03*
X0139495Y0201184D03*
X0139735Y0193384D03*
X0144535Y0203584D03*
X0146455Y0219184D03*
X0146455Y0219784D03*
X0158935Y0198424D03*
X0128935Y0218584D03*
D143*
X0128635Y0219304D03*
X0128635Y0219544D03*
X0128635Y0219664D03*
X0131035Y0223264D03*
X0125155Y0213544D03*
X0125155Y0213304D03*
X0125155Y0213064D03*
X0125155Y0212944D03*
X0125155Y0212704D03*
X0125155Y0212464D03*
X0125155Y0212344D03*
X0125155Y0212104D03*
X0125155Y0211864D03*
X0125155Y0211744D03*
X0125155Y0211504D03*
X0125155Y0211264D03*
X0125155Y0211144D03*
X0125155Y0210904D03*
X0125155Y0210664D03*
X0125155Y0210544D03*
X0125155Y0210304D03*
X0125155Y0210064D03*
X0125155Y0209944D03*
X0125155Y0209704D03*
X0125155Y0209464D03*
X0125155Y0209344D03*
X0125155Y0209104D03*
X0125155Y0208864D03*
X0125155Y0208744D03*
X0125155Y0208504D03*
X0125155Y0208264D03*
X0125155Y0208144D03*
X0125155Y0207904D03*
X0125155Y0207664D03*
X0125155Y0207544D03*
X0125155Y0207304D03*
X0129955Y0201304D03*
X0129955Y0201064D03*
X0129955Y0200944D03*
X0129955Y0200704D03*
X0129955Y0200464D03*
X0129955Y0200344D03*
X0129955Y0200104D03*
X0129955Y0199864D03*
X0129955Y0199744D03*
X0129955Y0199504D03*
X0129955Y0199264D03*
X0129955Y0199144D03*
X0129955Y0198904D03*
X0129955Y0198664D03*
X0129955Y0198544D03*
X0134755Y0198544D03*
X0134755Y0198664D03*
X0134755Y0198904D03*
X0134875Y0200944D03*
X0134875Y0201064D03*
X0139555Y0201064D03*
X0139555Y0200944D03*
X0140395Y0207544D03*
X0144475Y0203344D03*
X0144475Y0203104D03*
X0144475Y0202864D03*
X0144475Y0202744D03*
X0144475Y0202504D03*
X0144475Y0202264D03*
X0144475Y0202144D03*
X0144475Y0201904D03*
X0144475Y0201664D03*
X0144475Y0201544D03*
X0144475Y0201304D03*
X0144475Y0201064D03*
X0144475Y0200944D03*
X0144475Y0200704D03*
X0144475Y0200464D03*
X0144475Y0200344D03*
X0144475Y0200104D03*
X0144475Y0199864D03*
X0144475Y0199744D03*
X0144475Y0199504D03*
X0144475Y0199264D03*
X0144475Y0199144D03*
X0144475Y0198904D03*
X0144475Y0198664D03*
X0144475Y0198544D03*
X0144475Y0198304D03*
X0144475Y0198064D03*
X0144475Y0197944D03*
X0144475Y0197704D03*
X0144475Y0197464D03*
X0144475Y0197344D03*
X0144475Y0197104D03*
X0144475Y0196864D03*
X0144475Y0196744D03*
X0144475Y0196504D03*
X0144475Y0196264D03*
X0144475Y0196144D03*
X0144475Y0195904D03*
X0144475Y0195664D03*
X0144475Y0195544D03*
X0144475Y0195304D03*
X0144475Y0195064D03*
X0144475Y0194944D03*
X0144475Y0194704D03*
X0144475Y0194464D03*
X0144475Y0194344D03*
X0144475Y0194104D03*
X0144475Y0193864D03*
X0139675Y0193504D03*
X0149275Y0193744D03*
X0149275Y0193864D03*
X0149275Y0194104D03*
X0149275Y0194344D03*
X0149275Y0194464D03*
X0149275Y0194704D03*
X0149275Y0194944D03*
X0149275Y0195064D03*
X0149275Y0195304D03*
X0149275Y0195544D03*
X0149275Y0195664D03*
X0149275Y0195904D03*
X0149275Y0196144D03*
X0149275Y0196264D03*
X0149275Y0196504D03*
X0149275Y0196744D03*
X0149275Y0196864D03*
X0149275Y0197104D03*
X0149275Y0197344D03*
X0149275Y0197464D03*
X0149275Y0197704D03*
X0149275Y0197944D03*
X0149275Y0198064D03*
X0149275Y0198304D03*
X0149275Y0198544D03*
X0149275Y0198664D03*
X0149275Y0198904D03*
X0149275Y0199144D03*
X0149275Y0199264D03*
X0149275Y0199504D03*
X0149275Y0199744D03*
X0149275Y0199864D03*
X0149275Y0200104D03*
X0149275Y0200344D03*
X0149275Y0200464D03*
X0149275Y0200704D03*
X0149275Y0200944D03*
X0149275Y0201064D03*
X0149275Y0201304D03*
X0149275Y0201544D03*
X0149275Y0201664D03*
X0149275Y0201904D03*
X0149275Y0202144D03*
X0149275Y0202264D03*
X0149275Y0202504D03*
X0149275Y0202744D03*
X0149275Y0202864D03*
X0149275Y0203104D03*
X0154075Y0198304D03*
X0154075Y0198064D03*
X0154075Y0197944D03*
X0154075Y0197704D03*
X0154075Y0197464D03*
X0154075Y0197344D03*
X0154075Y0197104D03*
X0154075Y0196864D03*
X0154075Y0196744D03*
X0154075Y0196504D03*
X0154075Y0196264D03*
X0154075Y0196144D03*
X0154075Y0195904D03*
X0154075Y0195664D03*
X0154075Y0195544D03*
X0154075Y0195304D03*
X0154075Y0195064D03*
X0154075Y0194944D03*
X0154075Y0194704D03*
X0154075Y0194464D03*
X0154075Y0194344D03*
X0154075Y0194104D03*
X0154075Y0193864D03*
X0154075Y0193744D03*
X0120355Y0200704D03*
X0120355Y0200944D03*
X0120355Y0201064D03*
X0114475Y0191344D03*
X0114355Y0191104D03*
X0104635Y0196144D03*
X0104635Y0196264D03*
X0100075Y0195904D03*
X0095035Y0200464D03*
X0086755Y0182344D03*
X0076795Y0182344D03*
X0077755Y0190504D03*
X0081595Y0200464D03*
X0058795Y0203464D03*
X0031795Y0196744D03*
D144*
X0044695Y0199504D03*
X0066295Y0182344D03*
X0086695Y0195544D03*
X0086695Y0195664D03*
X0092095Y0182704D03*
X0100135Y0195664D03*
X0104335Y0195664D03*
X0104335Y0195544D03*
X0114535Y0191464D03*
D145*
X0104575Y0191344D03*
X0104455Y0195904D03*
X0100255Y0195544D03*
X0091255Y0190504D03*
X0086815Y0192304D03*
X0086815Y0195304D03*
X0086575Y0195904D03*
X0057415Y0182344D03*
X0048775Y0187144D03*
X0039175Y0182344D03*
X0031615Y0196504D03*
X0025615Y0203344D03*
X0124615Y0194704D03*
X0134815Y0199144D03*
X0134815Y0199264D03*
X0134815Y0199504D03*
X0134815Y0199744D03*
X0134815Y0199864D03*
X0134815Y0200104D03*
X0134815Y0200344D03*
X0134815Y0200464D03*
X0134815Y0200704D03*
X0139615Y0200704D03*
X0139615Y0200464D03*
X0139615Y0200344D03*
X0139615Y0200104D03*
X0139615Y0199864D03*
X0139615Y0199744D03*
X0139615Y0199504D03*
X0139615Y0199264D03*
X0139615Y0199144D03*
X0139615Y0198904D03*
X0139615Y0198664D03*
X0139615Y0198544D03*
X0139615Y0198304D03*
X0139615Y0198064D03*
X0139615Y0197944D03*
X0139615Y0197704D03*
X0139615Y0197464D03*
X0139615Y0197344D03*
X0139615Y0197104D03*
X0139615Y0196864D03*
X0139615Y0196744D03*
X0139615Y0196504D03*
X0139615Y0196264D03*
X0139615Y0196144D03*
X0139615Y0195904D03*
X0139615Y0195664D03*
X0139615Y0195544D03*
X0139615Y0195304D03*
X0139615Y0195064D03*
X0139615Y0194944D03*
X0139615Y0194704D03*
X0139615Y0194464D03*
X0139615Y0194344D03*
X0139615Y0194104D03*
X0139615Y0193864D03*
X0139615Y0193744D03*
X0134815Y0207304D03*
X0125215Y0213664D03*
X0171175Y0198664D03*
X0172015Y0200344D03*
D146*
X0132355Y0194584D03*
X0066355Y0182584D03*
X0057475Y0182584D03*
D147*
X0039235Y0182584D03*
X0115195Y0201424D03*
D148*
X0115375Y0202144D03*
X0115375Y0202264D03*
X0066295Y0182704D03*
X0039175Y0182704D03*
D149*
X0038635Y0197704D03*
X0035635Y0200344D03*
X0065155Y0190144D03*
X0077875Y0190144D03*
X0080035Y0195304D03*
X0079795Y0195544D03*
X0079675Y0195664D03*
X0079435Y0195904D03*
X0079075Y0196264D03*
X0078835Y0196504D03*
X0078595Y0196744D03*
X0078475Y0196864D03*
X0078235Y0197104D03*
X0077995Y0197344D03*
X0080635Y0194704D03*
X0080875Y0194464D03*
X0080995Y0194344D03*
X0081475Y0193864D03*
X0081595Y0193744D03*
X0081835Y0193504D03*
X0082075Y0193264D03*
X0082195Y0193144D03*
X0083035Y0192304D03*
X0085435Y0197344D03*
X0091675Y0197104D03*
X0091915Y0196864D03*
X0092035Y0196744D03*
X0092275Y0196504D03*
X0092515Y0196264D03*
X0092635Y0196144D03*
X0093475Y0195304D03*
X0094075Y0194704D03*
X0095155Y0187144D03*
X0081595Y0187144D03*
X0109435Y0187144D03*
X0113155Y0189904D03*
X0121195Y0198544D03*
X0121075Y0198664D03*
X0129115Y0203344D03*
X0132355Y0194944D03*
X0137635Y0213304D03*
X0141835Y0220144D03*
X0159475Y0197704D03*
D150*
X0121315Y0198304D03*
X0085315Y0197464D03*
X0085315Y0190144D03*
X0035515Y0187144D03*
D151*
X0024175Y0188104D03*
X0085255Y0190504D03*
X0095095Y0187264D03*
X0098695Y0190504D03*
X0098335Y0197704D03*
X0109495Y0187264D03*
X0121855Y0197944D03*
X0125095Y0206944D03*
D152*
X0119035Y0207064D03*
X0124195Y0195304D03*
X0137635Y0213904D03*
X0098395Y0189904D03*
X0084835Y0197704D03*
X0081595Y0187264D03*
X0078235Y0189904D03*
X0065635Y0189904D03*
D153*
X0068575Y0187264D03*
X0079255Y0196144D03*
X0080455Y0194944D03*
X0082855Y0192544D03*
X0093175Y0195664D03*
X0093775Y0195064D03*
X0094375Y0194464D03*
X0094975Y0193864D03*
X0095575Y0193264D03*
X0096175Y0192664D03*
X0121255Y0203344D03*
X0121255Y0203464D03*
X0124375Y0195064D03*
X0129055Y0203464D03*
X0045655Y0189904D03*
X0038815Y0195904D03*
X0031855Y0191704D03*
X0023815Y0187504D03*
D154*
X0039115Y0190144D03*
X0048715Y0187264D03*
X0113515Y0190144D03*
X0118315Y0208264D03*
X0131515Y0213664D03*
X0141115Y0209464D03*
X0141115Y0209344D03*
X0142315Y0211504D03*
X0142915Y0212464D03*
X0143515Y0213544D03*
X0144115Y0214504D03*
X0144715Y0215704D03*
X0145315Y0216664D03*
X0145915Y0217744D03*
X0141115Y0219064D03*
D155*
X0144055Y0222664D03*
X0134815Y0209344D03*
X0091855Y0197704D03*
X0068575Y0200104D03*
X0035575Y0187264D03*
D156*
X0095095Y0187384D03*
X0109495Y0187384D03*
X0137695Y0214384D03*
D157*
X0081655Y0187384D03*
X0024415Y0189424D03*
X0024415Y0189784D03*
X0024415Y0199384D03*
X0024415Y0199624D03*
X0024415Y0199984D03*
D158*
X0068515Y0187384D03*
X0098755Y0190384D03*
X0106315Y0197824D03*
X0118915Y0207184D03*
X0119275Y0206824D03*
X0144115Y0222784D03*
D159*
X0137695Y0213784D03*
X0124255Y0195184D03*
X0106135Y0189784D03*
X0091615Y0197584D03*
X0085255Y0190384D03*
X0068575Y0200224D03*
X0048775Y0187384D03*
X0024775Y0198184D03*
D160*
X0032755Y0192184D03*
X0035515Y0187384D03*
X0068515Y0187624D03*
X0098515Y0191224D03*
D161*
X0109435Y0187504D03*
X0131035Y0222304D03*
X0081595Y0187504D03*
D162*
X0095095Y0187504D03*
X0134815Y0209944D03*
X0137695Y0214864D03*
X0144055Y0222304D03*
X0142015Y0190744D03*
D163*
X0144115Y0222544D03*
X0068515Y0187504D03*
D164*
X0048775Y0187504D03*
X0032455Y0192064D03*
X0024415Y0189664D03*
X0024415Y0189544D03*
X0024415Y0189304D03*
X0024415Y0199504D03*
X0024415Y0199744D03*
X0024415Y0199864D03*
X0024415Y0200104D03*
X0122215Y0204064D03*
X0134815Y0209464D03*
X0137215Y0204064D03*
D165*
X0068515Y0187864D03*
X0035515Y0187504D03*
D166*
X0084895Y0191584D03*
X0095095Y0187624D03*
X0109495Y0187624D03*
X0123535Y0196384D03*
X0137695Y0215224D03*
X0151735Y0190984D03*
D167*
X0153235Y0221224D03*
X0098395Y0191584D03*
X0081595Y0187624D03*
D168*
X0085015Y0191224D03*
X0048775Y0187624D03*
X0123775Y0196024D03*
X0134815Y0209824D03*
X0137215Y0203824D03*
X0146815Y0206224D03*
X0156535Y0201424D03*
D169*
X0151675Y0191584D03*
X0146875Y0205384D03*
X0098155Y0192184D03*
X0084715Y0192184D03*
X0068515Y0187984D03*
X0035515Y0187624D03*
D170*
X0031975Y0191824D03*
X0023935Y0187624D03*
X0085135Y0197584D03*
X0091495Y0190024D03*
X0098695Y0190024D03*
X0098575Y0197584D03*
X0121495Y0198184D03*
X0156535Y0202024D03*
X0162295Y0194584D03*
D171*
X0155275Y0187864D03*
X0155275Y0187744D03*
X0155755Y0205144D03*
X0155755Y0205264D03*
X0145315Y0187744D03*
X0125155Y0214264D03*
X0059155Y0203944D03*
D172*
X0084715Y0192064D03*
X0109555Y0187744D03*
X0142075Y0191464D03*
X0146875Y0205504D03*
X0151675Y0191464D03*
X0156475Y0200704D03*
X0161755Y0195664D03*
D173*
X0151735Y0191344D03*
X0137695Y0215704D03*
X0131095Y0221704D03*
X0144175Y0221704D03*
X0153535Y0220504D03*
X0095095Y0199744D03*
X0095095Y0187744D03*
X0084775Y0191944D03*
X0048775Y0187864D03*
D174*
X0081595Y0187744D03*
X0081595Y0199744D03*
D175*
X0068455Y0187744D03*
X0048775Y0187744D03*
X0134815Y0210304D03*
X0146815Y0205864D03*
D176*
X0146815Y0204904D03*
X0142015Y0192064D03*
X0137215Y0202504D03*
X0132415Y0197104D03*
X0132415Y0196864D03*
X0161455Y0196744D03*
X0035455Y0187744D03*
D177*
X0023995Y0187744D03*
X0024835Y0198064D03*
D178*
X0025975Y0203944D03*
X0091255Y0190864D03*
X0115255Y0201664D03*
X0117895Y0209464D03*
X0134815Y0206944D03*
X0145255Y0187864D03*
D179*
X0132295Y0196744D03*
X0137695Y0216064D03*
X0144175Y0221344D03*
X0156535Y0200344D03*
X0161575Y0196264D03*
X0161575Y0196144D03*
X0109495Y0187864D03*
X0095095Y0187864D03*
X0033535Y0192544D03*
D180*
X0081595Y0187864D03*
X0131035Y0221344D03*
X0131035Y0221464D03*
D181*
X0144115Y0220504D03*
X0068515Y0199264D03*
X0035515Y0187864D03*
D182*
X0038515Y0189664D03*
X0032155Y0191944D03*
X0024115Y0187864D03*
X0024715Y0198304D03*
X0084955Y0189904D03*
X0091675Y0189904D03*
X0119155Y0206944D03*
X0146875Y0206704D03*
D183*
X0134815Y0206824D03*
X0115255Y0201784D03*
X0155215Y0187984D03*
D184*
X0151735Y0192184D03*
X0156535Y0199984D03*
X0131095Y0220984D03*
X0109495Y0187984D03*
D185*
X0095035Y0187984D03*
X0081595Y0187984D03*
X0068515Y0188224D03*
X0068515Y0199384D03*
X0137635Y0216424D03*
X0144115Y0220984D03*
X0146875Y0204784D03*
X0146875Y0204424D03*
X0142075Y0192424D03*
X0151675Y0192424D03*
X0161395Y0196984D03*
D186*
X0156535Y0200224D03*
X0151735Y0191824D03*
X0137695Y0216184D03*
X0132295Y0196624D03*
X0095095Y0199624D03*
X0081535Y0199624D03*
X0048775Y0187984D03*
X0035575Y0199624D03*
D187*
X0035455Y0187984D03*
X0081655Y0188224D03*
X0095095Y0188224D03*
X0109495Y0188224D03*
D188*
X0124135Y0195424D03*
X0128575Y0203824D03*
X0137695Y0214024D03*
X0035575Y0200224D03*
X0024655Y0198424D03*
X0024175Y0187984D03*
D189*
X0145315Y0188104D03*
D190*
X0109495Y0188104D03*
X0095095Y0188104D03*
X0068455Y0188344D03*
D191*
X0081595Y0188104D03*
X0131155Y0220744D03*
X0132355Y0197704D03*
X0142075Y0192904D03*
X0142075Y0192664D03*
X0146875Y0204064D03*
X0151675Y0192904D03*
X0156475Y0199264D03*
D192*
X0161515Y0196504D03*
X0144115Y0221104D03*
X0068515Y0188104D03*
D193*
X0048775Y0188104D03*
X0132415Y0197344D03*
X0132415Y0197464D03*
X0137215Y0201664D03*
X0137215Y0201904D03*
X0137215Y0202144D03*
X0142015Y0192544D03*
X0144055Y0220744D03*
X0144055Y0220864D03*
D194*
X0068515Y0198904D03*
X0036115Y0194464D03*
X0035515Y0188104D03*
D195*
X0145315Y0188224D03*
D196*
X0144055Y0220384D03*
X0048775Y0188224D03*
X0035575Y0199384D03*
D197*
X0035755Y0194224D03*
X0034795Y0193384D03*
X0035515Y0188224D03*
X0048835Y0188584D03*
X0068515Y0198784D03*
X0081595Y0199024D03*
D198*
X0085195Y0190624D03*
X0098155Y0189784D03*
X0132355Y0195184D03*
X0137155Y0204184D03*
X0134755Y0209224D03*
X0151675Y0190384D03*
X0024235Y0188224D03*
D199*
X0035935Y0194344D03*
X0095095Y0199144D03*
X0095095Y0188464D03*
X0109495Y0188344D03*
D200*
X0095035Y0188344D03*
X0081595Y0188344D03*
X0081595Y0199144D03*
X0034435Y0193144D03*
D201*
X0048835Y0188344D03*
X0081595Y0199264D03*
X0095035Y0199264D03*
D202*
X0068515Y0198664D03*
X0068515Y0198544D03*
X0035515Y0188344D03*
D203*
X0024295Y0188344D03*
X0024295Y0188464D03*
X0024535Y0198664D03*
X0137695Y0214144D03*
X0137695Y0214264D03*
D204*
X0111895Y0200344D03*
X0109495Y0188464D03*
X0035335Y0193864D03*
D205*
X0035515Y0198904D03*
X0081595Y0188464D03*
D206*
X0068455Y0188464D03*
X0035575Y0199264D03*
D207*
X0034615Y0193264D03*
X0048775Y0188464D03*
X0068455Y0188704D03*
D208*
X0068515Y0189064D03*
X0035515Y0188464D03*
D209*
X0109495Y0188584D03*
D210*
X0095035Y0188584D03*
X0081595Y0188584D03*
X0035035Y0193624D03*
D211*
X0068455Y0188584D03*
D212*
X0035515Y0188584D03*
X0035515Y0198424D03*
D213*
X0024535Y0198784D03*
X0024295Y0188584D03*
X0098695Y0190624D03*
X0156535Y0201784D03*
D214*
X0109495Y0188704D03*
X0095095Y0188704D03*
X0048775Y0188944D03*
X0035575Y0198544D03*
D215*
X0081595Y0188704D03*
X0111595Y0200104D03*
D216*
X0048835Y0188704D03*
X0035155Y0193744D03*
D217*
X0035515Y0188704D03*
X0068515Y0198064D03*
D218*
X0085195Y0190744D03*
X0098635Y0190744D03*
X0124075Y0195544D03*
X0132355Y0195304D03*
X0142075Y0190504D03*
X0151675Y0190504D03*
X0162235Y0194704D03*
X0146875Y0206464D03*
X0153235Y0222064D03*
X0131035Y0222664D03*
X0038155Y0195544D03*
X0024475Y0198904D03*
X0024475Y0199144D03*
X0024475Y0199264D03*
X0024355Y0189064D03*
X0024355Y0188944D03*
X0024355Y0188704D03*
D219*
X0155215Y0188824D03*
D220*
X0109495Y0188824D03*
X0095095Y0188824D03*
X0068575Y0198184D03*
D221*
X0081595Y0188824D03*
X0048835Y0189184D03*
D222*
X0035455Y0193984D03*
X0035575Y0198784D03*
X0068455Y0188824D03*
D223*
X0048835Y0188824D03*
D224*
X0035455Y0188824D03*
X0068455Y0189424D03*
X0111415Y0199984D03*
D225*
X0024475Y0200224D03*
X0024475Y0199024D03*
X0024355Y0189184D03*
X0024355Y0188824D03*
D226*
X0035515Y0197944D03*
X0068515Y0197944D03*
X0081595Y0198544D03*
X0081595Y0188944D03*
X0111355Y0199864D03*
D227*
X0095095Y0198904D03*
X0081655Y0198904D03*
X0068455Y0188944D03*
X0035575Y0198664D03*
D228*
X0035455Y0189064D03*
X0035455Y0188944D03*
X0048775Y0189544D03*
X0068455Y0189664D03*
D229*
X0081595Y0189064D03*
X0111235Y0199744D03*
X0048835Y0189664D03*
D230*
X0048775Y0189064D03*
X0035575Y0198304D03*
X0068455Y0189304D03*
X0095095Y0198664D03*
D231*
X0081535Y0189184D03*
X0109495Y0189184D03*
X0035455Y0189184D03*
D232*
X0081595Y0198424D03*
X0095035Y0189184D03*
D233*
X0095095Y0198784D03*
X0081655Y0198784D03*
X0068455Y0189184D03*
D234*
X0081535Y0189304D03*
X0095095Y0189304D03*
X0109495Y0189304D03*
X0111055Y0199504D03*
D235*
X0068455Y0189544D03*
X0048775Y0189304D03*
X0035575Y0198064D03*
D236*
X0035515Y0189304D03*
D237*
X0035455Y0189424D03*
X0081535Y0198184D03*
X0095095Y0198184D03*
X0109495Y0189424D03*
D238*
X0095035Y0189424D03*
D239*
X0068515Y0197824D03*
X0048835Y0189424D03*
D240*
X0035455Y0189544D03*
X0081535Y0198064D03*
X0109495Y0189544D03*
D241*
X0110875Y0199264D03*
X0095035Y0197944D03*
X0095035Y0189544D03*
D242*
X0081535Y0189544D03*
X0081535Y0197944D03*
D243*
X0106255Y0189664D03*
X0112735Y0189664D03*
X0119335Y0206704D03*
X0118855Y0207304D03*
X0134815Y0208744D03*
X0134815Y0208864D03*
X0137215Y0204304D03*
X0156535Y0201904D03*
D244*
X0128815Y0203704D03*
X0118615Y0207664D03*
X0032215Y0189664D03*
D245*
X0142015Y0189784D03*
X0155815Y0205384D03*
D246*
X0121675Y0203824D03*
X0112915Y0189784D03*
X0078115Y0197584D03*
X0051715Y0189784D03*
X0045955Y0189784D03*
D247*
X0078415Y0189784D03*
X0091855Y0189784D03*
X0121975Y0197824D03*
X0146815Y0206584D03*
X0153175Y0222184D03*
D248*
X0084715Y0189784D03*
D249*
X0068455Y0189784D03*
X0035575Y0197824D03*
D250*
X0038755Y0189784D03*
X0077995Y0190024D03*
X0118555Y0207784D03*
X0121435Y0203584D03*
X0128875Y0203584D03*
D251*
X0141175Y0209584D03*
X0142015Y0211024D03*
X0142255Y0211384D03*
X0142375Y0211624D03*
X0142615Y0211984D03*
X0142975Y0212584D03*
X0143455Y0213424D03*
X0143575Y0213784D03*
X0144655Y0215584D03*
X0145015Y0216184D03*
X0145375Y0216784D03*
X0145855Y0217624D03*
X0141655Y0220024D03*
X0141175Y0219184D03*
X0140815Y0218584D03*
X0140455Y0217984D03*
X0139855Y0216784D03*
X0169615Y0196984D03*
X0169255Y0196384D03*
X0169375Y0195424D03*
X0105655Y0190024D03*
X0099055Y0197224D03*
X0085615Y0197224D03*
X0039055Y0190024D03*
X0031975Y0189784D03*
D252*
X0032635Y0197704D03*
X0024955Y0197944D03*
X0077995Y0197464D03*
X0091435Y0197464D03*
X0098755Y0197464D03*
X0098755Y0190144D03*
X0105955Y0189904D03*
X0134755Y0208504D03*
X0137635Y0213544D03*
X0142075Y0190144D03*
X0151675Y0190144D03*
D253*
X0071215Y0189904D03*
D254*
X0025135Y0189904D03*
X0124495Y0194944D03*
X0129295Y0203104D03*
X0141535Y0210064D03*
X0143335Y0213304D03*
X0143695Y0213904D03*
X0144535Y0215344D03*
X0144895Y0215944D03*
X0140335Y0217744D03*
X0140095Y0217264D03*
X0139735Y0216664D03*
X0146935Y0206944D03*
X0169135Y0196264D03*
X0169135Y0196144D03*
X0169135Y0195904D03*
D255*
X0169135Y0195784D03*
X0169135Y0196024D03*
X0145735Y0217384D03*
X0144295Y0214984D03*
X0141895Y0210784D03*
X0140095Y0217384D03*
X0140935Y0218824D03*
X0141535Y0219784D03*
X0121135Y0203224D03*
X0113335Y0190024D03*
X0071935Y0197224D03*
X0045535Y0190024D03*
X0038935Y0196024D03*
X0032335Y0197584D03*
X0031735Y0191584D03*
D256*
X0038635Y0195784D03*
X0065635Y0197584D03*
X0071395Y0197584D03*
X0085195Y0190024D03*
X0118795Y0207424D03*
D257*
X0071515Y0190024D03*
D258*
X0065335Y0190024D03*
X0137695Y0213424D03*
D259*
X0131035Y0223024D03*
X0129235Y0203224D03*
X0118435Y0208024D03*
X0105835Y0197584D03*
X0092755Y0196024D03*
X0092395Y0196384D03*
X0092155Y0196624D03*
X0091795Y0196984D03*
X0091555Y0197224D03*
X0082555Y0192784D03*
X0081955Y0193384D03*
X0081115Y0194224D03*
X0080755Y0194584D03*
X0080515Y0194824D03*
X0080155Y0195184D03*
X0079915Y0195424D03*
X0079555Y0195784D03*
X0079315Y0196024D03*
X0078955Y0196384D03*
X0078715Y0196624D03*
X0078355Y0196984D03*
X0078115Y0197224D03*
X0052075Y0190024D03*
X0144115Y0223024D03*
X0169315Y0196624D03*
D260*
X0169255Y0196504D03*
X0169375Y0196744D03*
X0169375Y0196864D03*
X0169255Y0195664D03*
X0169255Y0195544D03*
X0143575Y0213664D03*
X0144175Y0214744D03*
X0139855Y0216904D03*
X0140575Y0218104D03*
X0140815Y0208864D03*
X0137215Y0204544D03*
X0134815Y0208264D03*
X0133255Y0220264D03*
X0121015Y0203104D03*
X0118375Y0208144D03*
X0105655Y0197464D03*
X0091375Y0190144D03*
X0071815Y0190264D03*
X0071815Y0197344D03*
X0068575Y0200344D03*
X0065215Y0197344D03*
X0045415Y0190144D03*
D261*
X0085315Y0190264D03*
X0098755Y0190264D03*
X0118675Y0207544D03*
X0125155Y0207064D03*
X0121555Y0198064D03*
X0132355Y0195064D03*
X0141955Y0190264D03*
X0151675Y0190264D03*
D262*
X0141835Y0190384D03*
X0131035Y0222784D03*
X0095035Y0200224D03*
X0081595Y0200224D03*
D263*
X0085135Y0190984D03*
X0098575Y0190984D03*
X0123895Y0195784D03*
X0137695Y0214624D03*
X0144055Y0222424D03*
X0151735Y0190624D03*
X0068575Y0199984D03*
D264*
X0125215Y0206824D03*
X0134815Y0209584D03*
X0142015Y0190624D03*
D265*
X0151675Y0190744D03*
X0146875Y0206344D03*
X0132355Y0195544D03*
X0098515Y0191104D03*
X0085075Y0191104D03*
D266*
X0123715Y0196144D03*
X0125155Y0206704D03*
X0132355Y0195664D03*
X0151675Y0190864D03*
X0162115Y0195064D03*
D267*
X0142015Y0190864D03*
X0137215Y0203704D03*
X0134815Y0210064D03*
X0085015Y0191344D03*
D268*
X0081595Y0200104D03*
X0098635Y0190864D03*
X0123955Y0195664D03*
X0137635Y0214504D03*
X0131035Y0222544D03*
X0153235Y0221944D03*
X0156475Y0201544D03*
X0035635Y0200104D03*
D269*
X0085135Y0190864D03*
X0095095Y0200104D03*
X0128095Y0204064D03*
X0156535Y0201664D03*
D270*
X0162055Y0195184D03*
X0142015Y0190984D03*
X0137215Y0203584D03*
D271*
X0137155Y0203464D03*
X0132355Y0195904D03*
X0123355Y0196744D03*
X0131035Y0221944D03*
X0131035Y0222064D03*
X0142075Y0191104D03*
X0151675Y0191104D03*
X0161995Y0195304D03*
X0153835Y0220144D03*
X0153235Y0221344D03*
X0081595Y0199864D03*
X0032995Y0192304D03*
D272*
X0033235Y0192424D03*
X0084835Y0191824D03*
X0098275Y0191824D03*
X0131035Y0221824D03*
X0151675Y0191224D03*
X0153835Y0220024D03*
X0153475Y0220624D03*
D273*
X0153655Y0220384D03*
X0142015Y0191224D03*
X0132415Y0196024D03*
X0134815Y0210424D03*
X0122815Y0197584D03*
X0123415Y0196624D03*
D274*
X0077695Y0191224D03*
D275*
X0098215Y0191944D03*
X0132415Y0196144D03*
X0132415Y0196264D03*
X0134815Y0210664D03*
X0142015Y0191344D03*
D276*
X0146935Y0206104D03*
X0156535Y0201304D03*
X0153175Y0221704D03*
X0137695Y0215104D03*
X0123655Y0196264D03*
X0098455Y0191344D03*
D277*
X0098395Y0191464D03*
X0084955Y0191464D03*
X0037675Y0195304D03*
X0153235Y0221464D03*
D278*
X0156535Y0200584D03*
X0160975Y0197584D03*
X0142015Y0191584D03*
X0137215Y0202984D03*
X0134815Y0210784D03*
D279*
X0137275Y0202864D03*
X0132355Y0196504D03*
X0142075Y0191704D03*
X0146875Y0205264D03*
X0151675Y0191704D03*
X0156475Y0200464D03*
X0068515Y0199504D03*
X0037075Y0195064D03*
D280*
X0084895Y0191704D03*
X0098335Y0191704D03*
X0122935Y0197464D03*
X0123295Y0196864D03*
X0137695Y0215464D03*
X0153295Y0221104D03*
X0156535Y0201064D03*
D281*
X0164035Y0194464D03*
X0116155Y0205504D03*
X0091195Y0191704D03*
X0058675Y0204064D03*
D282*
X0134815Y0211024D03*
X0137215Y0202624D03*
X0142015Y0191824D03*
D283*
X0091195Y0191824D03*
X0077755Y0191824D03*
D284*
X0131035Y0221104D03*
X0134755Y0211264D03*
X0142075Y0191944D03*
X0151675Y0191944D03*
X0161155Y0197344D03*
X0161155Y0197464D03*
D285*
X0161335Y0197104D03*
X0156535Y0200104D03*
X0151735Y0192064D03*
X0137695Y0216304D03*
X0036895Y0194944D03*
D286*
X0035575Y0199744D03*
X0098215Y0192064D03*
X0134815Y0210904D03*
X0137575Y0215944D03*
X0137215Y0203104D03*
X0144175Y0221464D03*
X0161695Y0195904D03*
D287*
X0161455Y0196624D03*
X0161215Y0197224D03*
X0142015Y0192184D03*
X0137215Y0202384D03*
X0132415Y0197224D03*
X0132415Y0196984D03*
D288*
X0137275Y0202264D03*
X0142075Y0192304D03*
X0146875Y0204544D03*
X0146875Y0204664D03*
X0151675Y0192304D03*
X0156475Y0199864D03*
X0161395Y0196864D03*
X0131155Y0220864D03*
X0081595Y0199504D03*
X0035515Y0199504D03*
X0033715Y0192664D03*
D289*
X0081415Y0193984D03*
X0081775Y0193624D03*
X0082375Y0193024D03*
X0082975Y0192424D03*
X0093055Y0195784D03*
X0093415Y0195424D03*
X0093655Y0195184D03*
X0094015Y0194824D03*
X0094255Y0194584D03*
X0094615Y0194224D03*
X0094855Y0193984D03*
X0095215Y0193624D03*
X0095455Y0193384D03*
X0095815Y0193024D03*
X0096055Y0192784D03*
X0096415Y0192424D03*
X0121255Y0198424D03*
X0134815Y0208384D03*
D290*
X0146935Y0204304D03*
X0151735Y0192664D03*
X0151735Y0192544D03*
X0156535Y0199504D03*
X0156535Y0199744D03*
X0095095Y0199504D03*
D291*
X0115015Y0193264D03*
X0128815Y0192664D03*
X0128815Y0192544D03*
X0134815Y0207064D03*
D292*
X0131155Y0220624D03*
X0146875Y0204184D03*
X0142075Y0192784D03*
X0151675Y0192784D03*
X0156475Y0199384D03*
X0112435Y0200584D03*
X0095035Y0199384D03*
X0081595Y0199384D03*
X0033955Y0192784D03*
D293*
X0034075Y0192904D03*
X0036475Y0194704D03*
X0068515Y0199144D03*
D294*
X0129715Y0216784D03*
X0139915Y0217024D03*
X0144115Y0214624D03*
X0141715Y0210424D03*
X0144115Y0193024D03*
D295*
X0068515Y0199024D03*
X0034315Y0193024D03*
D296*
X0034855Y0193504D03*
X0035575Y0194104D03*
D297*
X0036235Y0194584D03*
D298*
X0132475Y0195424D03*
X0162235Y0194824D03*
D299*
X0137215Y0201784D03*
X0137215Y0202024D03*
X0132415Y0197584D03*
X0036655Y0194824D03*
D300*
X0162175Y0194944D03*
D301*
X0156535Y0200824D03*
X0137695Y0215584D03*
X0123175Y0197224D03*
X0037255Y0195184D03*
D302*
X0123295Y0196984D03*
X0153295Y0220984D03*
X0161935Y0195424D03*
D303*
X0037915Y0195424D03*
D304*
X0122995Y0197344D03*
X0123235Y0197104D03*
X0146875Y0205744D03*
X0156475Y0200944D03*
X0161875Y0195544D03*
X0153475Y0220744D03*
D305*
X0134755Y0209104D03*
X0128395Y0203944D03*
X0078355Y0197704D03*
X0038395Y0195664D03*
X0024595Y0198544D03*
D306*
X0068515Y0199624D03*
X0132475Y0196384D03*
X0144115Y0221584D03*
X0161755Y0195784D03*
D307*
X0132415Y0195784D03*
D308*
X0123835Y0195904D03*
X0122395Y0197704D03*
X0137635Y0214744D03*
D309*
X0161635Y0196024D03*
D310*
X0152635Y0219904D03*
X0140395Y0206944D03*
X0115195Y0201544D03*
X0044395Y0200104D03*
X0031435Y0196264D03*
D311*
X0144115Y0221224D03*
X0161515Y0196384D03*
D312*
X0137695Y0215344D03*
X0123535Y0196504D03*
X0095095Y0199864D03*
D313*
X0160675Y0214144D03*
X0168715Y0197344D03*
D314*
X0068515Y0197704D03*
D315*
X0095035Y0197824D03*
X0125155Y0204184D03*
D316*
X0095035Y0198064D03*
D317*
X0035515Y0198184D03*
D318*
X0081535Y0198304D03*
X0095095Y0198304D03*
D319*
X0068515Y0198304D03*
D320*
X0095095Y0198424D03*
D321*
X0111715Y0200224D03*
X0068515Y0198424D03*
D322*
X0110515Y0198664D03*
X0123715Y0205744D03*
D323*
X0081595Y0198664D03*
D324*
X0110575Y0198784D03*
X0123535Y0205984D03*
X0123895Y0205624D03*
X0124135Y0205384D03*
D325*
X0124555Y0204904D03*
X0124675Y0204664D03*
X0124795Y0204544D03*
X0122875Y0206464D03*
X0110635Y0198904D03*
D326*
X0095095Y0199024D03*
D327*
X0035575Y0199024D03*
D328*
X0035575Y0199144D03*
X0112135Y0200464D03*
D329*
X0156535Y0199624D03*
D330*
X0111115Y0199624D03*
D331*
X0134815Y0210544D03*
X0137215Y0203344D03*
X0144175Y0221944D03*
X0153415Y0220864D03*
X0153775Y0220264D03*
X0068575Y0199744D03*
X0035575Y0199864D03*
D332*
X0068515Y0199864D03*
X0144115Y0222064D03*
D333*
X0095035Y0199984D03*
X0081595Y0199984D03*
D334*
X0035575Y0199984D03*
X0131095Y0222184D03*
X0137695Y0214984D03*
X0144055Y0222184D03*
X0153175Y0221824D03*
X0153175Y0221584D03*
X0146935Y0205984D03*
D335*
X0156475Y0201184D03*
X0134755Y0210184D03*
D336*
X0134815Y0211144D03*
X0137215Y0202744D03*
X0146815Y0205144D03*
D337*
X0146815Y0205624D03*
X0137215Y0203224D03*
D338*
X0137695Y0213664D03*
X0130975Y0222904D03*
X0121495Y0203704D03*
X0144175Y0222904D03*
D339*
X0134815Y0209704D03*
X0137215Y0203944D03*
D340*
X0121915Y0203944D03*
X0153115Y0222304D03*
D341*
X0146815Y0206824D03*
X0137215Y0204424D03*
X0134815Y0208624D03*
D342*
X0124975Y0204424D03*
X0122815Y0206584D03*
D343*
X0124615Y0204784D03*
D344*
X0131035Y0221224D03*
X0146875Y0205024D03*
D345*
X0124435Y0205024D03*
X0123235Y0206224D03*
D346*
X0123055Y0206344D03*
X0123655Y0205864D03*
X0124255Y0205264D03*
X0124375Y0205144D03*
D347*
X0116155Y0205384D03*
X0153715Y0222424D03*
D348*
X0124015Y0205504D03*
X0123415Y0206104D03*
D349*
X0116215Y0205624D03*
D350*
X0116215Y0205744D03*
D351*
X0134815Y0208984D03*
D352*
X0164755Y0211624D03*
D353*
X0164755Y0211744D03*
D354*
X0164695Y0212224D03*
D355*
X0164815Y0212344D03*
X0164815Y0212464D03*
D356*
X0137635Y0215824D03*
X0131035Y0221584D03*
D357*
X0144115Y0223264D03*
X0146515Y0219544D03*
X0146515Y0219304D03*
D358*
X0143995Y0220264D03*
D359*
X0150115Y0220384D03*
D360*
X0131215Y0220384D03*
D361*
X0131215Y0220504D03*
D362*
X0144115Y0220624D03*
D363*
X0144115Y0221824D03*
D364*
X0150175Y0221944D03*
D365*
X0131035Y0222424D03*
M02*
