G75*
%MOIN*%
%OFA0B0*%
%FSLAX25Y25*%
%IPPOS*%
%LPD*%
%AMOC8*
5,1,8,0,0,1.08239X$1,22.5*
%
%ADD10C,0.08907*%
%ADD11R,0.04931X0.04537*%
%ADD12R,0.04537X0.04931*%
%ADD13C,0.01600*%
%ADD14R,0.10900X0.10900*%
%ADD15R,0.10443X0.05324*%
%ADD16R,0.03750X0.03750*%
%ADD17R,0.06899X0.03750*%
%ADD18R,0.03750X0.06899*%
%ADD19C,0.08000*%
%ADD20C,0.06300*%
%ADD21R,0.08000X0.08000*%
%ADD22OC8,0.12411*%
%ADD23C,0.08000*%
%ADD24R,0.02765X0.05324*%
%ADD25R,0.06899X0.06112*%
%ADD26R,0.05324X0.02765*%
%ADD27R,0.02175X0.06112*%
%ADD28C,0.03946*%
%ADD29R,0.07874X0.06693*%
%ADD30R,0.10630X0.06693*%
%ADD31R,0.07687X0.04537*%
%ADD32R,0.03868X0.03080*%
%ADD33R,0.03150X0.01969*%
%ADD34R,0.01575X0.06299*%
%ADD35R,0.06600X0.03600*%
%ADD36R,0.02569X0.06506*%
%ADD37R,0.06506X0.02569*%
%ADD38OC8,0.08000*%
%ADD39R,0.04143X0.03356*%
%ADD40R,0.02000X0.06400*%
%ADD41R,0.12400X0.12400*%
%ADD42C,0.03700*%
%ADD43C,0.03378*%
D10*
X0024772Y0052331D03*
X0166504Y0052331D03*
D11*
X0126544Y0103512D03*
X0119851Y0103512D03*
X0104300Y0142764D03*
X0097607Y0142764D03*
X0074575Y0116307D03*
X0067882Y0116307D03*
X0086780Y0201544D03*
X0093473Y0201544D03*
X0095638Y0211485D03*
X0098493Y0219654D03*
X0102331Y0211485D03*
X0109024Y0224083D03*
X0115717Y0224083D03*
X0105874Y0257252D03*
X0099181Y0257252D03*
X0090126Y0257154D03*
X0083433Y0257154D03*
X0061977Y0249969D03*
X0055284Y0249969D03*
X0057646Y0237370D03*
X0050953Y0237370D03*
X0048591Y0211386D03*
X0041898Y0211386D03*
X0074181Y0206662D03*
X0080874Y0206662D03*
X0091800Y0219654D03*
X0044359Y0297902D03*
X0037666Y0297902D03*
X0039437Y0334811D03*
X0032744Y0334811D03*
X0146268Y0273296D03*
X0152961Y0273296D03*
X0160205Y0273335D03*
X0166898Y0273335D03*
D12*
X0182252Y0294556D03*
X0182252Y0301248D03*
X0112174Y0186780D03*
X0112174Y0180087D03*
X0077233Y0235008D03*
X0077233Y0241701D03*
X0047213Y0245835D03*
X0047213Y0252528D03*
X0045441Y0325067D03*
X0045441Y0331760D03*
X0025264Y0331760D03*
X0025264Y0325067D03*
X0090126Y0307646D03*
X0090126Y0300953D03*
X0099575Y0300953D03*
X0099575Y0307646D03*
X0027134Y0142685D03*
X0027134Y0135993D03*
X0042489Y0124969D03*
X0042489Y0118276D03*
X0050363Y0118240D03*
X0050363Y0124932D03*
X0058237Y0124969D03*
X0058237Y0118276D03*
X0009418Y0135599D03*
X0009418Y0142292D03*
D13*
X0085925Y0231931D02*
X0088925Y0231931D01*
X0088925Y0233927D02*
X0085925Y0233927D01*
X0085925Y0235904D02*
X0088925Y0235904D01*
X0088925Y0238010D02*
X0085925Y0238010D01*
X0085925Y0239997D02*
X0088925Y0239997D01*
X0088925Y0241983D02*
X0085925Y0241983D01*
X0090572Y0243731D02*
X0090572Y0246731D01*
X0092569Y0246731D02*
X0092569Y0243731D01*
X0094546Y0243731D02*
X0094546Y0246731D01*
X0096652Y0246731D02*
X0096652Y0243731D01*
X0098639Y0243731D02*
X0098639Y0246731D01*
X0100625Y0246731D02*
X0100625Y0243731D01*
X0102273Y0241983D02*
X0105273Y0241983D01*
X0105273Y0239997D02*
X0102273Y0239997D01*
X0102273Y0238010D02*
X0105273Y0238010D01*
X0105273Y0235904D02*
X0102273Y0235904D01*
X0102273Y0233927D02*
X0105273Y0233927D01*
X0105273Y0231931D02*
X0102273Y0231931D01*
X0100625Y0230183D02*
X0100625Y0227183D01*
X0098639Y0227183D02*
X0098639Y0230183D01*
X0096652Y0230183D02*
X0096652Y0227183D01*
X0094546Y0227183D02*
X0094546Y0230183D01*
X0092569Y0230183D02*
X0092569Y0227183D01*
X0090572Y0227183D02*
X0090572Y0230183D01*
D14*
X0095559Y0236918D03*
D15*
X0072016Y0106071D03*
X0072016Y0093079D03*
D16*
X0036583Y0133630D03*
X0036583Y0139536D03*
X0018473Y0141898D03*
X0018473Y0135993D03*
X0057843Y0223788D03*
X0057843Y0229693D03*
X0034615Y0322016D03*
X0034615Y0327922D03*
X0146622Y0266386D03*
X0152528Y0266386D03*
X0161189Y0266347D03*
X0167095Y0266347D03*
D17*
X0184615Y0220048D03*
X0184615Y0215323D03*
X0184615Y0210599D03*
X0184615Y0205874D03*
X0184615Y0201150D03*
X0184615Y0196426D03*
X0184615Y0191701D03*
X0184615Y0186977D03*
X0184615Y0182252D03*
X0184615Y0177528D03*
X0184615Y0172804D03*
X0184615Y0168079D03*
X0132646Y0168079D03*
X0132646Y0172804D03*
X0132646Y0177528D03*
X0132646Y0182252D03*
X0132646Y0186977D03*
X0132646Y0191701D03*
X0132646Y0196426D03*
X0132646Y0201150D03*
X0132646Y0205874D03*
X0132646Y0210599D03*
X0132646Y0215323D03*
X0132646Y0220048D03*
D18*
X0164930Y0231071D03*
X0171229Y0231071D03*
X0177528Y0231071D03*
X0174859Y0157056D03*
X0170835Y0157056D03*
X0166111Y0157056D03*
X0161386Y0157056D03*
X0155874Y0157056D03*
X0151150Y0157056D03*
X0146426Y0157056D03*
X0142401Y0157056D03*
D19*
X0182351Y0284811D03*
X0012961Y0199339D03*
X0012961Y0189339D03*
X0012961Y0179339D03*
D20*
X0026741Y0262961D03*
X0026741Y0270835D03*
D21*
X0024772Y0288552D03*
X0034615Y0288552D03*
X0044457Y0288552D03*
X0085796Y0268867D03*
X0095638Y0268867D03*
X0105481Y0268867D03*
X0144851Y0288552D03*
X0154693Y0288552D03*
X0164536Y0288552D03*
X0023867Y0096662D03*
D22*
X0078315Y0296426D03*
X0051937Y0316111D03*
X0017292Y0316111D03*
X0112961Y0296426D03*
X0137370Y0316111D03*
X0172016Y0316111D03*
D23*
X0115323Y0063905D02*
X0115323Y0056505D01*
X0105323Y0056505D02*
X0105323Y0063905D01*
X0080048Y0063905D02*
X0080048Y0056505D01*
X0070048Y0056505D02*
X0070048Y0063905D01*
D24*
X0038355Y0304594D03*
X0034615Y0304594D03*
X0030874Y0304594D03*
X0030874Y0314831D03*
X0038355Y0314831D03*
D25*
X0040914Y0230678D03*
X0040914Y0219654D03*
X0028709Y0219260D03*
X0028709Y0230284D03*
D26*
X0029890Y0240323D03*
X0029890Y0244063D03*
X0029890Y0247804D03*
X0040127Y0247804D03*
X0040127Y0240323D03*
D27*
X0090520Y0323689D03*
X0093079Y0323689D03*
X0095638Y0323689D03*
X0098197Y0323689D03*
X0100756Y0323689D03*
D28*
X0103119Y0325658D03*
X0088158Y0325658D03*
D29*
X0081134Y0334319D03*
X0110142Y0334319D03*
D30*
X0095638Y0334319D03*
D31*
X0013355Y0249969D03*
X0013355Y0238945D03*
D32*
X0017685Y0230481D03*
X0017685Y0221426D03*
D33*
X0031071Y0159221D03*
X0031071Y0150953D03*
X0036977Y0150953D03*
X0036977Y0159221D03*
X0042882Y0159221D03*
X0042882Y0150953D03*
D34*
X0042882Y0155087D03*
X0036977Y0155087D03*
X0031071Y0155087D03*
D35*
X0044792Y0259890D03*
X0044792Y0274890D03*
X0064792Y0274890D03*
X0064792Y0259890D03*
D36*
X0064536Y0191307D03*
X0061386Y0191307D03*
X0058237Y0191307D03*
X0067685Y0191307D03*
X0070835Y0191307D03*
X0073985Y0191307D03*
X0077134Y0191307D03*
X0080284Y0191307D03*
X0083433Y0191307D03*
X0086583Y0191307D03*
X0089733Y0191307D03*
X0089733Y0145638D03*
X0086583Y0145638D03*
X0083433Y0145638D03*
X0080284Y0145638D03*
X0077134Y0145638D03*
X0073985Y0145638D03*
X0070835Y0145638D03*
X0067685Y0145638D03*
X0064536Y0145638D03*
X0061386Y0145638D03*
X0058237Y0145638D03*
D37*
X0051150Y0152725D03*
X0051150Y0155874D03*
X0051150Y0159024D03*
X0051150Y0162174D03*
X0051150Y0165323D03*
X0051150Y0168473D03*
X0051150Y0171622D03*
X0051150Y0174772D03*
X0051150Y0177922D03*
X0051150Y0181071D03*
X0051150Y0184221D03*
X0096819Y0184221D03*
X0096819Y0181071D03*
X0096819Y0177922D03*
X0096819Y0174772D03*
X0096819Y0171622D03*
X0096819Y0168473D03*
X0096819Y0165323D03*
X0096819Y0162174D03*
X0096819Y0159024D03*
X0096819Y0155874D03*
X0096819Y0152725D03*
D38*
X0023867Y0116662D03*
X0023867Y0106662D03*
X0013867Y0106662D03*
X0013867Y0096662D03*
X0013867Y0116662D03*
D39*
X0073985Y0250953D03*
X0073985Y0256071D03*
D40*
X0090575Y0122886D03*
X0093175Y0122886D03*
X0095775Y0122886D03*
X0098275Y0122886D03*
X0100875Y0122886D03*
X0103375Y0122886D03*
X0105975Y0122886D03*
X0108575Y0122886D03*
X0108575Y0099886D03*
X0105975Y0099886D03*
X0103375Y0099886D03*
X0100875Y0099886D03*
X0098275Y0099886D03*
X0095775Y0099886D03*
X0093175Y0099886D03*
X0090575Y0099886D03*
D41*
X0099575Y0111386D03*
D42*
X0098729Y0129457D03*
X0092095Y0139930D03*
X0096819Y0149378D03*
X0102626Y0154300D03*
X0113187Y0147282D03*
X0114339Y0138945D03*
X0121229Y0131957D03*
X0115520Y0119654D03*
X0117489Y0114142D03*
X0134713Y0098296D03*
X0141800Y0107351D03*
X0146327Y0150756D03*
X0142489Y0164142D03*
X0142489Y0168473D03*
X0143670Y0172804D03*
X0132252Y0163453D03*
X0126347Y0168178D03*
X0114536Y0192193D03*
X0107843Y0196819D03*
X0103119Y0197607D03*
X0106662Y0184319D03*
X0102725Y0181170D03*
X0093276Y0196918D03*
X0090520Y0207154D03*
X0083040Y0196918D03*
X0079890Y0180284D03*
X0074378Y0181465D03*
X0073985Y0172804D03*
X0070441Y0160205D03*
X0070048Y0155481D03*
X0064930Y0163748D03*
X0063355Y0167685D03*
X0059024Y0153906D03*
X0057449Y0139831D03*
X0072410Y0124772D03*
X0062961Y0111977D03*
X0063650Y0093178D03*
X0072016Y0086288D03*
X0057154Y0071524D03*
X0046130Y0108138D03*
X0031465Y0114536D03*
X0030284Y0085402D03*
X0026741Y0082056D03*
X0036878Y0163355D03*
X0043276Y0174870D03*
X0051937Y0191307D03*
X0048394Y0193276D03*
X0055087Y0195737D03*
X0057843Y0199181D03*
X0061386Y0203119D03*
X0064930Y0199181D03*
X0066111Y0203217D03*
X0069260Y0209516D03*
X0073985Y0216209D03*
X0071032Y0224280D03*
X0083433Y0228020D03*
X0082252Y0235107D03*
X0083040Y0250067D03*
X0088552Y0249969D03*
X0104300Y0250067D03*
X0109122Y0261386D03*
X0111878Y0270835D03*
X0121721Y0257548D03*
X0117095Y0253611D03*
X0113355Y0250067D03*
X0111386Y0243374D03*
X0112567Y0231170D03*
X0109811Y0228414D03*
X0105481Y0218571D03*
X0112174Y0207941D03*
X0130284Y0224870D03*
X0138945Y0219752D03*
X0165717Y0224969D03*
X0173197Y0225363D03*
X0178315Y0217784D03*
X0186189Y0224870D03*
X0172410Y0273394D03*
X0164536Y0281662D03*
X0171918Y0288552D03*
X0164536Y0294949D03*
X0177528Y0300559D03*
X0181859Y0306071D03*
X0151937Y0278119D03*
X0140126Y0278414D03*
X0136189Y0285107D03*
X0129496Y0273689D03*
X0123591Y0278807D03*
X0099969Y0293670D03*
X0090126Y0290126D03*
X0090126Y0317095D03*
X0070835Y0274870D03*
X0064536Y0279595D03*
X0049969Y0298197D03*
X0043670Y0302922D03*
X0042882Y0309418D03*
X0051150Y0331957D03*
X0045638Y0336681D03*
X0025166Y0336681D03*
X0019654Y0331563D03*
X0023591Y0306662D03*
X0027134Y0302134D03*
X0038158Y0274870D03*
X0044063Y0270540D03*
X0053119Y0255579D03*
X0041307Y0252823D03*
X0029496Y0252036D03*
X0024378Y0244162D03*
X0029103Y0236681D03*
X0035008Y0224870D03*
X0052725Y0223689D03*
X0057843Y0218965D03*
X0060599Y0209516D03*
X0170933Y0150264D03*
D43*
X0115323Y0091701D03*
X0103512Y0091701D03*
X0095586Y0091701D03*
X0097400Y0111770D03*
X0102400Y0111770D03*
X0103461Y0129270D03*
X0097400Y0138209D03*
X0094900Y0130331D03*
X0086124Y0126744D03*
X0081150Y0105520D03*
X0052331Y0111386D03*
M02*
